<?xml version="1.0" encoding="UTF-8" ?>
<svg version="1.1" width="64" height="64" xmlns="http://www.w3.org/2000/svg" shape-rendering="crispEdges">
<rect x="32" y="6" width="2" height="2" fill="#151922" />
<rect x="34" y="6" width="2" height="2" fill="#161326" />
<rect x="36" y="6" width="2" height="2" fill="#171523" />
<rect x="30" y="8" width="2" height="2" fill="#121421" />
<rect x="32" y="8" width="2" height="2" fill="#BFC8D7" />
<rect x="34" y="8" width="2" height="2" fill="#282737" />
<rect x="36" y="8" width="2" height="2" fill="#181121" />
<rect x="28" y="10" width="2" height="2" fill="#191524" />
<rect x="30" y="10" width="2" height="2" fill="#8B9BB2" />
<rect x="32" y="10" width="2" height="2" fill="#FCFBFF" />
<rect x="34" y="10" width="2" height="2" fill="#2F2F37" />
<rect x="36" y="10" width="2" height="2" fill="#181532" />
<rect x="28" y="12" width="2" height="2" fill="#1A172A" />
<rect x="30" y="12" width="2" height="2" fill="#B8C5D6" />
<rect x="32" y="12" width="2" height="2" fill="#FEFEFF" />
<rect x="34" y="12" width="2" height="2" fill="#322E3C" />
<rect x="36" y="12" width="2" height="2" fill="#161128" />
<rect x="26" y="14" width="2" height="2" fill="#0A1B13" />
<rect x="28" y="14" width="2" height="2" fill="#909BB1" />
<rect x="30" y="14" width="2" height="2" fill="#FBFEFF" />
<rect x="32" y="14" width="2" height="2" fill="#6ED5D2" />
<rect x="34" y="14" width="2" height="2" fill="#002029" />
<rect x="36" y="14" width="2" height="2" fill="#1B1322" />
<rect x="26" y="16" width="2" height="2" fill="#1B162A" />
<rect x="28" y="16" width="2" height="2" fill="#B9C8DD" />
<rect x="30" y="16" width="2" height="2" fill="#FEFEFE" />
<rect x="32" y="16" width="2" height="2" fill="#3BE1ED" />
<rect x="34" y="16" width="2" height="2" fill="#04344A" />
<rect x="36" y="16" width="2" height="2" fill="#181526" />
<rect x="26" y="18" width="2" height="2" fill="#1C1525" />
<rect x="28" y="18" width="2" height="2" fill="#C6CFD8" />
<rect x="30" y="18" width="2" height="2" fill="#FEFEFE" />
<rect x="32" y="18" width="2" height="2" fill="#3BE1ED" />
<rect x="34" y="18" width="2" height="2" fill="#04344A" />
<rect x="36" y="18" width="2" height="2" fill="#181526" />
<rect x="26" y="20" width="2" height="2" fill="#1B1424" />
<rect x="28" y="20" width="2" height="2" fill="#FDFFFE" />
<rect x="30" y="20" width="2" height="2" fill="#FEFEFE" />
<rect x="32" y="20" width="2" height="2" fill="#3BE1ED" />
<rect x="34" y="20" width="2" height="2" fill="#04344A" />
<rect x="36" y="20" width="2" height="2" fill="#181526" />
<rect x="26" y="22" width="2" height="2" fill="#1A1627" />
<rect x="28" y="22" width="2" height="2" fill="#FFFFFF" />
<rect x="30" y="22" width="2" height="2" fill="#FEFEFE" />
<rect x="32" y="22" width="2" height="2" fill="#3BE1ED" />
<rect x="34" y="22" width="2" height="2" fill="#04344A" />
<rect x="36" y="22" width="2" height="2" fill="#181526" />
<rect x="26" y="24" width="2" height="2" fill="#1A1627" />
<rect x="28" y="24" width="2" height="2" fill="#FFFFFF" />
<rect x="30" y="24" width="2" height="2" fill="#FEFEFE" />
<rect x="32" y="24" width="2" height="2" fill="#3BE1ED" />
<rect x="34" y="24" width="2" height="2" fill="#04344A" />
<rect x="36" y="24" width="2" height="2" fill="#181526" />
<rect x="26" y="26" width="2" height="2" fill="#1A1627" />
<rect x="28" y="26" width="2" height="2" fill="#FFFFFF" />
<rect x="30" y="26" width="2" height="2" fill="#FEFEFE" />
<rect x="32" y="26" width="2" height="2" fill="#3BE1ED" />
<rect x="34" y="26" width="2" height="2" fill="#04344A" />
<rect x="36" y="26" width="2" height="2" fill="#181526" />
<rect x="26" y="28" width="2" height="2" fill="#1A1627" />
<rect x="28" y="28" width="2" height="2" fill="#FFFFFF" />
<rect x="30" y="28" width="2" height="2" fill="#FEFEFE" />
<rect x="32" y="28" width="2" height="2" fill="#3BE1ED" />
<rect x="34" y="28" width="2" height="2" fill="#04344A" />
<rect x="36" y="28" width="2" height="2" fill="#181526" />
<rect x="26" y="30" width="2" height="2" fill="#141420" />
<rect x="28" y="30" width="2" height="2" fill="#CDD1DC" />
<rect x="30" y="30" width="2" height="2" fill="#FFFDFE" />
<rect x="32" y="30" width="2" height="2" fill="#3AE2EB" />
<rect x="34" y="30" width="2" height="2" fill="#043546" />
<rect x="36" y="30" width="2" height="2" fill="#151628" />
<rect x="26" y="32" width="2" height="2" fill="#191629" />
<rect x="28" y="32" width="2" height="2" fill="#9FD0FB" />
<rect x="30" y="32" width="2" height="2" fill="#FDFFFE" />
<rect x="32" y="32" width="2" height="2" fill="#3FDCFB" />
<rect x="34" y="32" width="2" height="2" fill="#083054" />
<rect x="36" y="32" width="2" height="2" fill="#1E1228" />
<rect x="26" y="34" width="2" height="2" fill="#150F33" />
<rect x="28" y="34" width="2" height="2" fill="#1397D5" />
<rect x="30" y="34" width="2" height="2" fill="#B2D1F0" />
<rect x="32" y="34" width="2" height="2" fill="#1793D3" />
<rect x="34" y="34" width="2" height="2" fill="#093057" />
<rect x="36" y="34" width="2" height="2" fill="#1A1323" />
<rect x="28" y="36" width="2" height="2" fill="#120F20" />
<rect x="30" y="36" width="2" height="2" fill="#0097D4" />
<rect x="32" y="36" width="2" height="2" fill="#0D5492" />
<rect x="34" y="36" width="2" height="2" fill="#18244A" />
<rect x="36" y="36" width="2" height="2" fill="#141325" />
<rect x="26" y="38" width="2" height="2" fill="#181425" />
<rect x="28" y="38" width="2" height="2" fill="#18132A" />
<rect x="30" y="38" width="2" height="2" fill="#13102B" />
<rect x="32" y="38" width="2" height="2" fill="#1A172C" />
<rect x="34" y="38" width="2" height="2" fill="#171522" />
<rect x="36" y="38" width="2" height="2" fill="#191722" />
<rect x="38" y="38" width="2" height="2" fill="#18191E" />
<rect x="24" y="40" width="2" height="2" fill="#230A06" />
<rect x="26" y="40" width="2" height="2" fill="#BE4638" />
<rect x="28" y="40" width="2" height="2" fill="#D27742" />
<rect x="30" y="40" width="2" height="2" fill="#D87440" />
<rect x="32" y="40" width="2" height="2" fill="#B74A2D" />
<rect x="34" y="40" width="2" height="2" fill="#8B3E2E" />
<rect x="36" y="40" width="2" height="2" fill="#6E3C33" />
<rect x="38" y="40" width="2" height="2" fill="#663B42" />
<rect x="40" y="40" width="2" height="2" fill="#151515" />
<rect x="22" y="42" width="2" height="2" fill="#0F121B" />
<rect x="24" y="42" width="2" height="2" fill="#1A0F20" />
<rect x="26" y="42" width="2" height="2" fill="#290F1A" />
<rect x="28" y="42" width="2" height="2" fill="#240F0A" />
<rect x="30" y="42" width="2" height="2" fill="#230E15" />
<rect x="32" y="42" width="2" height="2" fill="#280C18" />
<rect x="34" y="42" width="2" height="2" fill="#220C18" />
<rect x="36" y="42" width="2" height="2" fill="#1F131D" />
<rect x="38" y="42" width="2" height="2" fill="#241822" />
<rect x="40" y="42" width="2" height="2" fill="#171624" />
<rect x="24" y="44" width="2" height="2" fill="#10181B" />
<rect x="26" y="44" width="2" height="2" fill="#12211C" />
<rect x="28" y="44" width="2" height="2" fill="#1C1330" />
<rect x="30" y="44" width="2" height="2" fill="#261B29" />
<rect x="32" y="44" width="2" height="2" fill="#2A1D2E" />
<rect x="34" y="44" width="2" height="2" fill="#181520" />
<rect x="36" y="44" width="2" height="2" fill="#181621" />
<rect x="38" y="44" width="2" height="2" fill="#12171A" />
<rect x="40" y="44" width="2" height="2" fill="#0B1C14" />
<rect x="28" y="46" width="2" height="2" fill="#171626" />
<rect x="30" y="46" width="2" height="2" fill="#553135" />
<rect x="32" y="46" width="2" height="2" fill="#422833" />
<rect x="34" y="46" width="2" height="2" fill="#221A29" />
<rect x="36" y="46" width="2" height="2" fill="#19142A" />
<rect x="28" y="48" width="2" height="2" fill="#1A1227" />
<rect x="30" y="48" width="2" height="2" fill="#753E2A" />
<rect x="32" y="48" width="2" height="2" fill="#432620" />
<rect x="34" y="48" width="2" height="2" fill="#1C121B" />
<rect x="36" y="48" width="2" height="2" fill="#161229" />
<rect x="28" y="50" width="2" height="2" fill="#1A1325" />
<rect x="30" y="50" width="2" height="2" fill="#BA4B37" />
<rect x="32" y="50" width="2" height="2" fill="#783C32" />
<rect x="34" y="50" width="2" height="2" fill="#2C191F" />
<rect x="36" y="50" width="2" height="2" fill="#151726" />
<rect x="28" y="52" width="2" height="2" fill="#191526" />
<rect x="30" y="52" width="2" height="2" fill="#724037" />
<rect x="32" y="52" width="2" height="2" fill="#432A2D" />
<rect x="34" y="52" width="2" height="2" fill="#1F1724" />
<rect x="36" y="52" width="2" height="2" fill="#151225" />
<rect x="28" y="54" width="2" height="2" fill="#1B1328" />
<rect x="30" y="54" width="2" height="2" fill="#DE764F" />
<rect x="32" y="54" width="2" height="2" fill="#7B4032" />
<rect x="34" y="54" width="2" height="2" fill="#2E1922" />
<rect x="36" y="54" width="2" height="2" fill="#17152B" />
<rect x="30" y="56" width="2" height="2" fill="#220A08" />
<rect x="32" y="56" width="2" height="2" fill="#1E141C" />
<rect x="34" y="56" width="2" height="2" fill="#12101E" />
<rect x="36" y="56" width="2" height="2" fill="#171324" />
</svg>