<?xml version="1.0" encoding="UTF-8" ?>
<svg version="1.1" width="64" height="64" xmlns="http://www.w3.org/2000/svg" shape-rendering="crispEdges">
<rect x="10" y="8" width="2" height="2" fill="#16122B" />
<rect x="12" y="8" width="2" height="2" fill="#16122B" />
<rect x="14" y="8" width="2" height="2" fill="#16122B" />
<rect x="16" y="8" width="2" height="2" fill="#16122B" />
<rect x="18" y="8" width="2" height="2" fill="#16122B" />
<rect x="46" y="8" width="2" height="2" fill="#071C0B" />
<rect x="48" y="8" width="2" height="2" fill="#0D1D12" />
<rect x="50" y="8" width="2" height="2" fill="#112116" />
<rect x="52" y="8" width="2" height="2" fill="#111D11" />
<rect x="54" y="8" width="2" height="2" fill="#0E1E13" />
<rect x="10" y="10" width="2" height="2" fill="#1B172E" />
<rect x="12" y="10" width="2" height="2" fill="#181526" />
<rect x="14" y="10" width="2" height="2" fill="#1C1622" />
<rect x="16" y="10" width="2" height="2" fill="#1D1626" />
<rect x="18" y="10" width="2" height="2" fill="#1D152C" />
<rect x="46" y="10" width="2" height="2" fill="#15181D" />
<rect x="48" y="10" width="2" height="2" fill="#1A152B" />
<rect x="50" y="10" width="2" height="2" fill="#110F24" />
<rect x="52" y="10" width="2" height="2" fill="#1D181F" />
<rect x="54" y="10" width="2" height="2" fill="#1A1732" />
<rect x="56" y="10" width="2" height="2" fill="#111E0D" />
<rect x="10" y="12" width="2" height="2" fill="#16122B" />
<rect x="12" y="12" width="2" height="2" fill="#6D4239" />
<rect x="14" y="12" width="2" height="2" fill="#B25C39" />
<rect x="16" y="12" width="2" height="2" fill="#AC6A2E" />
<rect x="18" y="12" width="2" height="2" fill="#C68E5D" />
<rect x="20" y="12" width="2" height="2" fill="#1C1E06" />
<rect x="22" y="12" width="2" height="2" fill="#0E1E14" />
<rect x="24" y="12" width="2" height="2" fill="#121A1D" />
<rect x="26" y="12" width="2" height="2" fill="#181623" />
<rect x="28" y="12" width="2" height="2" fill="#121921" />
<rect x="30" y="12" width="2" height="2" fill="#121921" />
<rect x="32" y="12" width="2" height="2" fill="#121921" />
<rect x="34" y="12" width="2" height="2" fill="#121921" />
<rect x="36" y="12" width="2" height="2" fill="#121921" />
<rect x="38" y="12" width="2" height="2" fill="#12191F" />
<rect x="40" y="12" width="2" height="2" fill="#121A1D" />
<rect x="42" y="12" width="2" height="2" fill="#121921" />
<rect x="44" y="12" width="2" height="2" fill="#171A13" />
<rect x="46" y="12" width="2" height="2" fill="#B49056" />
<rect x="48" y="12" width="2" height="2" fill="#C9904B" />
<rect x="50" y="12" width="2" height="2" fill="#AF6735" />
<rect x="52" y="12" width="2" height="2" fill="#AC5F43" />
<rect x="54" y="12" width="2" height="2" fill="#191126" />
<rect x="56" y="12" width="2" height="2" fill="#101D14" />
<rect x="10" y="14" width="2" height="2" fill="#171626" />
<rect x="12" y="14" width="2" height="2" fill="#97572B" />
<rect x="14" y="14" width="2" height="2" fill="#F26B19" />
<rect x="16" y="14" width="2" height="2" fill="#F6961B" />
<rect x="18" y="14" width="2" height="2" fill="#FFAC42" />
<rect x="20" y="14" width="2" height="2" fill="#281200" />
<rect x="22" y="14" width="2" height="2" fill="#191516" />
<rect x="24" y="14" width="2" height="2" fill="#1D1218" />
<rect x="26" y="14" width="2" height="2" fill="#1C1024" />
<rect x="28" y="14" width="2" height="2" fill="#1C1412" />
<rect x="30" y="14" width="2" height="2" fill="#1D1312" />
<rect x="32" y="14" width="2" height="2" fill="#1D1312" />
<rect x="34" y="14" width="2" height="2" fill="#1C1412" />
<rect x="36" y="14" width="2" height="2" fill="#1D1312" />
<rect x="38" y="14" width="2" height="2" fill="#1D1216" />
<rect x="40" y="14" width="2" height="2" fill="#1E111B" />
<rect x="42" y="14" width="2" height="2" fill="#200F21" />
<rect x="44" y="14" width="2" height="2" fill="#241011" />
<rect x="46" y="14" width="2" height="2" fill="#F6AA5C" />
<rect x="48" y="14" width="2" height="2" fill="#FFAB3A" />
<rect x="50" y="14" width="2" height="2" fill="#F17D18" />
<rect x="52" y="14" width="2" height="2" fill="#E8711D" />
<rect x="54" y="14" width="2" height="2" fill="#181617" />
<rect x="56" y="14" width="2" height="2" fill="#0E1D1A" />
<rect x="10" y="16" width="2" height="2" fill="#171523" />
<rect x="12" y="16" width="2" height="2" fill="#A26B42" />
<rect x="14" y="16" width="2" height="2" fill="#FF8E46" />
<rect x="16" y="16" width="2" height="2" fill="#FC972F" />
<rect x="18" y="16" width="2" height="2" fill="#F68E2B" />
<rect x="20" y="16" width="2" height="2" fill="#A36D31" />
<rect x="22" y="16" width="2" height="2" fill="#9B7449" />
<rect x="24" y="16" width="2" height="2" fill="#A1743B" />
<rect x="26" y="16" width="2" height="2" fill="#9D793F" />
<rect x="28" y="16" width="2" height="2" fill="#9E7645" />
<rect x="30" y="16" width="2" height="2" fill="#9E7645" />
<rect x="32" y="16" width="2" height="2" fill="#9E7645" />
<rect x="34" y="16" width="2" height="2" fill="#9F7746" />
<rect x="36" y="16" width="2" height="2" fill="#9F7746" />
<rect x="38" y="16" width="2" height="2" fill="#9E7945" />
<rect x="40" y="16" width="2" height="2" fill="#9D763D" />
<rect x="42" y="16" width="2" height="2" fill="#945E30" />
<rect x="44" y="16" width="2" height="2" fill="#964F2F" />
<rect x="46" y="16" width="2" height="2" fill="#EE8B38" />
<rect x="48" y="16" width="2" height="2" fill="#F38F1D" />
<rect x="50" y="16" width="2" height="2" fill="#FE952C" />
<rect x="52" y="16" width="2" height="2" fill="#F99245" />
<rect x="54" y="16" width="2" height="2" fill="#161220" />
<rect x="56" y="16" width="2" height="2" fill="#111B1D" />
<rect x="10" y="18" width="2" height="2" fill="#16122B" />
<rect x="12" y="18" width="2" height="2" fill="#9F763E" />
<rect x="14" y="18" width="2" height="2" fill="#FAA43D" />
<rect x="16" y="18" width="2" height="2" fill="#FF8F33" />
<rect x="18" y="18" width="2" height="2" fill="#F67823" />
<rect x="20" y="18" width="2" height="2" fill="#FFAD36" />
<rect x="22" y="18" width="2" height="2" fill="#FFB332" />
<rect x="24" y="18" width="2" height="2" fill="#FCAD2E" />
<rect x="26" y="18" width="2" height="2" fill="#FBAD2F" />
<rect x="28" y="18" width="2" height="2" fill="#FCAC2F" />
<rect x="30" y="18" width="2" height="2" fill="#FCAC31" />
<rect x="32" y="18" width="2" height="2" fill="#FCAC31" />
<rect x="34" y="18" width="2" height="2" fill="#FDAD30" />
<rect x="36" y="18" width="2" height="2" fill="#FDAD32" />
<rect x="38" y="18" width="2" height="2" fill="#FBAC33" />
<rect x="40" y="18" width="2" height="2" fill="#FFB03A" />
<rect x="42" y="18" width="2" height="2" fill="#F68620" />
<rect x="44" y="18" width="2" height="2" fill="#F97220" />
<rect x="46" y="18" width="2" height="2" fill="#FF7B20" />
<rect x="48" y="18" width="2" height="2" fill="#EF7919" />
<rect x="50" y="18" width="2" height="2" fill="#FFAD4D" />
<rect x="52" y="18" width="2" height="2" fill="#F4A85A" />
<rect x="54" y="18" width="2" height="2" fill="#191816" />
<rect x="56" y="18" width="2" height="2" fill="#121F15" />
<rect x="12" y="20" width="2" height="2" fill="#161421" />
<rect x="14" y="20" width="2" height="2" fill="#211505" />
<rect x="16" y="20" width="2" height="2" fill="#FFA640" />
<rect x="18" y="20" width="2" height="2" fill="#FFA640" />
<rect x="20" y="20" width="2" height="2" fill="#FAA82A" />
<rect x="22" y="20" width="2" height="2" fill="#F4A731" />
<rect x="24" y="20" width="2" height="2" fill="#FFEEB1" />
<rect x="26" y="20" width="2" height="2" fill="#FFFDD9" />
<rect x="28" y="20" width="2" height="2" fill="#FFE565" />
<rect x="30" y="20" width="2" height="2" fill="#FFE469" />
<rect x="32" y="20" width="2" height="2" fill="#FFE567" />
<rect x="34" y="20" width="2" height="2" fill="#FFE360" />
<rect x="36" y="20" width="2" height="2" fill="#FFE462" />
<rect x="38" y="20" width="2" height="2" fill="#FDE65A" />
<rect x="40" y="20" width="2" height="2" fill="#FDE65A" />
<rect x="42" y="20" width="2" height="2" fill="#FFAB3E" />
<rect x="44" y="20" width="2" height="2" fill="#FFAB3E" />
<rect x="46" y="20" width="2" height="2" fill="#F57F27" />
<rect x="48" y="20" width="2" height="2" fill="#EE7D43" />
<rect x="50" y="20" width="2" height="2" fill="#101A19" />
<rect x="52" y="20" width="2" height="2" fill="#221C00" />
<rect x="12" y="22" width="2" height="2" fill="#161421" />
<rect x="14" y="22" width="2" height="2" fill="#161421" />
<rect x="16" y="22" width="2" height="2" fill="#FFA640" />
<rect x="18" y="22" width="2" height="2" fill="#FFB036" />
<rect x="20" y="22" width="2" height="2" fill="#FFAE3A" />
<rect x="22" y="22" width="2" height="2" fill="#FFAB4A" />
<rect x="24" y="22" width="2" height="2" fill="#FFF4D2" />
<rect x="26" y="22" width="2" height="2" fill="#FCF7F1" />
<rect x="28" y="22" width="2" height="2" fill="#FFE361" />
<rect x="30" y="22" width="2" height="2" fill="#FFE670" />
<rect x="32" y="22" width="2" height="2" fill="#FFE56B" />
<rect x="34" y="22" width="2" height="2" fill="#FCE65D" />
<rect x="36" y="22" width="2" height="2" fill="#FDE65A" />
<rect x="38" y="22" width="2" height="2" fill="#FDE65A" />
<rect x="40" y="22" width="2" height="2" fill="#FDE65A" />
<rect x="42" y="22" width="2" height="2" fill="#FFAB3E" />
<rect x="44" y="22" width="2" height="2" fill="#FFAB3E" />
<rect x="46" y="22" width="2" height="2" fill="#F37E15" />
<rect x="48" y="22" width="2" height="2" fill="#E5793B" />
<rect x="50" y="22" width="2" height="2" fill="#101A19" />
<rect x="52" y="22" width="2" height="2" fill="#18151E" />
<rect x="12" y="24" width="2" height="2" fill="#161421" />
<rect x="14" y="24" width="2" height="2" fill="#161421" />
<rect x="16" y="24" width="2" height="2" fill="#FFA640" />
<rect x="18" y="24" width="2" height="2" fill="#FFAD41" />
<rect x="20" y="24" width="2" height="2" fill="#DB591F" />
<rect x="22" y="24" width="2" height="2" fill="#D74325" />
<rect x="24" y="24" width="2" height="2" fill="#D94D4C" />
<rect x="26" y="24" width="2" height="2" fill="#CE4451" />
<rect x="28" y="24" width="2" height="2" fill="#D44534" />
<rect x="30" y="24" width="2" height="2" fill="#D34D2A" />
<rect x="32" y="24" width="2" height="2" fill="#D44934" />
<rect x="34" y="24" width="2" height="2" fill="#CA5D24" />
<rect x="36" y="24" width="2" height="2" fill="#FFE26A" />
<rect x="38" y="24" width="2" height="2" fill="#FFECA0" />
<rect x="40" y="24" width="2" height="2" fill="#FFFEDA" />
<rect x="42" y="24" width="2" height="2" fill="#FFC878" />
<rect x="44" y="24" width="2" height="2" fill="#FCAC31" />
<rect x="46" y="24" width="2" height="2" fill="#F77C15" />
<rect x="48" y="24" width="2" height="2" fill="#E67742" />
<rect x="50" y="24" width="2" height="2" fill="#101A19" />
<rect x="52" y="24" width="2" height="2" fill="#18151E" />
<rect x="12" y="26" width="2" height="2" fill="#161421" />
<rect x="14" y="26" width="2" height="2" fill="#161421" />
<rect x="16" y="26" width="2" height="2" fill="#FFA640" />
<rect x="18" y="26" width="2" height="2" fill="#FAAC3F" />
<rect x="20" y="26" width="2" height="2" fill="#D64534" />
<rect x="22" y="26" width="2" height="2" fill="#DD3B48" />
<rect x="24" y="26" width="2" height="2" fill="#E43D44" />
<rect x="26" y="26" width="2" height="2" fill="#DF3939" />
<rect x="28" y="26" width="2" height="2" fill="#E33956" />
<rect x="30" y="26" width="2" height="2" fill="#E13D44" />
<rect x="32" y="26" width="2" height="2" fill="#E33A4F" />
<rect x="34" y="26" width="2" height="2" fill="#CF472F" />
<rect x="36" y="26" width="2" height="2" fill="#FFDD75" />
<rect x="38" y="26" width="2" height="2" fill="#FFEDB0" />
<rect x="40" y="26" width="2" height="2" fill="#FFFCF1" />
<rect x="42" y="26" width="2" height="2" fill="#FBBE91" />
<rect x="44" y="26" width="2" height="2" fill="#FFA24C" />
<rect x="46" y="26" width="2" height="2" fill="#F47D17" />
<rect x="48" y="26" width="2" height="2" fill="#E57939" />
<rect x="50" y="26" width="2" height="2" fill="#101A19" />
<rect x="52" y="26" width="2" height="2" fill="#18151E" />
<rect x="12" y="28" width="2" height="2" fill="#161421" />
<rect x="14" y="28" width="2" height="2" fill="#161421" />
<rect x="16" y="28" width="2" height="2" fill="#FFA640" />
<rect x="18" y="28" width="2" height="2" fill="#FDAD32" />
<rect x="20" y="28" width="2" height="2" fill="#DE4233" />
<rect x="22" y="28" width="2" height="2" fill="#E53A4D" />
<rect x="24" y="28" width="2" height="2" fill="#FF6A6F" />
<rect x="26" y="28" width="2" height="2" fill="#FD6F6B" />
<rect x="28" y="28" width="2" height="2" fill="#FA6E71" />
<rect x="30" y="28" width="2" height="2" fill="#FF7377" />
<rect x="32" y="28" width="2" height="2" fill="#FE6B7B" />
<rect x="34" y="28" width="2" height="2" fill="#F87468" />
<rect x="36" y="28" width="2" height="2" fill="#E18651" />
<rect x="38" y="28" width="2" height="2" fill="#E2876C" />
<rect x="40" y="28" width="2" height="2" fill="#DD8382" />
<rect x="42" y="28" width="2" height="2" fill="#B75240" />
<rect x="44" y="28" width="2" height="2" fill="#9E320B" />
<rect x="46" y="28" width="2" height="2" fill="#E96C18" />
<rect x="48" y="28" width="2" height="2" fill="#E87A3B" />
<rect x="50" y="28" width="2" height="2" fill="#101A19" />
<rect x="52" y="28" width="2" height="2" fill="#18151E" />
<rect x="12" y="30" width="2" height="2" fill="#161421" />
<rect x="14" y="30" width="2" height="2" fill="#161421" />
<rect x="16" y="30" width="2" height="2" fill="#FFA640" />
<rect x="18" y="30" width="2" height="2" fill="#FFAC41" />
<rect x="20" y="30" width="2" height="2" fill="#DB4A2D" />
<rect x="22" y="30" width="2" height="2" fill="#DA3635" />
<rect x="24" y="30" width="2" height="2" fill="#FF746B" />
<rect x="26" y="30" width="2" height="2" fill="#F97569" />
<rect x="28" y="30" width="2" height="2" fill="#F37C68" />
<rect x="30" y="30" width="2" height="2" fill="#F37674" />
<rect x="32" y="30" width="2" height="2" fill="#FA7185" />
<rect x="34" y="30" width="2" height="2" fill="#F77883" />
<rect x="36" y="30" width="2" height="2" fill="#F67675" />
<rect x="38" y="30" width="2" height="2" fill="#F36F7A" />
<rect x="40" y="30" width="2" height="2" fill="#FB7282" />
<rect x="42" y="30" width="2" height="2" fill="#C33F4D" />
<rect x="44" y="30" width="2" height="2" fill="#9D2225" />
<rect x="46" y="30" width="2" height="2" fill="#FE7644" />
<rect x="48" y="30" width="2" height="2" fill="#EF7C43" />
<rect x="50" y="30" width="2" height="2" fill="#101A19" />
<rect x="52" y="30" width="2" height="2" fill="#18151E" />
<rect x="12" y="32" width="2" height="2" fill="#161421" />
<rect x="14" y="32" width="2" height="2" fill="#161421" />
<rect x="16" y="32" width="2" height="2" fill="#FFA640" />
<rect x="18" y="32" width="2" height="2" fill="#F8AD2D" />
<rect x="20" y="32" width="2" height="2" fill="#FCAA3A" />
<rect x="22" y="32" width="2" height="2" fill="#FFAF40" />
<rect x="24" y="32" width="2" height="2" fill="#FFAF39" />
<rect x="26" y="32" width="2" height="2" fill="#F8AE31" />
<rect x="28" y="32" width="2" height="2" fill="#FDE166" />
<rect x="30" y="32" width="2" height="2" fill="#FFD384" />
<rect x="32" y="32" width="2" height="2" fill="#D54733" />
<rect x="34" y="32" width="2" height="2" fill="#EA3D43" />
<rect x="36" y="32" width="2" height="2" fill="#E73C44" />
<rect x="38" y="32" width="2" height="2" fill="#E3374D" />
<rect x="40" y="32" width="2" height="2" fill="#E33B52" />
<rect x="42" y="32" width="2" height="2" fill="#BD2F3D" />
<rect x="44" y="32" width="2" height="2" fill="#9F232B" />
<rect x="46" y="32" width="2" height="2" fill="#DB3C41" />
<rect x="48" y="32" width="2" height="2" fill="#D2464F" />
<rect x="50" y="32" width="2" height="2" fill="#101A19" />
<rect x="52" y="32" width="2" height="2" fill="#18151E" />
<rect x="12" y="34" width="2" height="2" fill="#161421" />
<rect x="14" y="34" width="2" height="2" fill="#16141F" />
<rect x="16" y="34" width="2" height="2" fill="#FFA640" />
<rect x="18" y="34" width="2" height="2" fill="#EAAE56" />
<rect x="20" y="34" width="2" height="2" fill="#ECB251" />
<rect x="22" y="34" width="2" height="2" fill="#F0B551" />
<rect x="24" y="34" width="2" height="2" fill="#EAB54D" />
<rect x="26" y="34" width="2" height="2" fill="#E2B349" />
<rect x="28" y="34" width="2" height="2" fill="#E7E574" />
<rect x="30" y="34" width="2" height="2" fill="#FFD68A" />
<rect x="32" y="34" width="2" height="2" fill="#CD472E" />
<rect x="34" y="34" width="2" height="2" fill="#DF4138" />
<rect x="36" y="34" width="2" height="2" fill="#E23E3F" />
<rect x="38" y="34" width="2" height="2" fill="#DB4336" />
<rect x="40" y="34" width="2" height="2" fill="#E04540" />
<rect x="42" y="34" width="2" height="2" fill="#BA3428" />
<rect x="44" y="34" width="2" height="2" fill="#A8281F" />
<rect x="46" y="34" width="2" height="2" fill="#DA3948" />
<rect x="48" y="34" width="2" height="2" fill="#CF4457" />
<rect x="50" y="34" width="2" height="2" fill="#101A19" />
<rect x="52" y="34" width="2" height="2" fill="#18151E" />
<rect x="12" y="36" width="2" height="2" fill="#161421" />
<rect x="14" y="36" width="2" height="2" fill="#171324" />
<rect x="16" y="36" width="2" height="2" fill="#0D2443" />
<rect x="18" y="36" width="2" height="2" fill="#1A4570" />
<rect x="20" y="36" width="2" height="2" fill="#1A4570" />
<rect x="22" y="36" width="2" height="2" fill="#1A4570" />
<rect x="24" y="36" width="2" height="2" fill="#1A9AC1" />
<rect x="26" y="36" width="2" height="2" fill="#1A9AC1" />
<rect x="28" y="36" width="2" height="2" fill="#1A9AC1" />
<rect x="30" y="36" width="2" height="2" fill="#1D97AE" />
<rect x="32" y="36" width="2" height="2" fill="#F3AE63" />
<rect x="34" y="36" width="2" height="2" fill="#FFAA35" />
<rect x="36" y="36" width="2" height="2" fill="#FFA940" />
<rect x="38" y="36" width="2" height="2" fill="#FFA945" />
<rect x="40" y="36" width="2" height="2" fill="#FFA948" />
<rect x="42" y="36" width="2" height="2" fill="#F88A31" />
<rect x="44" y="36" width="2" height="2" fill="#F87235" />
<rect x="46" y="36" width="2" height="2" fill="#E8443A" />
<rect x="48" y="36" width="2" height="2" fill="#D5405D" />
<rect x="50" y="36" width="2" height="2" fill="#101A19" />
<rect x="52" y="36" width="2" height="2" fill="#18151E" />
<rect x="12" y="38" width="2" height="2" fill="#161421" />
<rect x="14" y="38" width="2" height="2" fill="#2A1200" />
<rect x="16" y="38" width="2" height="2" fill="#2A2833" />
<rect x="18" y="38" width="2" height="2" fill="#1A4570" />
<rect x="20" y="38" width="2" height="2" fill="#1A4570" />
<rect x="22" y="38" width="2" height="2" fill="#1A4570" />
<rect x="24" y="38" width="2" height="2" fill="#1A9AC1" />
<rect x="26" y="38" width="2" height="2" fill="#1A9AC1" />
<rect x="28" y="38" width="2" height="2" fill="#1A9AC1" />
<rect x="30" y="38" width="2" height="2" fill="#1D97AE" />
<rect x="32" y="38" width="2" height="2" fill="#CBC490" />
<rect x="34" y="38" width="2" height="2" fill="#D4B865" />
<rect x="36" y="38" width="2" height="2" fill="#CFBA6B" />
<rect x="38" y="38" width="2" height="2" fill="#D2B772" />
<rect x="40" y="38" width="2" height="2" fill="#D3BD72" />
<rect x="42" y="38" width="2" height="2" fill="#D3995A" />
<rect x="44" y="38" width="2" height="2" fill="#DB7E53" />
<rect x="46" y="38" width="2" height="2" fill="#D64556" />
<rect x="48" y="38" width="2" height="2" fill="#D64556" />
<rect x="50" y="38" width="2" height="2" fill="#101A19" />
<rect x="52" y="38" width="2" height="2" fill="#18151E" />
<rect x="10" y="40" width="2" height="2" fill="#17141D" />
<rect x="12" y="40" width="2" height="2" fill="#FFA640" />
<rect x="14" y="40" width="2" height="2" fill="#F5AB4C" />
<rect x="16" y="40" width="2" height="2" fill="#F38E34" />
<rect x="18" y="40" width="2" height="2" fill="#F6782B" />
<rect x="20" y="40" width="2" height="2" fill="#F77527" />
<rect x="22" y="40" width="2" height="2" fill="#F57627" />
<rect x="24" y="40" width="2" height="2" fill="#FFAC4C" />
<rect x="26" y="40" width="2" height="2" fill="#F3AA43" />
<rect x="28" y="40" width="2" height="2" fill="#EFE873" />
<rect x="30" y="40" width="2" height="2" fill="#C2F7C1" />
<rect x="32" y="40" width="2" height="2" fill="#1D97AE" />
<rect x="34" y="40" width="2" height="2" fill="#0397DF" />
<rect x="36" y="40" width="2" height="2" fill="#1A9AC1" />
<rect x="38" y="40" width="2" height="2" fill="#1A9AC1" />
<rect x="40" y="40" width="2" height="2" fill="#1A9AC1" />
<rect x="42" y="40" width="2" height="2" fill="#1A4570" />
<rect x="44" y="40" width="2" height="2" fill="#1A4570" />
<rect x="46" y="40" width="2" height="2" fill="#D64556" />
<rect x="48" y="40" width="2" height="2" fill="#D64556" />
<rect x="50" y="40" width="2" height="2" fill="#101A19" />
<rect x="52" y="40" width="2" height="2" fill="#18151E" />
<rect x="10" y="42" width="2" height="2" fill="#16122D" />
<rect x="12" y="42" width="2" height="2" fill="#FFA640" />
<rect x="14" y="42" width="2" height="2" fill="#FFA23E" />
<rect x="16" y="42" width="2" height="2" fill="#EC8D23" />
<rect x="18" y="42" width="2" height="2" fill="#E2821C" />
<rect x="20" y="42" width="2" height="2" fill="#E27E1C" />
<rect x="22" y="42" width="2" height="2" fill="#E1811D" />
<rect x="24" y="42" width="2" height="2" fill="#FFA238" />
<rect x="26" y="42" width="2" height="2" fill="#FFB03F" />
<rect x="28" y="42" width="2" height="2" fill="#FFE866" />
<rect x="30" y="42" width="2" height="2" fill="#CFE290" />
<rect x="32" y="42" width="2" height="2" fill="#1D97AE" />
<rect x="34" y="42" width="2" height="2" fill="#1A9AC1" />
<rect x="36" y="42" width="2" height="2" fill="#1A9AC1" />
<rect x="38" y="42" width="2" height="2" fill="#1A9AC1" />
<rect x="40" y="42" width="2" height="2" fill="#1A9AC1" />
<rect x="42" y="42" width="2" height="2" fill="#1A4570" />
<rect x="44" y="42" width="2" height="2" fill="#1A4570" />
<rect x="46" y="42" width="2" height="2" fill="#D64556" />
<rect x="48" y="42" width="2" height="2" fill="#D64556" />
<rect x="50" y="42" width="2" height="2" fill="#101A19" />
<rect x="52" y="42" width="2" height="2" fill="#18151E" />
<rect x="10" y="44" width="2" height="2" fill="#181526" />
<rect x="12" y="44" width="2" height="2" fill="#FFA640" />
<rect x="14" y="44" width="2" height="2" fill="#F57625" />
<rect x="16" y="44" width="2" height="2" fill="#F5B635" />
<rect x="18" y="44" width="2" height="2" fill="#FBE554" />
<rect x="20" y="44" width="2" height="2" fill="#FFEA62" />
<rect x="22" y="44" width="2" height="2" fill="#FFE566" />
<rect x="24" y="44" width="2" height="2" fill="#DC7F18" />
<rect x="26" y="44" width="2" height="2" fill="#FA7F22" />
<rect x="28" y="44" width="2" height="2" fill="#FDEA5D" />
<rect x="30" y="44" width="2" height="2" fill="#FAE361" />
<rect x="32" y="44" width="2" height="2" fill="#FCE75A" />
<rect x="34" y="44" width="2" height="2" fill="#FFE363" />
<rect x="36" y="44" width="2" height="2" fill="#FFE661" />
<rect x="38" y="44" width="2" height="2" fill="#EA9A2B" />
<rect x="40" y="44" width="2" height="2" fill="#F57419" />
<rect x="42" y="44" width="2" height="2" fill="#FC7823" />
<rect x="44" y="44" width="2" height="2" fill="#F9732A" />
<rect x="46" y="44" width="2" height="2" fill="#E23F30" />
<rect x="48" y="44" width="2" height="2" fill="#D64556" />
<rect x="50" y="44" width="2" height="2" fill="#101A19" />
<rect x="52" y="44" width="2" height="2" fill="#18151E" />
<rect x="10" y="46" width="2" height="2" fill="#171628" />
<rect x="12" y="46" width="2" height="2" fill="#FFA640" />
<rect x="14" y="46" width="2" height="2" fill="#F77227" />
<rect x="16" y="46" width="2" height="2" fill="#FCB340" />
<rect x="18" y="46" width="2" height="2" fill="#FEE85F" />
<rect x="20" y="46" width="2" height="2" fill="#FDE15C" />
<rect x="22" y="46" width="2" height="2" fill="#FFE061" />
<rect x="24" y="46" width="2" height="2" fill="#E38E21" />
<rect x="26" y="46" width="2" height="2" fill="#EA801C" />
<rect x="28" y="46" width="2" height="2" fill="#FFE664" />
<rect x="30" y="46" width="2" height="2" fill="#FFE15D" />
<rect x="32" y="46" width="2" height="2" fill="#FDE760" />
<rect x="34" y="46" width="2" height="2" fill="#F8E25B" />
<rect x="36" y="46" width="2" height="2" fill="#FFE065" />
<rect x="38" y="46" width="2" height="2" fill="#EFA333" />
<rect x="40" y="46" width="2" height="2" fill="#EB8114" />
<rect x="42" y="46" width="2" height="2" fill="#EA7F1D" />
<rect x="44" y="46" width="2" height="2" fill="#F17C1F" />
<rect x="46" y="46" width="2" height="2" fill="#DE4130" />
<rect x="48" y="46" width="2" height="2" fill="#D14248" />
<rect x="50" y="46" width="2" height="2" fill="#101A19" />
<rect x="52" y="46" width="2" height="2" fill="#1A141E" />
<rect x="10" y="48" width="2" height="2" fill="#1B1424" />
<rect x="12" y="48" width="2" height="2" fill="#FFA640" />
<rect x="14" y="48" width="2" height="2" fill="#F57421" />
<rect x="16" y="48" width="2" height="2" fill="#F5AE38" />
<rect x="18" y="48" width="2" height="2" fill="#FFE75C" />
<rect x="20" y="48" width="2" height="2" fill="#F9B53A" />
<rect x="22" y="48" width="2" height="2" fill="#FBAC36" />
<rect x="24" y="48" width="2" height="2" fill="#FFE461" />
<rect x="26" y="48" width="2" height="2" fill="#FFE561" />
<rect x="28" y="48" width="2" height="2" fill="#FFAF3A" />
<rect x="30" y="48" width="2" height="2" fill="#F4B83E" />
<rect x="32" y="48" width="2" height="2" fill="#FFE160" />
<rect x="34" y="48" width="2" height="2" fill="#FFDB5F" />
<rect x="36" y="48" width="2" height="2" fill="#F97A19" />
<rect x="38" y="48" width="2" height="2" fill="#FFCE5A" />
<rect x="40" y="48" width="2" height="2" fill="#FFE45F" />
<rect x="42" y="48" width="2" height="2" fill="#FFE567" />
<rect x="44" y="48" width="2" height="2" fill="#FFE265" />
<rect x="46" y="48" width="2" height="2" fill="#D44839" />
<rect x="48" y="48" width="2" height="2" fill="#D64552" />
<rect x="50" y="48" width="2" height="2" fill="#101A19" />
<rect x="52" y="48" width="2" height="2" fill="#181422" />
<rect x="10" y="50" width="2" height="2" fill="#17152B" />
<rect x="12" y="50" width="2" height="2" fill="#FFA640" />
<rect x="14" y="50" width="2" height="2" fill="#F97028" />
<rect x="16" y="50" width="2" height="2" fill="#F18E28" />
<rect x="18" y="50" width="2" height="2" fill="#F8AF3C" />
<rect x="20" y="50" width="2" height="2" fill="#F8992D" />
<rect x="22" y="50" width="2" height="2" fill="#F9972C" />
<rect x="24" y="50" width="2" height="2" fill="#FFDB5E" />
<rect x="26" y="50" width="2" height="2" fill="#FFE563" />
<rect x="28" y="50" width="2" height="2" fill="#FFC84A" />
<rect x="30" y="50" width="2" height="2" fill="#FFC54A" />
<rect x="32" y="50" width="2" height="2" fill="#F9B03D" />
<rect x="34" y="50" width="2" height="2" fill="#FDB644" />
<rect x="36" y="50" width="2" height="2" fill="#FFAE3E" />
<rect x="38" y="50" width="2" height="2" fill="#FFCF54" />
<rect x="40" y="50" width="2" height="2" fill="#FEE85E" />
<rect x="42" y="50" width="2" height="2" fill="#FFE663" />
<rect x="44" y="50" width="2" height="2" fill="#FFE65E" />
<rect x="46" y="50" width="2" height="2" fill="#D44638" />
<rect x="48" y="50" width="2" height="2" fill="#CF3F56" />
<rect x="50" y="50" width="2" height="2" fill="#101A19" />
<rect x="52" y="50" width="2" height="2" fill="#171522" />
<rect x="10" y="52" width="2" height="2" fill="#141420" />
<rect x="12" y="52" width="2" height="2" fill="#FFA640" />
<rect x="14" y="52" width="2" height="2" fill="#F6762D" />
<rect x="16" y="52" width="2" height="2" fill="#F6761D" />
<rect x="18" y="52" width="2" height="2" fill="#F7771C" />
<rect x="20" y="52" width="2" height="2" fill="#FA721A" />
<rect x="22" y="52" width="2" height="2" fill="#F9781C" />
<rect x="24" y="52" width="2" height="2" fill="#FFDF6A" />
<rect x="26" y="52" width="2" height="2" fill="#FDE868" />
<rect x="28" y="52" width="2" height="2" fill="#FBE659" />
<rect x="30" y="52" width="2" height="2" fill="#FFDC62" />
<rect x="32" y="52" width="2" height="2" fill="#ED7B18" />
<rect x="34" y="52" width="2" height="2" fill="#E6801B" />
<rect x="36" y="52" width="2" height="2" fill="#FFE361" />
<rect x="38" y="52" width="2" height="2" fill="#FFE661" />
<rect x="40" y="52" width="2" height="2" fill="#FAE65F" />
<rect x="42" y="52" width="2" height="2" fill="#FDE869" />
<rect x="44" y="52" width="2" height="2" fill="#FFE563" />
<rect x="46" y="52" width="2" height="2" fill="#DA4934" />
<rect x="48" y="52" width="2" height="2" fill="#D04451" />
<rect x="50" y="52" width="2" height="2" fill="#101A19" />
<rect x="52" y="52" width="2" height="2" fill="#19141A" />
<rect x="6" y="54" width="2" height="2" fill="#101A19" />
<rect x="8" y="54" width="2" height="2" fill="#221711" />
<rect x="10" y="54" width="2" height="2" fill="#7F3818" />
<rect x="12" y="54" width="2" height="2" fill="#BC6223" />
<rect x="14" y="54" width="2" height="2" fill="#F48826" />
<rect x="16" y="54" width="2" height="2" fill="#FA8325" />
<rect x="18" y="54" width="2" height="2" fill="#F5781E" />
<rect x="20" y="54" width="2" height="2" fill="#FB8D2C" />
<rect x="22" y="54" width="2" height="2" fill="#F28A27" />
<rect x="24" y="54" width="2" height="2" fill="#FFB246" />
<rect x="26" y="54" width="2" height="2" fill="#FFB646" />
<rect x="28" y="54" width="2" height="2" fill="#FFCE4D" />
<rect x="30" y="54" width="2" height="2" fill="#FFC14F" />
<rect x="32" y="54" width="2" height="2" fill="#F27A1B" />
<rect x="34" y="54" width="2" height="2" fill="#EE7C1C" />
<rect x="36" y="54" width="2" height="2" fill="#FFCB51" />
<rect x="38" y="54" width="2" height="2" fill="#FFC146" />
<rect x="40" y="54" width="2" height="2" fill="#FFBB4E" />
<rect x="42" y="54" width="2" height="2" fill="#FFA75C" />
<rect x="44" y="54" width="2" height="2" fill="#FD9A59" />
<rect x="46" y="54" width="2" height="2" fill="#F0623C" />
<rect x="48" y="54" width="2" height="2" fill="#E55636" />
<rect x="50" y="54" width="2" height="2" fill="#7E1816" />
<rect x="52" y="54" width="2" height="2" fill="#6E222E" />
<rect x="54" y="54" width="2" height="2" fill="#0C1615" />
<rect x="56" y="54" width="2" height="2" fill="#101A19" />
<rect x="6" y="56" width="2" height="2" fill="#171624" />
<rect x="8" y="56" width="2" height="2" fill="#101A19" />
<rect x="10" y="56" width="2" height="2" fill="#F07333" />
<rect x="12" y="56" width="2" height="2" fill="#F69433" />
<rect x="14" y="56" width="2" height="2" fill="#FBB033" />
<rect x="16" y="56" width="2" height="2" fill="#F9912E" />
<rect x="18" y="56" width="2" height="2" fill="#F97922" />
<rect x="20" y="56" width="2" height="2" fill="#FFA942" />
<rect x="22" y="56" width="2" height="2" fill="#FAAB42" />
<rect x="24" y="56" width="2" height="2" fill="#EF7A1B" />
<rect x="26" y="56" width="2" height="2" fill="#F87B1E" />
<rect x="28" y="56" width="2" height="2" fill="#FFB642" />
<rect x="30" y="56" width="2" height="2" fill="#FFAA42" />
<rect x="32" y="56" width="2" height="2" fill="#EC791C" />
<rect x="34" y="56" width="2" height="2" fill="#EA7B1F" />
<rect x="36" y="56" width="2" height="2" fill="#FFAA40" />
<rect x="38" y="56" width="2" height="2" fill="#F3922B" />
<rect x="40" y="56" width="2" height="2" fill="#FB7830" />
<rect x="42" y="56" width="2" height="2" fill="#E95839" />
<rect x="44" y="56" width="2" height="2" fill="#E04237" />
<rect x="46" y="56" width="2" height="2" fill="#F46B3F" />
<rect x="48" y="56" width="2" height="2" fill="#F87332" />
<rect x="50" y="56" width="2" height="2" fill="#DB3F30" />
<rect x="52" y="56" width="2" height="2" fill="#CD3A56" />
<rect x="54" y="56" width="2" height="2" fill="#1D121A" />
<rect x="56" y="56" width="2" height="2" fill="#101A19" />
<rect x="6" y="58" width="2" height="2" fill="#101916" />
<rect x="8" y="58" width="2" height="2" fill="#101A19" />
<rect x="10" y="58" width="2" height="2" fill="#F69433" />
<rect x="12" y="58" width="2" height="2" fill="#F69433" />
<rect x="14" y="58" width="2" height="2" fill="#F69433" />
<rect x="16" y="58" width="2" height="2" fill="#F69433" />
<rect x="18" y="58" width="2" height="2" fill="#F69433" />
<rect x="20" y="58" width="2" height="2" fill="#F69433" />
<rect x="22" y="58" width="2" height="2" fill="#F69433" />
<rect x="24" y="58" width="2" height="2" fill="#F69433" />
<rect x="26" y="58" width="2" height="2" fill="#F69433" />
<rect x="28" y="58" width="2" height="2" fill="#F69433" />
<rect x="30" y="58" width="2" height="2" fill="#F69433" />
<rect x="32" y="58" width="2" height="2" fill="#F69433" />
<rect x="34" y="58" width="2" height="2" fill="#F69433" />
<rect x="36" y="58" width="2" height="2" fill="#F69433" />
<rect x="38" y="58" width="2" height="2" fill="#F69433" />
<rect x="40" y="58" width="2" height="2" fill="#F69433" />
<rect x="42" y="58" width="2" height="2" fill="#F69433" />
<rect x="44" y="58" width="2" height="2" fill="#D04451" />
<rect x="46" y="58" width="2" height="2" fill="#D04451" />
<rect x="48" y="58" width="2" height="2" fill="#D04451" />
<rect x="50" y="58" width="2" height="2" fill="#D04451" />
<rect x="52" y="58" width="2" height="2" fill="#D04451" />
<rect x="54" y="58" width="2" height="2" fill="#1D0E13" />
<rect x="56" y="58" width="2" height="2" fill="#101A19" />
<rect x="6" y="60" width="2" height="2" fill="#161922" />
<rect x="8" y="60" width="2" height="2" fill="#101A19" />
<rect x="10" y="60" width="2" height="2" fill="#151328" />
<rect x="12" y="60" width="2" height="2" fill="#18142F" />
<rect x="14" y="60" width="2" height="2" fill="#171230" />
<rect x="16" y="60" width="2" height="2" fill="#16142A" />
<rect x="18" y="60" width="2" height="2" fill="#17152A" />
<rect x="20" y="60" width="2" height="2" fill="#191128" />
<rect x="22" y="60" width="2" height="2" fill="#191128" />
<rect x="24" y="60" width="2" height="2" fill="#19162B" />
<rect x="26" y="60" width="2" height="2" fill="#18162B" />
<rect x="28" y="60" width="2" height="2" fill="#181025" />
<rect x="30" y="60" width="2" height="2" fill="#151225" />
<rect x="32" y="60" width="2" height="2" fill="#161527" />
<rect x="34" y="60" width="2" height="2" fill="#161527" />
<rect x="36" y="60" width="2" height="2" fill="#141124" />
<rect x="38" y="60" width="2" height="2" fill="#191126" />
<rect x="40" y="60" width="2" height="2" fill="#191129" />
<rect x="42" y="60" width="2" height="2" fill="#1A122A" />
<rect x="44" y="60" width="2" height="2" fill="#171229" />
<rect x="46" y="60" width="2" height="2" fill="#170F27" />
<rect x="48" y="60" width="2" height="2" fill="#151027" />
<rect x="50" y="60" width="2" height="2" fill="#171429" />
<rect x="52" y="60" width="2" height="2" fill="#171321" />
<rect x="54" y="60" width="2" height="2" fill="#161421" />
<rect x="56" y="60" width="2" height="2" fill="#101A19" />
</svg>