<?xml version="1.0" encoding="UTF-8" ?>
<svg version="1.1" width="64" height="64" xmlns="http://www.w3.org/2000/svg" shape-rendering="crispEdges">
<rect x="16" y="4" width="2" height="2" fill="#102015" />
<rect x="18" y="4" width="2" height="2" fill="#121C14" />
<rect x="20" y="4" width="2" height="2" fill="#101918" />
<rect x="22" y="4" width="2" height="2" fill="#10181A" />
<rect x="24" y="4" width="2" height="2" fill="#10181A" />
<rect x="26" y="4" width="2" height="2" fill="#10181A" />
<rect x="28" y="4" width="2" height="2" fill="#10181A" />
<rect x="30" y="4" width="2" height="2" fill="#10181A" />
<rect x="32" y="4" width="2" height="2" fill="#10181A" />
<rect x="34" y="4" width="2" height="2" fill="#10181A" />
<rect x="36" y="4" width="2" height="2" fill="#12171B" />
<rect x="38" y="4" width="2" height="2" fill="#15151F" />
<rect x="40" y="4" width="2" height="2" fill="#12171D" />
<rect x="42" y="4" width="2" height="2" fill="#10181B" />
<rect x="44" y="4" width="2" height="2" fill="#0E1A18" />
<rect x="46" y="4" width="2" height="2" fill="#081C11" />
<rect x="48" y="4" width="2" height="2" fill="#0D2815" />
<rect x="16" y="6" width="2" height="2" fill="#0B1612" />
<rect x="18" y="6" width="2" height="2" fill="#1B1B27" />
<rect x="20" y="6" width="2" height="2" fill="#161523" />
<rect x="22" y="6" width="2" height="2" fill="#1C1525" />
<rect x="24" y="6" width="2" height="2" fill="#181121" />
<rect x="26" y="6" width="2" height="2" fill="#1F1627" />
<rect x="28" y="6" width="2" height="2" fill="#171322" />
<rect x="30" y="6" width="2" height="2" fill="#151321" />
<rect x="32" y="6" width="2" height="2" fill="#151321" />
<rect x="34" y="6" width="2" height="2" fill="#1A1826" />
<rect x="36" y="6" width="2" height="2" fill="#171523" />
<rect x="38" y="6" width="2" height="2" fill="#191523" />
<rect x="40" y="6" width="2" height="2" fill="#191524" />
<rect x="42" y="6" width="2" height="2" fill="#131220" />
<rect x="44" y="6" width="2" height="2" fill="#161523" />
<rect x="46" y="6" width="2" height="2" fill="#171C22" />
<rect x="48" y="6" width="2" height="2" fill="#14211A" />
<rect x="16" y="8" width="2" height="2" fill="#1F212D" />
<rect x="18" y="8" width="2" height="2" fill="#17132E" />
<rect x="20" y="8" width="2" height="2" fill="#1E1F34" />
<rect x="22" y="8" width="2" height="2" fill="#17152A" />
<rect x="24" y="8" width="2" height="2" fill="#171429" />
<rect x="26" y="8" width="2" height="2" fill="#1B162C" />
<rect x="28" y="8" width="2" height="2" fill="#161328" />
<rect x="30" y="8" width="2" height="2" fill="#16172B" />
<rect x="32" y="8" width="2" height="2" fill="#111226" />
<rect x="34" y="8" width="2" height="2" fill="#15182B" />
<rect x="36" y="8" width="2" height="2" fill="#15182B" />
<rect x="38" y="8" width="2" height="2" fill="#1A172C" />
<rect x="40" y="8" width="2" height="2" fill="#151329" />
<rect x="42" y="8" width="2" height="2" fill="#101126" />
<rect x="44" y="8" width="2" height="2" fill="#19172D" />
<rect x="46" y="8" width="2" height="2" fill="#131426" />
<rect x="48" y="8" width="2" height="2" fill="#1E212A" />
<rect x="10" y="10" width="2" height="2" fill="#0D2116" />
<rect x="12" y="10" width="2" height="2" fill="#0F121B" />
<rect x="14" y="10" width="2" height="2" fill="#1F2130" />
<rect x="16" y="10" width="2" height="2" fill="#8994AA" />
<rect x="18" y="10" width="2" height="2" fill="#909FBE" />
<rect x="20" y="10" width="2" height="2" fill="#909FBE" />
<rect x="22" y="10" width="2" height="2" fill="#5C6783" />
<rect x="24" y="10" width="2" height="2" fill="#606986" />
<rect x="26" y="10" width="2" height="2" fill="#616885" />
<rect x="28" y="10" width="2" height="2" fill="#5F6683" />
<rect x="30" y="10" width="2" height="2" fill="#58617E" />
<rect x="32" y="10" width="2" height="2" fill="#404968" />
<rect x="34" y="10" width="2" height="2" fill="#3D4363" />
<rect x="36" y="10" width="2" height="2" fill="#3C4063" />
<rect x="38" y="10" width="2" height="2" fill="#3E466A" />
<rect x="40" y="10" width="2" height="2" fill="#3D4667" />
<rect x="42" y="10" width="2" height="2" fill="#404968" />
<rect x="44" y="10" width="2" height="2" fill="#56657C" />
<rect x="46" y="10" width="2" height="2" fill="#5E6F81" />
<rect x="48" y="10" width="2" height="2" fill="#2F3243" />
<rect x="50" y="10" width="2" height="2" fill="#10121F" />
<rect x="52" y="10" width="2" height="2" fill="#141823" />
<rect x="10" y="12" width="2" height="2" fill="#111B1A" />
<rect x="12" y="12" width="2" height="2" fill="#1F172C" />
<rect x="14" y="12" width="2" height="2" fill="#14152A" />
<rect x="16" y="12" width="2" height="2" fill="#979DB3" />
<rect x="18" y="12" width="2" height="2" fill="#919DB5" />
<rect x="20" y="12" width="2" height="2" fill="#909FBE" />
<rect x="22" y="12" width="2" height="2" fill="#54657F" />
<rect x="24" y="12" width="2" height="2" fill="#5A6E87" />
<rect x="26" y="12" width="2" height="2" fill="#576882" />
<rect x="28" y="12" width="2" height="2" fill="#596782" />
<rect x="30" y="12" width="2" height="2" fill="#5F6A88" />
<rect x="32" y="12" width="2" height="2" fill="#3B4868" />
<rect x="34" y="12" width="2" height="2" fill="#374262" />
<rect x="36" y="12" width="2" height="2" fill="#394165" />
<rect x="38" y="12" width="2" height="2" fill="#3C486E" />
<rect x="40" y="12" width="2" height="2" fill="#3A4266" />
<rect x="42" y="12" width="2" height="2" fill="#3E4768" />
<rect x="44" y="12" width="2" height="2" fill="#5C6C85" />
<rect x="46" y="12" width="2" height="2" fill="#55667A" />
<rect x="48" y="12" width="2" height="2" fill="#323348" />
<rect x="50" y="12" width="2" height="2" fill="#1A1229" />
<rect x="52" y="12" width="2" height="2" fill="#170F26" />
<rect x="10" y="14" width="2" height="2" fill="#0F1918" />
<rect x="12" y="14" width="2" height="2" fill="#171322" />
<rect x="14" y="14" width="2" height="2" fill="#1D1223" />
<rect x="16" y="14" width="2" height="2" fill="#B68B9E" />
<rect x="18" y="14" width="2" height="2" fill="#BD8A9B" />
<rect x="20" y="14" width="2" height="2" fill="#A67080" />
<rect x="22" y="14" width="2" height="2" fill="#996977" />
<rect x="24" y="14" width="2" height="2" fill="#946472" />
<rect x="26" y="14" width="2" height="2" fill="#A36C7F" />
<rect x="28" y="14" width="2" height="2" fill="#98546D" />
<rect x="30" y="14" width="2" height="2" fill="#944F6B" />
<rect x="32" y="14" width="2" height="2" fill="#6D334C" />
<rect x="34" y="14" width="2" height="2" fill="#6A364D" />
<rect x="36" y="14" width="2" height="2" fill="#66314B" />
<rect x="38" y="14" width="2" height="2" fill="#64324B" />
<rect x="40" y="14" width="2" height="2" fill="#643756" />
<rect x="42" y="14" width="2" height="2" fill="#603B5C" />
<rect x="44" y="14" width="2" height="2" fill="#6E5A7F" />
<rect x="46" y="14" width="2" height="2" fill="#625478" />
<rect x="48" y="14" width="2" height="2" fill="#383152" />
<rect x="50" y="14" width="2" height="2" fill="#1A162D" />
<rect x="52" y="14" width="2" height="2" fill="#191224" />
<rect x="10" y="16" width="2" height="2" fill="#101916" />
<rect x="12" y="16" width="2" height="2" fill="#16141F" />
<rect x="14" y="16" width="2" height="2" fill="#250F1B" />
<rect x="16" y="16" width="2" height="2" fill="#D67E8C" />
<rect x="18" y="16" width="2" height="2" fill="#E87980" />
<rect x="20" y="16" width="2" height="2" fill="#F57574" />
<rect x="22" y="16" width="2" height="2" fill="#F57574" />
<rect x="24" y="16" width="2" height="2" fill="#F57574" />
<rect x="26" y="16" width="2" height="2" fill="#F57574" />
<rect x="28" y="16" width="2" height="2" fill="#D94251" />
<rect x="30" y="16" width="2" height="2" fill="#D53E4F" />
<rect x="32" y="16" width="2" height="2" fill="#A42530" />
<rect x="34" y="16" width="2" height="2" fill="#9C2D34" />
<rect x="36" y="16" width="2" height="2" fill="#992C31" />
<rect x="38" y="16" width="2" height="2" fill="#962A2A" />
<rect x="40" y="16" width="2" height="2" fill="#91273D" />
<rect x="42" y="16" width="2" height="2" fill="#84294A" />
<rect x="44" y="16" width="2" height="2" fill="#743B68" />
<rect x="46" y="16" width="2" height="2" fill="#663B71" />
<rect x="48" y="16" width="2" height="2" fill="#37214F" />
<rect x="50" y="16" width="2" height="2" fill="#19102B" />
<rect x="52" y="16" width="2" height="2" fill="#181520" />
<rect x="10" y="18" width="2" height="2" fill="#101918" />
<rect x="12" y="18" width="2" height="2" fill="#161422" />
<rect x="14" y="18" width="2" height="2" fill="#260F19" />
<rect x="16" y="18" width="2" height="2" fill="#E07A85" />
<rect x="18" y="18" width="2" height="2" fill="#F57574" />
<rect x="20" y="18" width="2" height="2" fill="#F97477" />
<rect x="22" y="18" width="2" height="2" fill="#F57574" />
<rect x="24" y="18" width="2" height="2" fill="#F57574" />
<rect x="26" y="18" width="2" height="2" fill="#F57574" />
<rect x="28" y="18" width="2" height="2" fill="#DC3F50" />
<rect x="30" y="18" width="2" height="2" fill="#D93D52" />
<rect x="32" y="18" width="2" height="2" fill="#A5212F" />
<rect x="34" y="18" width="2" height="2" fill="#9D2733" />
<rect x="36" y="18" width="2" height="2" fill="#9C2632" />
<rect x="38" y="18" width="2" height="2" fill="#9E2A33" />
<rect x="40" y="18" width="2" height="2" fill="#972C40" />
<rect x="42" y="18" width="2" height="2" fill="#8E2E49" />
<rect x="44" y="18" width="2" height="2" fill="#773156" />
<rect x="46" y="18" width="2" height="2" fill="#6E3965" />
<rect x="48" y="18" width="2" height="2" fill="#372444" />
<rect x="50" y="18" width="2" height="2" fill="#161328" />
<rect x="52" y="18" width="2" height="2" fill="#141622" />
<rect x="10" y="20" width="2" height="2" fill="#0E191B" />
<rect x="12" y="20" width="2" height="2" fill="#151426" />
<rect x="14" y="20" width="2" height="2" fill="#260E1E" />
<rect x="16" y="20" width="2" height="2" fill="#E27987" />
<rect x="18" y="20" width="2" height="2" fill="#F97374" />
<rect x="20" y="20" width="2" height="2" fill="#FFF6F8" />
<rect x="22" y="20" width="2" height="2" fill="#FFF6F8" />
<rect x="24" y="20" width="2" height="2" fill="#FFF6F8" />
<rect x="26" y="20" width="2" height="2" fill="#FFF6F8" />
<rect x="28" y="20" width="2" height="2" fill="#E4BEC9" />
<rect x="30" y="20" width="2" height="2" fill="#DDBBC9" />
<rect x="32" y="20" width="2" height="2" fill="#A797A1" />
<rect x="34" y="20" width="2" height="2" fill="#A298A3" />
<rect x="36" y="20" width="2" height="2" fill="#A593A3" />
<rect x="38" y="20" width="2" height="2" fill="#9F8C9F" />
<rect x="40" y="20" width="2" height="2" fill="#A8909E" />
<rect x="42" y="20" width="2" height="2" fill="#A97E8F" />
<rect x="44" y="20" width="2" height="2" fill="#8D304B" />
<rect x="46" y="20" width="2" height="2" fill="#952C4B" />
<rect x="48" y="20" width="2" height="2" fill="#4B1F30" />
<rect x="50" y="20" width="2" height="2" fill="#181520" />
<rect x="52" y="20" width="2" height="2" fill="#141728" />
<rect x="10" y="22" width="2" height="2" fill="#131718" />
<rect x="12" y="22" width="2" height="2" fill="#1C1326" />
<rect x="14" y="22" width="2" height="2" fill="#270D18" />
<rect x="16" y="22" width="2" height="2" fill="#E17B88" />
<rect x="18" y="22" width="2" height="2" fill="#F6737B" />
<rect x="20" y="22" width="2" height="2" fill="#FFF6F8" />
<rect x="22" y="22" width="2" height="2" fill="#FFF7F8" />
<rect x="24" y="22" width="2" height="2" fill="#FFF6F8" />
<rect x="26" y="22" width="2" height="2" fill="#FFF6F8" />
<rect x="28" y="22" width="2" height="2" fill="#CAC6D4" />
<rect x="30" y="22" width="2" height="2" fill="#C3C7D3" />
<rect x="32" y="22" width="2" height="2" fill="#959DB0" />
<rect x="34" y="22" width="2" height="2" fill="#8F9AB6" />
<rect x="36" y="22" width="2" height="2" fill="#9096B8" />
<rect x="38" y="22" width="2" height="2" fill="#9693B0" />
<rect x="40" y="22" width="2" height="2" fill="#A293AA" />
<rect x="42" y="22" width="2" height="2" fill="#B18BA0" />
<rect x="44" y="22" width="2" height="2" fill="#95283B" />
<rect x="46" y="22" width="2" height="2" fill="#9E2534" />
<rect x="48" y="22" width="2" height="2" fill="#4F2229" />
<rect x="50" y="22" width="2" height="2" fill="#1B1322" />
<rect x="52" y="22" width="2" height="2" fill="#161328" />
<rect x="10" y="24" width="2" height="2" fill="#10181A" />
<rect x="12" y="24" width="2" height="2" fill="#1B1426" />
<rect x="14" y="24" width="2" height="2" fill="#250E18" />
<rect x="16" y="24" width="2" height="2" fill="#E37B86" />
<rect x="18" y="24" width="2" height="2" fill="#F57479" />
<rect x="20" y="24" width="2" height="2" fill="#DC8981" />
<rect x="22" y="24" width="2" height="2" fill="#DC8981" />
<rect x="24" y="24" width="2" height="2" fill="#DC8981" />
<rect x="26" y="24" width="2" height="2" fill="#DC8981" />
<rect x="28" y="24" width="2" height="2" fill="#9E6295" />
<rect x="30" y="24" width="2" height="2" fill="#995F9A" />
<rect x="32" y="24" width="2" height="2" fill="#78336A" />
<rect x="34" y="24" width="2" height="2" fill="#594068" />
<rect x="36" y="24" width="2" height="2" fill="#594068" />
<rect x="38" y="24" width="2" height="2" fill="#753545" />
<rect x="40" y="24" width="2" height="2" fill="#7F3448" />
<rect x="42" y="24" width="2" height="2" fill="#8E3B4B" />
<rect x="44" y="24" width="2" height="2" fill="#98242F" />
<rect x="46" y="24" width="2" height="2" fill="#9E2534" />
<rect x="48" y="24" width="2" height="2" fill="#502129" />
<rect x="50" y="24" width="2" height="2" fill="#1D1220" />
<rect x="52" y="24" width="2" height="2" fill="#171324" />
<rect x="10" y="26" width="2" height="2" fill="#10181B" />
<rect x="12" y="26" width="2" height="2" fill="#181528" />
<rect x="14" y="26" width="2" height="2" fill="#240F18" />
<rect x="16" y="26" width="2" height="2" fill="#E37B86" />
<rect x="18" y="26" width="2" height="2" fill="#F27579" />
<rect x="20" y="26" width="2" height="2" fill="#F0736F" />
<rect x="22" y="26" width="2" height="2" fill="#F2766C" />
<rect x="24" y="26" width="2" height="2" fill="#F77A74" />
<rect x="26" y="26" width="2" height="2" fill="#F27579" />
<rect x="28" y="26" width="2" height="2" fill="#B14984" />
<rect x="30" y="26" width="2" height="2" fill="#B54F99" />
<rect x="32" y="26" width="2" height="2" fill="#78336A" />
<rect x="34" y="26" width="2" height="2" fill="#7F3448" />
<rect x="36" y="26" width="2" height="2" fill="#7F3448" />
<rect x="38" y="26" width="2" height="2" fill="#9E2534" />
<rect x="40" y="26" width="2" height="2" fill="#9E2534" />
<rect x="42" y="26" width="2" height="2" fill="#9E2534" />
<rect x="44" y="26" width="2" height="2" fill="#9E2534" />
<rect x="46" y="26" width="2" height="2" fill="#9E2534" />
<rect x="48" y="26" width="2" height="2" fill="#50212B" />
<rect x="50" y="26" width="2" height="2" fill="#1D1222" />
<rect x="52" y="26" width="2" height="2" fill="#161324" />
<rect x="10" y="28" width="2" height="2" fill="#10171D" />
<rect x="12" y="28" width="2" height="2" fill="#181528" />
<rect x="14" y="28" width="2" height="2" fill="#230F18" />
<rect x="16" y="28" width="2" height="2" fill="#E37A88" />
<rect x="18" y="28" width="2" height="2" fill="#F27579" />
<rect x="20" y="28" width="2" height="2" fill="#F27579" />
<rect x="22" y="28" width="2" height="2" fill="#F27579" />
<rect x="24" y="28" width="2" height="2" fill="#F27579" />
<rect x="26" y="28" width="2" height="2" fill="#F27579" />
<rect x="28" y="28" width="2" height="2" fill="#C2555B" />
<rect x="30" y="28" width="2" height="2" fill="#BB5260" />
<rect x="32" y="28" width="2" height="2" fill="#803452" />
<rect x="34" y="28" width="2" height="2" fill="#803452" />
<rect x="36" y="28" width="2" height="2" fill="#823151" />
<rect x="38" y="28" width="2" height="2" fill="#9E2534" />
<rect x="40" y="28" width="2" height="2" fill="#9E2534" />
<rect x="42" y="28" width="2" height="2" fill="#9E2534" />
<rect x="44" y="28" width="2" height="2" fill="#9E2534" />
<rect x="46" y="28" width="2" height="2" fill="#9E2534" />
<rect x="48" y="28" width="2" height="2" fill="#50212B" />
<rect x="50" y="28" width="2" height="2" fill="#1A1323" />
<rect x="52" y="28" width="2" height="2" fill="#161326" />
<rect x="10" y="30" width="2" height="2" fill="#10171D" />
<rect x="12" y="30" width="2" height="2" fill="#171429" />
<rect x="14" y="30" width="2" height="2" fill="#27111E" />
<rect x="16" y="30" width="2" height="2" fill="#E77E8F" />
<rect x="18" y="30" width="2" height="2" fill="#F27579" />
<rect x="20" y="30" width="2" height="2" fill="#DC6A8C" />
<rect x="22" y="30" width="2" height="2" fill="#B44E7D" />
<rect x="24" y="30" width="2" height="2" fill="#B44E7D" />
<rect x="26" y="30" width="2" height="2" fill="#C95A60" />
<rect x="28" y="30" width="2" height="2" fill="#F2703C" />
<rect x="30" y="30" width="2" height="2" fill="#FC753B" />
<rect x="32" y="30" width="2" height="2" fill="#DB3F32" />
<rect x="34" y="30" width="2" height="2" fill="#E13D48" />
<rect x="36" y="30" width="2" height="2" fill="#CE4453" />
<rect x="38" y="30" width="2" height="2" fill="#73355A" />
<rect x="40" y="30" width="2" height="2" fill="#733657" />
<rect x="42" y="30" width="2" height="2" fill="#7E3250" />
<rect x="44" y="30" width="2" height="2" fill="#9E2534" />
<rect x="46" y="30" width="2" height="2" fill="#9E2534" />
<rect x="48" y="30" width="2" height="2" fill="#50212B" />
<rect x="50" y="30" width="2" height="2" fill="#1C1421" />
<rect x="52" y="30" width="2" height="2" fill="#191526" />
<rect x="10" y="32" width="2" height="2" fill="#0E191D" />
<rect x="12" y="32" width="2" height="2" fill="#151027" />
<rect x="14" y="32" width="2" height="2" fill="#290E21" />
<rect x="16" y="32" width="2" height="2" fill="#E28798" />
<rect x="18" y="32" width="2" height="2" fill="#F27579" />
<rect x="20" y="32" width="2" height="2" fill="#D76E8C" />
<rect x="22" y="32" width="2" height="2" fill="#B44E7D" />
<rect x="24" y="32" width="2" height="2" fill="#B44E7D" />
<rect x="26" y="32" width="2" height="2" fill="#BE605E" />
<rect x="28" y="32" width="2" height="2" fill="#F07F3B" />
<rect x="30" y="32" width="2" height="2" fill="#EE7D31" />
<rect x="32" y="32" width="2" height="2" fill="#D14432" />
<rect x="34" y="32" width="2" height="2" fill="#D94247" />
<rect x="36" y="32" width="2" height="2" fill="#C84B53" />
<rect x="38" y="32" width="2" height="2" fill="#693969" />
<rect x="40" y="32" width="2" height="2" fill="#663C64" />
<rect x="42" y="32" width="2" height="2" fill="#73375B" />
<rect x="44" y="32" width="2" height="2" fill="#9E2534" />
<rect x="46" y="32" width="2" height="2" fill="#9E2534" />
<rect x="48" y="32" width="2" height="2" fill="#50212B" />
<rect x="50" y="32" width="2" height="2" fill="#1F1724" />
<rect x="52" y="32" width="2" height="2" fill="#150F1D" />
<rect x="10" y="34" width="2" height="2" fill="#0E191D" />
<rect x="12" y="34" width="2" height="2" fill="#19102B" />
<rect x="14" y="34" width="2" height="2" fill="#251427" />
<rect x="16" y="34" width="2" height="2" fill="#FFFDFF" />
<rect x="18" y="34" width="2" height="2" fill="#FFFDFF" />
<rect x="20" y="34" width="2" height="2" fill="#FFFDFF" />
<rect x="22" y="34" width="2" height="2" fill="#FFFDFF" />
<rect x="24" y="34" width="2" height="2" fill="#FFFDFF" />
<rect x="26" y="34" width="2" height="2" fill="#FFFDFF" />
<rect x="28" y="34" width="2" height="2" fill="#BBCCD4" />
<rect x="30" y="34" width="2" height="2" fill="#BBCCD4" />
<rect x="32" y="34" width="2" height="2" fill="#B77785" />
<rect x="34" y="34" width="2" height="2" fill="#BC768E" />
<rect x="36" y="34" width="2" height="2" fill="#B4798D" />
<rect x="38" y="34" width="2" height="2" fill="#957FA6" />
<rect x="40" y="34" width="2" height="2" fill="#957FA6" />
<rect x="42" y="34" width="2" height="2" fill="#997EA1" />
<rect x="44" y="34" width="2" height="2" fill="#A57B8F" />
<rect x="46" y="34" width="2" height="2" fill="#A27280" />
<rect x="48" y="34" width="2" height="2" fill="#4E3E4B" />
<rect x="50" y="34" width="2" height="2" fill="#1B1728" />
<rect x="52" y="34" width="2" height="2" fill="#150E1E" />
<rect x="10" y="36" width="2" height="2" fill="#10181B" />
<rect x="12" y="36" width="2" height="2" fill="#1C1630" />
<rect x="14" y="36" width="2" height="2" fill="#161422" />
<rect x="16" y="36" width="2" height="2" fill="#FFFDFF" />
<rect x="18" y="36" width="2" height="2" fill="#FFFDFF" />
<rect x="20" y="36" width="2" height="2" fill="#FFFDFF" />
<rect x="22" y="36" width="2" height="2" fill="#FFFDFF" />
<rect x="24" y="36" width="2" height="2" fill="#FFFDFF" />
<rect x="26" y="36" width="2" height="2" fill="#ECF9FF" />
<rect x="28" y="36" width="2" height="2" fill="#BBCCD4" />
<rect x="30" y="36" width="2" height="2" fill="#BCCBDE" />
<rect x="32" y="36" width="2" height="2" fill="#899CBA" />
<rect x="34" y="36" width="2" height="2" fill="#899AB6" />
<rect x="36" y="36" width="2" height="2" fill="#899AB6" />
<rect x="38" y="36" width="2" height="2" fill="#899AB6" />
<rect x="40" y="36" width="2" height="2" fill="#8B99B6" />
<rect x="42" y="36" width="2" height="2" fill="#8A9AB4" />
<rect x="44" y="36" width="2" height="2" fill="#899AB6" />
<rect x="46" y="36" width="2" height="2" fill="#899AB6" />
<rect x="48" y="36" width="2" height="2" fill="#414D5D" />
<rect x="50" y="36" width="2" height="2" fill="#16142A" />
<rect x="52" y="36" width="2" height="2" fill="#151122" />
<rect x="10" y="38" width="2" height="2" fill="#101916" />
<rect x="12" y="38" width="2" height="2" fill="#19142A" />
<rect x="14" y="38" width="2" height="2" fill="#181425" />
<rect x="16" y="38" width="2" height="2" fill="#FFFDFF" />
<rect x="18" y="38" width="2" height="2" fill="#FFFFFF" />
<rect x="20" y="38" width="2" height="2" fill="#FFFEFF" />
<rect x="22" y="38" width="2" height="2" fill="#FCFEFF" />
<rect x="24" y="38" width="2" height="2" fill="#FFFDFF" />
<rect x="26" y="38" width="2" height="2" fill="#F0F6FF" />
<rect x="28" y="38" width="2" height="2" fill="#BFCFDE" />
<rect x="30" y="38" width="2" height="2" fill="#BDCEE0" />
<rect x="32" y="38" width="2" height="2" fill="#8B9AB1" />
<rect x="34" y="38" width="2" height="2" fill="#8A9AB3" />
<rect x="36" y="38" width="2" height="2" fill="#8F9BB5" />
<rect x="38" y="38" width="2" height="2" fill="#8B9AB1" />
<rect x="40" y="38" width="2" height="2" fill="#899AB6" />
<rect x="42" y="38" width="2" height="2" fill="#899AB6" />
<rect x="44" y="38" width="2" height="2" fill="#899AB6" />
<rect x="46" y="38" width="2" height="2" fill="#899AB6" />
<rect x="48" y="38" width="2" height="2" fill="#42475D" />
<rect x="50" y="38" width="2" height="2" fill="#181528" />
<rect x="52" y="38" width="2" height="2" fill="#171522" />
<rect x="10" y="40" width="2" height="2" fill="#0E191B" />
<rect x="12" y="40" width="2" height="2" fill="#19102B" />
<rect x="14" y="40" width="2" height="2" fill="#191126" />
<rect x="16" y="40" width="2" height="2" fill="#FFFDFF" />
<rect x="18" y="40" width="2" height="2" fill="#FFFDFF" />
<rect x="20" y="40" width="2" height="2" fill="#FFFDFF" />
<rect x="22" y="40" width="2" height="2" fill="#84909C" />
<rect x="24" y="40" width="2" height="2" fill="#8E9CA9" />
<rect x="26" y="40" width="2" height="2" fill="#8D98AA" />
<rect x="28" y="40" width="2" height="2" fill="#8FA0B2" />
<rect x="30" y="40" width="2" height="2" fill="#8B9DB5" />
<rect x="32" y="40" width="2" height="2" fill="#5A6883" />
<rect x="34" y="40" width="2" height="2" fill="#596887" />
<rect x="36" y="40" width="2" height="2" fill="#5C6989" />
<rect x="38" y="40" width="2" height="2" fill="#606B87" />
<rect x="40" y="40" width="2" height="2" fill="#586784" />
<rect x="42" y="40" width="2" height="2" fill="#5C6B88" />
<rect x="44" y="40" width="2" height="2" fill="#899AB6" />
<rect x="46" y="40" width="2" height="2" fill="#899AB6" />
<rect x="48" y="40" width="2" height="2" fill="#4A4764" />
<rect x="50" y="40" width="2" height="2" fill="#19162B" />
<rect x="52" y="40" width="2" height="2" fill="#191524" />
<rect x="10" y="42" width="2" height="2" fill="#0E191D" />
<rect x="12" y="42" width="2" height="2" fill="#120E25" />
<rect x="14" y="42" width="2" height="2" fill="#1A1A26" />
<rect x="16" y="42" width="2" height="2" fill="#FFEEEF" />
<rect x="18" y="42" width="2" height="2" fill="#FFF3EA" />
<rect x="20" y="42" width="2" height="2" fill="#DECCDA" />
<rect x="22" y="42" width="2" height="2" fill="#919EAE" />
<rect x="24" y="42" width="2" height="2" fill="#8BA1AE" />
<rect x="26" y="42" width="2" height="2" fill="#8B9EAF" />
<rect x="28" y="42" width="2" height="2" fill="#94A3BA" />
<rect x="30" y="42" width="2" height="2" fill="#8B9BB5" />
<rect x="32" y="42" width="2" height="2" fill="#5C6787" />
<rect x="34" y="42" width="2" height="2" fill="#5A6789" />
<rect x="36" y="42" width="2" height="2" fill="#5B6A8B" />
<rect x="38" y="42" width="2" height="2" fill="#566584" />
<rect x="40" y="42" width="2" height="2" fill="#606C86" />
<rect x="42" y="42" width="2" height="2" fill="#686E86" />
<rect x="44" y="42" width="2" height="2" fill="#9A8CA3" />
<rect x="46" y="42" width="2" height="2" fill="#9C879A" />
<rect x="48" y="42" width="2" height="2" fill="#4E4153" />
<rect x="50" y="42" width="2" height="2" fill="#1B1728" />
<rect x="52" y="42" width="2" height="2" fill="#191428" />
<rect x="10" y="44" width="2" height="2" fill="#12171B" />
<rect x="12" y="44" width="2" height="2" fill="#191224" />
<rect x="14" y="44" width="2" height="2" fill="#230E17" />
<rect x="16" y="44" width="2" height="2" fill="#D34B61" />
<rect x="18" y="44" width="2" height="2" fill="#D34B61" />
<rect x="20" y="44" width="2" height="2" fill="#D34B61" />
<rect x="22" y="44" width="2" height="2" fill="#CAC9D9" />
<rect x="24" y="44" width="2" height="2" fill="#BFCDD8" />
<rect x="26" y="44" width="2" height="2" fill="#C6D8E4" />
<rect x="28" y="44" width="2" height="2" fill="#BBC6D8" />
<rect x="30" y="44" width="2" height="2" fill="#BFCAE0" />
<rect x="32" y="44" width="2" height="2" fill="#8E9AB4" />
<rect x="34" y="44" width="2" height="2" fill="#8998B5" />
<rect x="36" y="44" width="2" height="2" fill="#899AB6" />
<rect x="38" y="44" width="2" height="2" fill="#8598B6" />
<rect x="40" y="44" width="2" height="2" fill="#899AB6" />
<rect x="42" y="44" width="2" height="2" fill="#899AB6" />
<rect x="44" y="44" width="2" height="2" fill="#832D46" />
<rect x="46" y="44" width="2" height="2" fill="#972C46" />
<rect x="48" y="44" width="2" height="2" fill="#50202C" />
<rect x="50" y="44" width="2" height="2" fill="#19111C" />
<rect x="52" y="44" width="2" height="2" fill="#1C142B" />
<rect x="10" y="46" width="2" height="2" fill="#131718" />
<rect x="12" y="46" width="2" height="2" fill="#140E1C" />
<rect x="14" y="46" width="2" height="2" fill="#270C13" />
<rect x="16" y="46" width="2" height="2" fill="#EC4154" />
<rect x="18" y="46" width="2" height="2" fill="#EC4154" />
<rect x="20" y="46" width="2" height="2" fill="#D34B61" />
<rect x="22" y="46" width="2" height="2" fill="#D5C9D7" />
<rect x="24" y="46" width="2" height="2" fill="#C9CDD6" />
<rect x="26" y="46" width="2" height="2" fill="#C6D3DC" />
<rect x="28" y="46" width="2" height="2" fill="#C1C8D8" />
<rect x="30" y="46" width="2" height="2" fill="#C1C9DC" />
<rect x="32" y="46" width="2" height="2" fill="#8F9AB0" />
<rect x="34" y="46" width="2" height="2" fill="#8999B0" />
<rect x="36" y="46" width="2" height="2" fill="#899AB4" />
<rect x="38" y="46" width="2" height="2" fill="#879CB9" />
<rect x="40" y="46" width="2" height="2" fill="#899AB6" />
<rect x="42" y="46" width="2" height="2" fill="#899AB6" />
<rect x="44" y="46" width="2" height="2" fill="#932D45" />
<rect x="46" y="46" width="2" height="2" fill="#9B213A" />
<rect x="48" y="46" width="2" height="2" fill="#4F1A22" />
<rect x="50" y="46" width="2" height="2" fill="#1C151D" />
<rect x="52" y="46" width="2" height="2" fill="#1C142B" />
<rect x="10" y="48" width="2" height="2" fill="#131814" />
<rect x="12" y="48" width="2" height="2" fill="#1B1725" />
<rect x="14" y="48" width="2" height="2" fill="#1A1018" />
<rect x="16" y="48" width="2" height="2" fill="#EC4154" />
<rect x="18" y="48" width="2" height="2" fill="#EC4154" />
<rect x="20" y="48" width="2" height="2" fill="#D34B61" />
<rect x="22" y="48" width="2" height="2" fill="#FFFEFF" />
<rect x="24" y="48" width="2" height="2" fill="#FFFEFF" />
<rect x="26" y="48" width="2" height="2" fill="#FFFEFF" />
<rect x="28" y="48" width="2" height="2" fill="#C3CBD8" />
<rect x="30" y="48" width="2" height="2" fill="#C1CADB" />
<rect x="32" y="48" width="2" height="2" fill="#8F9AAE" />
<rect x="34" y="48" width="2" height="2" fill="#889AAE" />
<rect x="36" y="48" width="2" height="2" fill="#879BB3" />
<rect x="38" y="48" width="2" height="2" fill="#8B9EBC" />
<rect x="40" y="48" width="2" height="2" fill="#899AB6" />
<rect x="42" y="48" width="2" height="2" fill="#899AB6" />
<rect x="44" y="48" width="2" height="2" fill="#899AB6" />
<rect x="46" y="48" width="2" height="2" fill="#899AB6" />
<rect x="48" y="48" width="2" height="2" fill="#4A2E3A" />
<rect x="50" y="48" width="2" height="2" fill="#181422" />
<rect x="52" y="48" width="2" height="2" fill="#171429" />
<rect x="10" y="50" width="2" height="2" fill="#0F1A14" />
<rect x="12" y="50" width="2" height="2" fill="#1B1426" />
<rect x="14" y="50" width="2" height="2" fill="#1A1624" />
<rect x="16" y="50" width="2" height="2" fill="#FFFBFF" />
<rect x="18" y="50" width="2" height="2" fill="#FFFAFB" />
<rect x="20" y="50" width="2" height="2" fill="#FFFCFF" />
<rect x="22" y="50" width="2" height="2" fill="#FFFEFF" />
<rect x="24" y="50" width="2" height="2" fill="#FFFEFF" />
<rect x="26" y="50" width="2" height="2" fill="#FFFEFF" />
<rect x="28" y="50" width="2" height="2" fill="#BECBDB" />
<rect x="30" y="50" width="2" height="2" fill="#BECBDB" />
<rect x="32" y="50" width="2" height="2" fill="#8F9AAE" />
<rect x="34" y="50" width="2" height="2" fill="#889AAE" />
<rect x="36" y="50" width="2" height="2" fill="#879BB3" />
<rect x="38" y="50" width="2" height="2" fill="#8C9BBA" />
<rect x="40" y="50" width="2" height="2" fill="#8E9DBA" />
<rect x="42" y="50" width="2" height="2" fill="#899AB6" />
<rect x="44" y="50" width="2" height="2" fill="#899AB6" />
<rect x="46" y="50" width="2" height="2" fill="#899AB6" />
<rect x="48" y="50" width="2" height="2" fill="#4F455D" />
<rect x="50" y="50" width="2" height="2" fill="#1A172C" />
<rect x="52" y="50" width="2" height="2" fill="#171429" />
<rect x="10" y="52" width="2" height="2" fill="#101C18" />
<rect x="12" y="52" width="2" height="2" fill="#1C1826" />
<rect x="14" y="52" width="2" height="2" fill="#12121E" />
<rect x="16" y="52" width="2" height="2" fill="#F6F6FE" />
<rect x="18" y="52" width="2" height="2" fill="#FFFEFF" />
<rect x="20" y="52" width="2" height="2" fill="#F9FFFF" />
<rect x="22" y="52" width="2" height="2" fill="#F5FDFF" />
<rect x="24" y="52" width="2" height="2" fill="#F9FFFF" />
<rect x="26" y="52" width="2" height="2" fill="#FFFEFF" />
<rect x="28" y="52" width="2" height="2" fill="#BECBDB" />
<rect x="30" y="52" width="2" height="2" fill="#BECBDB" />
<rect x="32" y="52" width="2" height="2" fill="#9CA5B6" />
<rect x="34" y="52" width="2" height="2" fill="#909CAC" />
<rect x="36" y="52" width="2" height="2" fill="#8B98AB" />
<rect x="38" y="52" width="2" height="2" fill="#8B9AB7" />
<rect x="40" y="52" width="2" height="2" fill="#8B9BB5" />
<rect x="42" y="52" width="2" height="2" fill="#8C9AB4" />
<rect x="44" y="52" width="2" height="2" fill="#899AB6" />
<rect x="46" y="52" width="2" height="2" fill="#899AB6" />
<rect x="48" y="52" width="2" height="2" fill="#4B4D5A" />
<rect x="50" y="52" width="2" height="2" fill="#13131D" />
<rect x="52" y="52" width="2" height="2" fill="#121119" />
<rect x="16" y="54" width="2" height="2" fill="#25282F" />
<rect x="18" y="54" width="2" height="2" fill="#13111C" />
<rect x="20" y="54" width="2" height="2" fill="#191826" />
<rect x="22" y="54" width="2" height="2" fill="#151424" />
<rect x="24" y="54" width="2" height="2" fill="#151726" />
<rect x="26" y="54" width="2" height="2" fill="#151726" />
<rect x="28" y="54" width="2" height="2" fill="#0A0C1B" />
<rect x="30" y="54" width="2" height="2" fill="#1B1D2C" />
<rect x="32" y="54" width="2" height="2" fill="#0D0F1E" />
<rect x="34" y="54" width="2" height="2" fill="#101221" />
<rect x="36" y="54" width="2" height="2" fill="#100E23" />
<rect x="38" y="54" width="2" height="2" fill="#15122F" />
<rect x="40" y="54" width="2" height="2" fill="#15132B" />
<rect x="42" y="54" width="2" height="2" fill="#15132B" />
<rect x="44" y="54" width="2" height="2" fill="#151426" />
<rect x="46" y="54" width="2" height="2" fill="#0A0E1A" />
<rect x="48" y="54" width="2" height="2" fill="#172025" />
<rect x="16" y="56" width="2" height="2" fill="#121617" />
<rect x="18" y="56" width="2" height="2" fill="#110F1C" />
<rect x="20" y="56" width="2" height="2" fill="#181422" />
<rect x="22" y="56" width="2" height="2" fill="#1A1624" />
<rect x="24" y="56" width="2" height="2" fill="#191523" />
<rect x="26" y="56" width="2" height="2" fill="#171321" />
<rect x="28" y="56" width="2" height="2" fill="#1B1725" />
<rect x="30" y="56" width="2" height="2" fill="#161220" />
<rect x="32" y="56" width="2" height="2" fill="#181422" />
<rect x="34" y="56" width="2" height="2" fill="#1B1725" />
<rect x="36" y="56" width="2" height="2" fill="#171321" />
<rect x="38" y="56" width="2" height="2" fill="#1A1323" />
<rect x="40" y="56" width="2" height="2" fill="#1A1422" />
<rect x="42" y="56" width="2" height="2" fill="#1B1322" />
<rect x="44" y="56" width="2" height="2" fill="#18151E" />
<rect x="46" y="56" width="2" height="2" fill="#181C1D" />
<rect x="48" y="56" width="2" height="2" fill="#12211A" />
<rect x="16" y="58" width="2" height="2" fill="#102016" />
<rect x="18" y="58" width="2" height="2" fill="#101A1B" />
<rect x="20" y="58" width="2" height="2" fill="#121C1B" />
<rect x="22" y="58" width="2" height="2" fill="#121E1C" />
<rect x="24" y="58" width="2" height="2" fill="#111D19" />
<rect x="26" y="58" width="2" height="2" fill="#0F1B17" />
<rect x="28" y="58" width="2" height="2" fill="#101C18" />
<rect x="30" y="58" width="2" height="2" fill="#0E1A16" />
<rect x="32" y="58" width="2" height="2" fill="#0D1915" />
<rect x="34" y="58" width="2" height="2" fill="#0D1915" />
<rect x="36" y="58" width="2" height="2" fill="#0F1B19" />
<rect x="38" y="58" width="2" height="2" fill="#0F1E19" />
<rect x="40" y="58" width="2" height="2" fill="#0F1E17" />
<rect x="42" y="58" width="2" height="2" fill="#0F1E17" />
<rect x="44" y="58" width="2" height="2" fill="#0F1F15" />
<rect x="46" y="58" width="2" height="2" fill="#091E0F" />
<rect x="48" y="58" width="2" height="2" fill="#162F1A" />
</svg>