<?xml version="1.0" encoding="UTF-8" ?>
<svg version="1.1" width="64" height="64" xmlns="http://www.w3.org/2000/svg" shape-rendering="crispEdges">
<rect x="36" y="2" width="2" height="2" fill="#00010C" />
<rect x="38" y="2" width="2" height="2" fill="#00010C" />
<rect x="40" y="2" width="2" height="2" fill="#00010C" />
<rect x="42" y="2" width="2" height="2" fill="#00010C" />
<rect x="44" y="2" width="2" height="2" fill="#00010C" />
<rect x="46" y="2" width="2" height="2" fill="#00010C" />
<rect x="20" y="4" width="2" height="2" fill="#00010C" />
<rect x="22" y="4" width="2" height="2" fill="#00000B" />
<rect x="24" y="4" width="2" height="2" fill="#00000B" />
<rect x="26" y="4" width="2" height="2" fill="#00010C" />
<rect x="28" y="4" width="2" height="2" fill="#00030E" />
<rect x="30" y="4" width="2" height="2" fill="#000009" />
<rect x="32" y="4" width="2" height="2" fill="#03060D" />
<rect x="34" y="4" width="2" height="2" fill="#00010C" />
<rect x="36" y="4" width="2" height="2" fill="#00010C" />
<rect x="38" y="4" width="2" height="2" fill="#54555A" />
<rect x="40" y="4" width="2" height="2" fill="#54555A" />
<rect x="42" y="4" width="2" height="2" fill="#8C969F" />
<rect x="44" y="4" width="2" height="2" fill="#8C969F" />
<rect x="46" y="4" width="2" height="2" fill="#00010C" />
<rect x="20" y="6" width="2" height="2" fill="#00010C" />
<rect x="22" y="6" width="2" height="2" fill="#34353A" />
<rect x="24" y="6" width="2" height="2" fill="#343539" />
<rect x="26" y="6" width="2" height="2" fill="#343539" />
<rect x="28" y="6" width="2" height="2" fill="#343539" />
<rect x="30" y="6" width="2" height="2" fill="#54555A" />
<rect x="32" y="6" width="2" height="2" fill="#54555A" />
<rect x="34" y="6" width="2" height="2" fill="#343539" />
<rect x="36" y="6" width="2" height="2" fill="#54555A" />
<rect x="38" y="6" width="2" height="2" fill="#54555A" />
<rect x="40" y="6" width="2" height="2" fill="#54555A" />
<rect x="42" y="6" width="2" height="2" fill="#8C969F" />
<rect x="44" y="6" width="2" height="2" fill="#F0FAFC" />
<rect x="46" y="6" width="2" height="2" fill="#00010C" />
<rect x="20" y="8" width="2" height="2" fill="#00010C" />
<rect x="22" y="8" width="2" height="2" fill="#33373A" />
<rect x="24" y="8" width="2" height="2" fill="#343539" />
<rect x="26" y="8" width="2" height="2" fill="#54555A" />
<rect x="28" y="8" width="2" height="2" fill="#54555A" />
<rect x="30" y="8" width="2" height="2" fill="#54555A" />
<rect x="32" y="8" width="2" height="2" fill="#54555A" />
<rect x="34" y="8" width="2" height="2" fill="#343539" />
<rect x="36" y="8" width="2" height="2" fill="#54555A" />
<rect x="38" y="8" width="2" height="2" fill="#54555A" />
<rect x="40" y="8" width="2" height="2" fill="#54555A" />
<rect x="42" y="8" width="2" height="2" fill="#8C969F" />
<rect x="44" y="8" width="2" height="2" fill="#F0FAFC" />
<rect x="46" y="8" width="2" height="2" fill="#00010C" />
<rect x="20" y="10" width="2" height="2" fill="#00010C" />
<rect x="22" y="10" width="2" height="2" fill="#33373A" />
<rect x="24" y="10" width="2" height="2" fill="#343539" />
<rect x="26" y="10" width="2" height="2" fill="#54555A" />
<rect x="28" y="10" width="2" height="2" fill="#54555A" />
<rect x="30" y="10" width="2" height="2" fill="#34353A" />
<rect x="32" y="10" width="2" height="2" fill="#54555A" />
<rect x="34" y="10" width="2" height="2" fill="#54555A" />
<rect x="36" y="10" width="2" height="2" fill="#54555A" />
<rect x="38" y="10" width="2" height="2" fill="#54555A" />
<rect x="40" y="10" width="2" height="2" fill="#54555A" />
<rect x="42" y="10" width="2" height="2" fill="#8C969F" />
<rect x="44" y="10" width="2" height="2" fill="#F0FAFC" />
<rect x="46" y="10" width="2" height="2" fill="#00010C" />
<rect x="20" y="12" width="2" height="2" fill="#00010C" />
<rect x="22" y="12" width="2" height="2" fill="#343539" />
<rect x="24" y="12" width="2" height="2" fill="#343539" />
<rect x="26" y="12" width="2" height="2" fill="#54555A" />
<rect x="28" y="12" width="2" height="2" fill="#56555A" />
<rect x="30" y="12" width="2" height="2" fill="#54555A" />
<rect x="32" y="12" width="2" height="2" fill="#54555A" />
<rect x="34" y="12" width="2" height="2" fill="#54555A" />
<rect x="36" y="12" width="2" height="2" fill="#54555A" />
<rect x="38" y="12" width="2" height="2" fill="#54555A" />
<rect x="40" y="12" width="2" height="2" fill="#54555A" />
<rect x="42" y="12" width="2" height="2" fill="#89969E" />
<rect x="44" y="12" width="2" height="2" fill="#F0FAFC" />
<rect x="46" y="12" width="2" height="2" fill="#00010C" />
<rect x="20" y="14" width="2" height="2" fill="#00010C" />
<rect x="22" y="14" width="2" height="2" fill="#343539" />
<rect x="24" y="14" width="2" height="2" fill="#343539" />
<rect x="26" y="14" width="2" height="2" fill="#54555A" />
<rect x="28" y="14" width="2" height="2" fill="#54555A" />
<rect x="30" y="14" width="2" height="2" fill="#54555A" />
<rect x="32" y="14" width="2" height="2" fill="#54555A" />
<rect x="34" y="14" width="2" height="2" fill="#54555A" />
<rect x="36" y="14" width="2" height="2" fill="#545359" />
<rect x="38" y="14" width="2" height="2" fill="#56555B" />
<rect x="40" y="14" width="2" height="2" fill="#54555A" />
<rect x="42" y="14" width="2" height="2" fill="#8C969F" />
<rect x="44" y="14" width="2" height="2" fill="#8C969F" />
<rect x="46" y="14" width="2" height="2" fill="#00010C" />
<rect x="20" y="16" width="2" height="2" fill="#00010C" />
<rect x="22" y="16" width="2" height="2" fill="#343539" />
<rect x="24" y="16" width="2" height="2" fill="#343539" />
<rect x="26" y="16" width="2" height="2" fill="#343539" />
<rect x="28" y="16" width="2" height="2" fill="#343539" />
<rect x="30" y="16" width="2" height="2" fill="#5D5457" />
<rect x="32" y="16" width="2" height="2" fill="#5D5455" />
<rect x="34" y="16" width="2" height="2" fill="#00010C" />
<rect x="36" y="16" width="2" height="2" fill="#00010C" />
<rect x="38" y="16" width="2" height="2" fill="#58575C" />
<rect x="40" y="16" width="2" height="2" fill="#54555A" />
<rect x="42" y="16" width="2" height="2" fill="#8C969F" />
<rect x="44" y="16" width="2" height="2" fill="#8C969F" />
<rect x="46" y="16" width="2" height="2" fill="#00010C" />
<rect x="20" y="18" width="2" height="2" fill="#00010C" />
<rect x="22" y="18" width="2" height="2" fill="#00010C" />
<rect x="24" y="18" width="2" height="2" fill="#00010C" />
<rect x="26" y="18" width="2" height="2" fill="#00010C" />
<rect x="28" y="18" width="2" height="2" fill="#4F3127" />
<rect x="30" y="18" width="2" height="2" fill="#7F4931" />
<rect x="32" y="18" width="2" height="2" fill="#7F4931" />
<rect x="34" y="18" width="2" height="2" fill="#00010C" />
<rect x="38" y="18" width="2" height="2" fill="#141318" />
<rect x="40" y="18" width="2" height="2" fill="#54555A" />
<rect x="42" y="18" width="2" height="2" fill="#8C969F" />
<rect x="44" y="18" width="2" height="2" fill="#F0FAFC" />
<rect x="46" y="18" width="2" height="2" fill="#00010C" />
<rect x="26" y="20" width="2" height="2" fill="#00010C" />
<rect x="28" y="20" width="2" height="2" fill="#7F4931" />
<rect x="30" y="20" width="2" height="2" fill="#7F4931" />
<rect x="32" y="20" width="2" height="2" fill="#A07650" />
<rect x="34" y="20" width="2" height="2" fill="#00010C" />
<rect x="40" y="20" width="2" height="2" fill="#1B2026" />
<rect x="42" y="20" width="2" height="2" fill="#8C969F" />
<rect x="44" y="20" width="2" height="2" fill="#8C969F" />
<rect x="46" y="20" width="2" height="2" fill="#00010C" />
<rect x="26" y="22" width="2" height="2" fill="#00010C" />
<rect x="28" y="22" width="2" height="2" fill="#7F4931" />
<rect x="30" y="22" width="2" height="2" fill="#7F4931" />
<rect x="32" y="22" width="2" height="2" fill="#A07650" />
<rect x="34" y="22" width="2" height="2" fill="#00010C" />
<rect x="40" y="22" width="2" height="2" fill="#030712" />
<rect x="42" y="22" width="2" height="2" fill="#8C969F" />
<rect x="44" y="22" width="2" height="2" fill="#8C969F" />
<rect x="46" y="22" width="2" height="2" fill="#00010C" />
<rect x="26" y="24" width="2" height="2" fill="#00010C" />
<rect x="28" y="24" width="2" height="2" fill="#765039" />
<rect x="30" y="24" width="2" height="2" fill="#A07650" />
<rect x="32" y="24" width="2" height="2" fill="#A37951" />
<rect x="34" y="24" width="2" height="2" fill="#00010C" />
<rect x="42" y="24" width="2" height="2" fill="#00060E" />
<rect x="44" y="24" width="2" height="2" fill="#0D1719" />
<rect x="46" y="24" width="2" height="2" fill="#00010C" />
<rect x="26" y="26" width="2" height="2" fill="#00010C" />
<rect x="28" y="26" width="2" height="2" fill="#45241B" />
<rect x="30" y="26" width="2" height="2" fill="#74462C" />
<rect x="32" y="26" width="2" height="2" fill="#A07650" />
<rect x="34" y="26" width="2" height="2" fill="#00010C" />
<rect x="28" y="28" width="2" height="2" fill="#00010C" />
<rect x="30" y="28" width="2" height="2" fill="#73472E" />
<rect x="32" y="28" width="2" height="2" fill="#A07650" />
<rect x="34" y="28" width="2" height="2" fill="#00010C" />
<rect x="28" y="30" width="2" height="2" fill="#00010C" />
<rect x="30" y="30" width="2" height="2" fill="#70482E" />
<rect x="32" y="30" width="2" height="2" fill="#A07650" />
<rect x="34" y="30" width="2" height="2" fill="#00010C" />
<rect x="28" y="32" width="2" height="2" fill="#00010C" />
<rect x="30" y="32" width="2" height="2" fill="#70482F" />
<rect x="32" y="32" width="2" height="2" fill="#A07650" />
<rect x="34" y="32" width="2" height="2" fill="#00010C" />
<rect x="28" y="34" width="2" height="2" fill="#00010C" />
<rect x="30" y="34" width="2" height="2" fill="#71472F" />
<rect x="32" y="34" width="2" height="2" fill="#A07650" />
<rect x="34" y="34" width="2" height="2" fill="#00010C" />
<rect x="28" y="36" width="2" height="2" fill="#00010C" />
<rect x="30" y="36" width="2" height="2" fill="#71472F" />
<rect x="32" y="36" width="2" height="2" fill="#A07650" />
<rect x="34" y="36" width="2" height="2" fill="#00010C" />
<rect x="28" y="38" width="2" height="2" fill="#00010C" />
<rect x="30" y="38" width="2" height="2" fill="#71472F" />
<rect x="32" y="38" width="2" height="2" fill="#A07650" />
<rect x="34" y="38" width="2" height="2" fill="#00010C" />
<rect x="28" y="40" width="2" height="2" fill="#00010C" />
<rect x="30" y="40" width="2" height="2" fill="#71472F" />
<rect x="32" y="40" width="2" height="2" fill="#A07650" />
<rect x="34" y="40" width="2" height="2" fill="#00010C" />
<rect x="28" y="42" width="2" height="2" fill="#00010C" />
<rect x="30" y="42" width="2" height="2" fill="#71472F" />
<rect x="32" y="42" width="2" height="2" fill="#A07650" />
<rect x="34" y="42" width="2" height="2" fill="#00010C" />
<rect x="28" y="44" width="2" height="2" fill="#00010C" />
<rect x="30" y="44" width="2" height="2" fill="#71472F" />
<rect x="32" y="44" width="2" height="2" fill="#A07650" />
<rect x="34" y="44" width="2" height="2" fill="#00010C" />
<rect x="28" y="46" width="2" height="2" fill="#00010C" />
<rect x="30" y="46" width="2" height="2" fill="#70492C" />
<rect x="32" y="46" width="2" height="2" fill="#A07553" />
<rect x="34" y="46" width="2" height="2" fill="#00010C" />
<rect x="28" y="48" width="2" height="2" fill="#00010C" />
<rect x="30" y="48" width="2" height="2" fill="#70492C" />
<rect x="32" y="48" width="2" height="2" fill="#A07553" />
<rect x="34" y="48" width="2" height="2" fill="#00010C" />
<rect x="28" y="50" width="2" height="2" fill="#00010C" />
<rect x="30" y="50" width="2" height="2" fill="#6E4831" />
<rect x="32" y="50" width="2" height="2" fill="#9E7557" />
<rect x="34" y="50" width="2" height="2" fill="#00010C" />
<rect x="28" y="52" width="2" height="2" fill="#00010C" />
<rect x="30" y="52" width="2" height="2" fill="#6F4F40" />
<rect x="32" y="52" width="2" height="2" fill="#7D5941" />
<rect x="34" y="52" width="2" height="2" fill="#00010C" />
<rect x="28" y="54" width="2" height="2" fill="#00010C" />
<rect x="30" y="54" width="2" height="2" fill="#45241B" />
<rect x="32" y="54" width="2" height="2" fill="#45241B" />
<rect x="34" y="54" width="2" height="2" fill="#00010C" />
<rect x="28" y="56" width="2" height="2" fill="#00010C" />
<rect x="30" y="56" width="2" height="2" fill="#45241B" />
<rect x="32" y="56" width="2" height="2" fill="#6F3E30" />
<rect x="34" y="56" width="2" height="2" fill="#00010C" />
<rect x="26" y="58" width="2" height="2" fill="#00010C" />
<rect x="28" y="58" width="2" height="2" fill="#6F3E30" />
<rect x="30" y="58" width="2" height="2" fill="#6F3E30" />
<rect x="32" y="58" width="2" height="2" fill="#6F3E30" />
<rect x="34" y="58" width="2" height="2" fill="#00010C" />
<rect x="26" y="60" width="2" height="2" fill="#00010C" />
<rect x="28" y="60" width="2" height="2" fill="#00010C" />
<rect x="30" y="60" width="2" height="2" fill="#00010C" />
<rect x="32" y="60" width="2" height="2" fill="#00010C" />
<rect x="34" y="60" width="2" height="2" fill="#00010C" />
</svg>