<?xml version="1.0" encoding="UTF-8" ?>
<svg version="1.1" width="64" height="64" xmlns="http://www.w3.org/2000/svg" shape-rendering="crispEdges">
<rect x="30" y="6" width="2" height="2" fill="#1E1826" />
<rect x="32" y="6" width="2" height="2" fill="#181121" />
<rect x="34" y="6" width="2" height="2" fill="#171425" />
<rect x="28" y="8" width="2" height="2" fill="#191523" />
<rect x="30" y="8" width="2" height="2" fill="#285B4A" />
<rect x="32" y="8" width="2" height="2" fill="#255545" />
<rect x="34" y="8" width="2" height="2" fill="#1E3B39" />
<rect x="36" y="8" width="2" height="2" fill="#1A1420" />
<rect x="28" y="10" width="2" height="2" fill="#181623" />
<rect x="30" y="10" width="2" height="2" fill="#275749" />
<rect x="32" y="10" width="2" height="2" fill="#1C171D" />
<rect x="34" y="10" width="2" height="2" fill="#153F3B" />
<rect x="36" y="10" width="2" height="2" fill="#161620" />
<rect x="22" y="12" width="2" height="2" fill="#111619" />
<rect x="24" y="12" width="2" height="2" fill="#191826" />
<rect x="26" y="12" width="2" height="2" fill="#1A1826" />
<rect x="28" y="12" width="2" height="2" fill="#17182C" />
<rect x="30" y="12" width="2" height="2" fill="#181621" />
<rect x="32" y="12" width="2" height="2" fill="#181729" />
<rect x="34" y="12" width="2" height="2" fill="#191627" />
<rect x="36" y="12" width="2" height="2" fill="#19142A" />
<rect x="38" y="12" width="2" height="2" fill="#171226" />
<rect x="40" y="12" width="2" height="2" fill="#161324" />
<rect x="20" y="14" width="2" height="2" fill="#0B1610" />
<rect x="22" y="14" width="2" height="2" fill="#37614B" />
<rect x="24" y="14" width="2" height="2" fill="#428550" />
<rect x="26" y="14" width="2" height="2" fill="#448751" />
<rect x="28" y="14" width="2" height="2" fill="#468751" />
<rect x="30" y="14" width="2" height="2" fill="#408654" />
<rect x="32" y="14" width="2" height="2" fill="#428750" />
<rect x="34" y="14" width="2" height="2" fill="#408849" />
<rect x="36" y="14" width="2" height="2" fill="#184038" />
<rect x="38" y="14" width="2" height="2" fill="#262B4B" />
<rect x="40" y="14" width="2" height="2" fill="#242C41" />
<rect x="42" y="14" width="2" height="2" fill="#161825" />
<rect x="18" y="16" width="2" height="2" fill="#000000" />
<rect x="20" y="16" width="2" height="2" fill="#2C4B43" />
<rect x="22" y="16" width="2" height="2" fill="#1F4A39" />
<rect x="24" y="16" width="2" height="2" fill="#1E3D40" />
<rect x="26" y="16" width="2" height="2" fill="#1C3A44" />
<rect x="28" y="16" width="2" height="2" fill="#1C3A44" />
<rect x="30" y="16" width="2" height="2" fill="#1C3D42" />
<rect x="32" y="16" width="2" height="2" fill="#1A3C3D" />
<rect x="34" y="16" width="2" height="2" fill="#1E403F" />
<rect x="36" y="16" width="2" height="2" fill="#265E41" />
<rect x="38" y="16" width="2" height="2" fill="#1C393F" />
<rect x="40" y="16" width="2" height="2" fill="#242946" />
<rect x="42" y="16" width="2" height="2" fill="#2A2F43" />
<rect x="44" y="16" width="2" height="2" fill="#1E2628" />
<rect x="18" y="18" width="2" height="2" fill="#000000" />
<rect x="20" y="18" width="2" height="2" fill="#457659" />
<rect x="22" y="18" width="2" height="2" fill="#326C44" />
<rect x="24" y="18" width="2" height="2" fill="#8D9FAB" />
<rect x="26" y="18" width="2" height="2" fill="#5A6988" />
<rect x="28" y="18" width="2" height="2" fill="#5B6888" />
<rect x="30" y="18" width="2" height="2" fill="#8A9AB1" />
<rect x="32" y="18" width="2" height="2" fill="#295E42" />
<rect x="34" y="18" width="2" height="2" fill="#3F864A" />
<rect x="36" y="18" width="2" height="2" fill="#448259" />
<rect x="38" y="18" width="2" height="2" fill="#252D44" />
<rect x="40" y="18" width="2" height="2" fill="#242B45" />
<rect x="42" y="18" width="2" height="2" fill="#282D43" />
<rect x="44" y="18" width="2" height="2" fill="#19162B" />
<rect x="46" y="18" width="2" height="2" fill="#151424" />
<rect x="18" y="20" width="2" height="2" fill="#000000" />
<rect x="20" y="20" width="2" height="2" fill="#264F41" />
<rect x="22" y="20" width="2" height="2" fill="#286442" />
<rect x="24" y="20" width="2" height="2" fill="#7FA29B" />
<rect x="26" y="20" width="2" height="2" fill="#879DAB" />
<rect x="28" y="20" width="2" height="2" fill="#84A0A4" />
<rect x="30" y="20" width="2" height="2" fill="#87A2A9" />
<rect x="32" y="20" width="2" height="2" fill="#265C44" />
<rect x="34" y="20" width="2" height="2" fill="#226037" />
<rect x="36" y="20" width="2" height="2" fill="#275F44" />
<rect x="38" y="20" width="2" height="2" fill="#1B3A3F" />
<rect x="40" y="20" width="2" height="2" fill="#292943" />
<rect x="42" y="20" width="2" height="2" fill="#2A2C43" />
<rect x="44" y="20" width="2" height="2" fill="#1B192E" />
<rect x="46" y="20" width="2" height="2" fill="#242B3B" />
<rect x="48" y="20" width="2" height="2" fill="#14252F" />
<rect x="18" y="22" width="2" height="2" fill="#000000" />
<rect x="20" y="22" width="2" height="2" fill="#26513D" />
<rect x="22" y="22" width="2" height="2" fill="#397B4B" />
<rect x="24" y="22" width="2" height="2" fill="#226339" />
<rect x="26" y="22" width="2" height="2" fill="#225D3D" />
<rect x="28" y="22" width="2" height="2" fill="#225E3C" />
<rect x="30" y="22" width="2" height="2" fill="#27663B" />
<rect x="32" y="22" width="2" height="2" fill="#41884E" />
<rect x="34" y="22" width="2" height="2" fill="#3F8A47" />
<rect x="36" y="22" width="2" height="2" fill="#24603E" />
<rect x="38" y="22" width="2" height="2" fill="#203344" />
<rect x="40" y="22" width="2" height="2" fill="#242A44" />
<rect x="42" y="22" width="2" height="2" fill="#2A2C43" />
<rect x="44" y="22" width="2" height="2" fill="#171324" />
<rect x="46" y="22" width="2" height="2" fill="#1D1A2B" />
<rect x="48" y="22" width="2" height="2" fill="#223343" />
<rect x="50" y="22" width="2" height="2" fill="#1B1726" />
<rect x="18" y="24" width="2" height="2" fill="#000000" />
<rect x="20" y="24" width="2" height="2" fill="#407652" />
<rect x="22" y="24" width="2" height="2" fill="#3E8B47" />
<rect x="24" y="24" width="2" height="2" fill="#3D894B" />
<rect x="26" y="24" width="2" height="2" fill="#3D894B" />
<rect x="28" y="24" width="2" height="2" fill="#3D894B" />
<rect x="30" y="24" width="2" height="2" fill="#3D8948" />
<rect x="32" y="24" width="2" height="2" fill="#408849" />
<rect x="34" y="24" width="2" height="2" fill="#3D894B" />
<rect x="36" y="24" width="2" height="2" fill="#316F48" opacity="0.800000" />
<rect x="38" y="24" width="2" height="2" fill="#223440" />
<rect x="40" y="24" width="2" height="2" fill="#282945" />
<rect x="42" y="24" width="2" height="2" fill="#282D41" />
<rect x="44" y="24" width="2" height="2" fill="#0A1119" />
<rect x="46" y="24" width="2" height="2" fill="#0B1218" />
<rect x="48" y="24" width="2" height="2" fill="#27293E" />
<rect x="50" y="24" width="2" height="2" fill="#1E323D" />
<rect x="52" y="24" width="2" height="2" fill="#0A1519" />
<rect x="18" y="26" width="2" height="2" fill="#000000" />
<rect x="20" y="26" width="2" height="2" fill="#3F764F" />
<rect x="22" y="26" width="2" height="2" fill="#3E8B3B" />
<rect x="24" y="26" width="2" height="2" fill="#317640" />
<rect x="26" y="26" width="2" height="2" fill="#2E6F44" />
<rect x="28" y="26" width="2" height="2" fill="#316F3E" />
<rect x="30" y="26" width="2" height="2" fill="#2E713E" />
<rect x="32" y="26" width="2" height="2" fill="#295F47" />
<rect x="34" y="26" width="2" height="2" fill="#408C44" />
<rect x="36" y="26" width="2" height="2" fill="#225C43" />
<rect x="38" y="26" width="2" height="2" fill="#1A3B42" />
<rect x="40" y="26" width="2" height="2" fill="#252A3D" />
<rect x="42" y="26" width="2" height="2" fill="#252C3E" />
<rect x="44" y="26" width="2" height="2" fill="#0F1E1B" />
<rect x="46" y="26" width="2" height="2" fill="#0E1F15" />
<rect x="48" y="26" width="2" height="2" fill="#282A3F" />
<rect x="50" y="26" width="2" height="2" fill="#183B41" />
<rect x="52" y="26" width="2" height="2" fill="#181526" />
<rect x="18" y="28" width="2" height="2" fill="#000000" />
<rect x="20" y="28" width="2" height="2" fill="#294D3F" />
<rect x="22" y="28" width="2" height="2" fill="#226240" />
<rect x="24" y="28" width="2" height="2" fill="#3F844D" />
<rect x="26" y="28" width="2" height="2" fill="#41894A" />
<rect x="28" y="28" width="2" height="2" fill="#428751" />
<rect x="30" y="28" width="2" height="2" fill="#42864B" />
<rect x="32" y="28" width="2" height="2" fill="#275C40" />
<rect x="34" y="28" width="2" height="2" fill="#275F3A" />
<rect x="36" y="28" width="2" height="2" fill="#163F37" />
<rect x="38" y="28" width="2" height="2" fill="#203145" />
<rect x="40" y="28" width="2" height="2" fill="#262A43" />
<rect x="42" y="28" width="2" height="2" fill="#252C3E" />
<rect x="44" y="28" width="2" height="2" fill="#0F1E1B" />
<rect x="46" y="28" width="2" height="2" fill="#0C2017" />
<rect x="48" y="28" width="2" height="2" fill="#262A43" />
<rect x="50" y="28" width="2" height="2" fill="#1B3A3F" />
<rect x="52" y="28" width="2" height="2" fill="#171626" />
<rect x="16" y="30" width="2" height="2" fill="#05190D" />
<rect x="18" y="30" width="2" height="2" fill="#131E22" />
<rect x="20" y="30" width="2" height="2" fill="#447659" />
<rect x="22" y="30" width="2" height="2" fill="#428552" />
<rect x="24" y="30" width="2" height="2" fill="#2B6942" />
<rect x="26" y="30" width="2" height="2" fill="#22603B" />
<rect x="28" y="30" width="2" height="2" fill="#235F39" />
<rect x="30" y="30" width="2" height="2" fill="#26643F" />
<rect x="32" y="30" width="2" height="2" fill="#428154" />
<rect x="34" y="30" width="2" height="2" fill="#428152" />
<rect x="36" y="30" width="2" height="2" fill="#1C3B3D" />
<rect x="38" y="30" width="2" height="2" fill="#272B46" />
<rect x="40" y="30" width="2" height="2" fill="#262C42" />
<rect x="42" y="30" width="2" height="2" fill="#1E2537" />
<rect x="44" y="30" width="2" height="2" fill="#0C1B18" />
<rect x="46" y="30" width="2" height="2" fill="#3D5643" />
<rect x="48" y="30" width="2" height="2" fill="#1C252A" />
<rect x="50" y="30" width="2" height="2" fill="#243144" />
<rect x="52" y="30" width="2" height="2" fill="#263741" />
<rect x="54" y="30" width="2" height="2" fill="#0E151B" />
<rect x="16" y="32" width="2" height="2" fill="#0E1D18" />
<rect x="18" y="32" width="2" height="2" fill="#0A1C1C" />
<rect x="20" y="32" width="2" height="2" fill="#1B463C" />
<rect x="22" y="32" width="2" height="2" fill="#337148" />
<rect x="24" y="32" width="2" height="2" fill="#3E8448" />
<rect x="26" y="32" width="2" height="2" fill="#438651" />
<rect x="28" y="32" width="2" height="2" fill="#42874E" />
<rect x="30" y="32" width="2" height="2" fill="#41844E" />
<rect x="32" y="32" width="2" height="2" fill="#3A8B48" />
<rect x="34" y="32" width="2" height="2" fill="#143F35" />
<rect x="36" y="32" width="2" height="2" fill="#2C5E52" />
<rect x="38" y="32" width="2" height="2" fill="#1D3A40" />
<rect x="40" y="32" width="2" height="2" fill="#1D3A40" />
<rect x="42" y="32" width="2" height="2" fill="#243841" />
<rect x="44" y="32" width="2" height="2" fill="#222036" />
<rect x="46" y="32" width="2" height="2" fill="#0F171A" />
<rect x="48" y="32" width="2" height="2" fill="#101C18" />
<rect x="50" y="32" width="2" height="2" fill="#252942" />
<rect x="52" y="32" width="2" height="2" fill="#1D3A40" />
<rect x="54" y="32" width="2" height="2" fill="#171429" />
<rect x="16" y="34" width="2" height="2" fill="#0E1D18" />
<rect x="18" y="34" width="2" height="2" fill="#0E1B21" />
<rect x="20" y="34" width="2" height="2" fill="#285B48" />
<rect x="22" y="34" width="2" height="2" fill="#234F3E" />
<rect x="24" y="34" width="2" height="2" fill="#418353" />
<rect x="26" y="34" width="2" height="2" fill="#3C8C47" />
<rect x="28" y="34" width="2" height="2" fill="#3E894E" />
<rect x="30" y="34" width="2" height="2" fill="#398A48" />
<rect x="32" y="34" width="2" height="2" fill="#173F34" />
<rect x="34" y="34" width="2" height="2" fill="#275C42" />
<rect x="36" y="34" width="2" height="2" fill="#2B5E4D" />
<rect x="38" y="34" width="2" height="2" fill="#1B3D3C" />
<rect x="40" y="34" width="2" height="2" fill="#1A3D3F" />
<rect x="42" y="34" width="2" height="2" fill="#203844" />
<rect x="44" y="34" width="2" height="2" fill="#232439" />
<rect x="46" y="34" width="2" height="2" fill="#11161A" />
<rect x="48" y="34" width="2" height="2" fill="#101C18" />
<rect x="50" y="34" width="2" height="2" fill="#252942" />
<rect x="52" y="34" width="2" height="2" fill="#1D3A40" />
<rect x="54" y="34" width="2" height="2" fill="#171429" />
<rect x="16" y="36" width="2" height="2" fill="#0E1D18" />
<rect x="18" y="36" width="2" height="2" fill="#06181C" />
<rect x="20" y="36" width="2" height="2" fill="#1A3C3B" />
<rect x="22" y="36" width="2" height="2" fill="#173B3B" />
<rect x="24" y="36" width="2" height="2" fill="#2D5A46" />
<rect x="26" y="36" width="2" height="2" fill="#418650" />
<rect x="28" y="36" width="2" height="2" fill="#3E8849" />
<rect x="30" y="36" width="2" height="2" fill="#143F2C" />
<rect x="32" y="36" width="2" height="2" fill="#183C3C" />
<rect x="34" y="36" width="2" height="2" fill="#183940" />
<rect x="36" y="36" width="2" height="2" fill="#1E3D42" />
<rect x="38" y="36" width="2" height="2" fill="#252B45" />
<rect x="40" y="36" width="2" height="2" fill="#262A45" />
<rect x="42" y="36" width="2" height="2" fill="#262A43" />
<rect x="44" y="36" width="2" height="2" fill="#1F2438" />
<rect x="46" y="36" width="2" height="2" fill="#0F191A" />
<rect x="48" y="36" width="2" height="2" fill="#101C18" />
<rect x="50" y="36" width="2" height="2" fill="#252942" />
<rect x="52" y="36" width="2" height="2" fill="#1D3A40" />
<rect x="54" y="36" width="2" height="2" fill="#171429" />
<rect x="16" y="38" width="2" height="2" fill="#121D1F" />
<rect x="18" y="38" width="2" height="2" fill="#255C3D" />
<rect x="20" y="38" width="2" height="2" fill="#194536" />
<rect x="22" y="38" width="2" height="2" fill="#224E41" />
<rect x="24" y="38" width="2" height="2" fill="#255B41" />
<rect x="26" y="38" width="2" height="2" fill="#265B41" />
<rect x="28" y="38" width="2" height="2" fill="#265B3F" />
<rect x="30" y="38" width="2" height="2" fill="#255A46" />
<rect x="32" y="38" width="2" height="2" fill="#2B5B43" />
<rect x="34" y="38" width="2" height="2" fill="#285D43" />
<rect x="36" y="38" width="2" height="2" fill="#1C3B3E" />
<rect x="38" y="38" width="2" height="2" fill="#292B44" />
<rect x="40" y="38" width="2" height="2" fill="#272B44" />
<rect x="42" y="38" width="2" height="2" fill="#262C46" />
<rect x="44" y="38" width="2" height="2" fill="#222338" />
<rect x="46" y="38" width="2" height="2" fill="#12171A" />
<rect x="48" y="38" width="2" height="2" fill="#101C1A" />
<rect x="50" y="38" width="2" height="2" fill="#232B40" />
<rect x="52" y="38" width="2" height="2" fill="#1C3A42" />
<rect x="54" y="38" width="2" height="2" fill="#171425" />
<rect x="16" y="40" width="2" height="2" fill="#122521" />
<rect x="18" y="40" width="2" height="2" fill="#245C3F" />
<rect x="20" y="40" width="2" height="2" fill="#164535" />
<rect x="22" y="40" width="2" height="2" fill="#234E44" />
<rect x="24" y="40" width="2" height="2" fill="#225942" />
<rect x="26" y="40" width="2" height="2" fill="#255E3D" />
<rect x="28" y="40" width="2" height="2" fill="#2A5B3E" />
<rect x="30" y="40" width="2" height="2" fill="#285B48" />
<rect x="32" y="40" width="2" height="2" fill="#255D42" />
<rect x="34" y="40" width="2" height="2" fill="#265C42" />
<rect x="36" y="40" width="2" height="2" fill="#1A3B42" />
<rect x="38" y="40" width="2" height="2" fill="#252D44" />
<rect x="40" y="40" width="2" height="2" fill="#272C42" />
<rect x="42" y="40" width="2" height="2" fill="#262C46" />
<rect x="44" y="40" width="2" height="2" fill="#232439" />
<rect x="46" y="40" width="2" height="2" fill="#121A1C" />
<rect x="48" y="40" width="2" height="2" fill="#0E1D1A" />
<rect x="50" y="40" width="2" height="2" fill="#27273F" />
<rect x="52" y="40" width="2" height="2" fill="#1D3A42" />
<rect x="54" y="40" width="2" height="2" fill="#171523" />
<rect x="16" y="42" width="2" height="2" fill="#101B1F" />
<rect x="18" y="42" width="2" height="2" fill="#161525" />
<rect x="20" y="42" width="2" height="2" fill="#282842" />
<rect x="22" y="42" width="2" height="2" fill="#242947" />
<rect x="24" y="42" width="2" height="2" fill="#203940" />
<rect x="26" y="42" width="2" height="2" fill="#428358" />
<rect x="28" y="42" width="2" height="2" fill="#3A8B49" />
<rect x="30" y="42" width="2" height="2" fill="#242C37" />
<rect x="32" y="42" width="2" height="2" fill="#272C40" />
<rect x="34" y="42" width="2" height="2" fill="#272A49" />
<rect x="36" y="42" width="2" height="2" fill="#262B41" />
<rect x="38" y="42" width="2" height="2" fill="#272B46" />
<rect x="40" y="42" width="2" height="2" fill="#252D42" />
<rect x="42" y="42" width="2" height="2" fill="#242A44" />
<rect x="44" y="42" width="2" height="2" fill="#1B1C31" />
<rect x="46" y="42" width="2" height="2" fill="#121A1C" />
<rect x="48" y="42" width="2" height="2" fill="#0E1D1A" />
<rect x="50" y="42" width="2" height="2" fill="#18122C" />
<rect x="52" y="42" width="2" height="2" fill="#17132A" />
<rect x="16" y="44" width="2" height="2" fill="#131E20" />
<rect x="18" y="44" width="2" height="2" fill="#0C2029" />
<rect x="20" y="44" width="2" height="2" fill="#143C33" />
<rect x="22" y="44" width="2" height="2" fill="#193C40" />
<rect x="24" y="44" width="2" height="2" fill="#275A47" />
<rect x="26" y="44" width="2" height="2" fill="#428152" />
<rect x="28" y="44" width="2" height="2" fill="#3B864E" />
<rect x="30" y="44" width="2" height="2" fill="#153F31" />
<rect x="32" y="44" width="2" height="2" fill="#143D37" />
<rect x="34" y="44" width="2" height="2" fill="#143D35" />
<rect x="36" y="44" width="2" height="2" fill="#173E3D" />
<rect x="38" y="44" width="2" height="2" fill="#1E3640" />
<rect x="40" y="44" width="2" height="2" fill="#252B45" />
<rect x="42" y="44" width="2" height="2" fill="#262C46" />
<rect x="44" y="44" width="2" height="2" fill="#222338" />
<rect x="46" y="44" width="2" height="2" fill="#10181A" />
<rect x="48" y="44" width="2" height="2" fill="#0E1C1C" />
<rect x="50" y="44" width="2" height="2" fill="#242A42" />
<rect x="52" y="44" width="2" height="2" fill="#171628" />
<rect x="16" y="46" width="2" height="2" fill="#121D1F" />
<rect x="18" y="46" width="2" height="2" fill="#295A45" />
<rect x="20" y="46" width="2" height="2" fill="#3D7B54" />
<rect x="22" y="46" width="2" height="2" fill="#21503C" />
<rect x="24" y="46" width="2" height="2" fill="#2A5A4C" />
<rect x="26" y="46" width="2" height="2" fill="#275C42" />
<rect x="28" y="46" width="2" height="2" fill="#265B49" />
<rect x="30" y="46" width="2" height="2" fill="#285E47" />
<rect x="32" y="46" width="2" height="2" fill="#265E3B" />
<rect x="34" y="46" width="2" height="2" fill="#265C42" />
<rect x="36" y="46" width="2" height="2" fill="#1A3B40" />
<rect x="38" y="46" width="2" height="2" fill="#262D40" />
<rect x="40" y="46" width="2" height="2" fill="#262C46" />
<rect x="42" y="46" width="2" height="2" fill="#262C46" />
<rect x="44" y="46" width="2" height="2" fill="#222338" />
<rect x="46" y="46" width="2" height="2" fill="#0F1719" />
<rect x="48" y="46" width="2" height="2" fill="#0D1B1B" />
<rect x="50" y="46" width="2" height="2" fill="#272B44" />
<rect x="52" y="46" width="2" height="2" fill="#171628" />
<rect x="16" y="48" width="2" height="2" fill="#0B1E1C" />
<rect x="18" y="48" width="2" height="2" fill="#2C5847" />
<rect x="20" y="48" width="2" height="2" fill="#3D7655" />
<rect x="22" y="48" width="2" height="2" fill="#214B3D" />
<rect x="24" y="48" width="2" height="2" fill="#2B5D52" />
<rect x="26" y="48" width="2" height="2" fill="#285F3F" />
<rect x="28" y="48" width="2" height="2" fill="#27603F" />
<rect x="30" y="48" width="2" height="2" fill="#305C4D" />
<rect x="32" y="48" width="2" height="2" fill="#2C5B47" />
<rect x="34" y="48" width="2" height="2" fill="#2E5A4B" />
<rect x="36" y="48" width="2" height="2" fill="#203842" />
<rect x="38" y="48" width="2" height="2" fill="#272B46" />
<rect x="40" y="48" width="2" height="2" fill="#252D44" />
<rect x="42" y="48" width="2" height="2" fill="#242A44" />
<rect x="44" y="48" width="2" height="2" fill="#202136" />
<rect x="46" y="48" width="2" height="2" fill="#12171A" />
<rect x="48" y="48" width="2" height="2" fill="#172323" />
<rect x="50" y="48" width="2" height="2" fill="#292D46" />
<rect x="52" y="48" width="2" height="2" fill="#181528" />
<rect x="16" y="50" width="2" height="2" fill="#0E1D18" />
<rect x="18" y="50" width="2" height="2" fill="#17152B" />
<rect x="20" y="50" width="2" height="2" fill="#222F40" />
<rect x="22" y="50" width="2" height="2" fill="#203040" />
<rect x="24" y="50" width="2" height="2" fill="#1C403E" />
<rect x="26" y="50" width="2" height="2" fill="#418650" />
<rect x="28" y="50" width="2" height="2" fill="#3D8A46" />
<rect x="30" y="50" width="2" height="2" fill="#21333D" />
<rect x="32" y="50" width="2" height="2" fill="#232E42" />
<rect x="34" y="50" width="2" height="2" fill="#222F40" />
<rect x="36" y="50" width="2" height="2" fill="#203040" />
<rect x="38" y="50" width="2" height="2" fill="#213140" />
<rect x="40" y="50" width="2" height="2" fill="#262A45" />
<rect x="42" y="50" width="2" height="2" fill="#242A44" />
<rect x="44" y="50" width="2" height="2" fill="#1E1F34" />
<rect x="46" y="50" width="2" height="2" fill="#191524" />
<rect x="48" y="50" width="2" height="2" fill="#292A3F" />
<rect x="50" y="50" width="2" height="2" fill="#161429" />
<rect x="52" y="50" width="2" height="2" fill="#141720" />
<rect x="16" y="52" width="2" height="2" fill="#192324" />
<rect x="18" y="52" width="2" height="2" fill="#102A29" />
<rect x="20" y="52" width="2" height="2" fill="#183E31" />
<rect x="22" y="52" width="2" height="2" fill="#153A33" />
<rect x="24" y="52" width="2" height="2" fill="#285C45" />
<rect x="26" y="52" width="2" height="2" fill="#408252" />
<rect x="28" y="52" width="2" height="2" fill="#43814E" />
<rect x="30" y="52" width="2" height="2" fill="#153F35" />
<rect x="32" y="52" width="2" height="2" fill="#163E36" />
<rect x="34" y="52" width="2" height="2" fill="#183C3A" />
<rect x="36" y="52" width="2" height="2" fill="#193C3E" />
<rect x="38" y="52" width="2" height="2" fill="#1C323F" />
<rect x="40" y="52" width="2" height="2" fill="#272C42" />
<rect x="42" y="52" width="2" height="2" fill="#262C46" />
<rect x="44" y="52" width="2" height="2" fill="#212237" />
<rect x="46" y="52" width="2" height="2" fill="#1A1627" />
<rect x="48" y="52" width="2" height="2" fill="#26243A" />
<rect x="50" y="52" width="2" height="2" fill="#131524" />
<rect x="52" y="52" width="2" height="2" fill="#4C6C57" />
<rect x="16" y="54" width="2" height="2" fill="#141F23" />
<rect x="18" y="54" width="2" height="2" fill="#255B41" />
<rect x="20" y="54" width="2" height="2" fill="#448158" />
<rect x="22" y="54" width="2" height="2" fill="#1B4C36" />
<rect x="24" y="54" width="2" height="2" fill="#275B45" />
<rect x="26" y="54" width="2" height="2" fill="#245C3F" />
<rect x="28" y="54" width="2" height="2" fill="#255B43" />
<rect x="30" y="54" width="2" height="2" fill="#255B41" />
<rect x="32" y="54" width="2" height="2" fill="#245C41" />
<rect x="34" y="54" width="2" height="2" fill="#265A43" />
<rect x="36" y="54" width="2" height="2" fill="#1E3940" />
<rect x="38" y="54" width="2" height="2" fill="#252C46" />
<rect x="40" y="54" width="2" height="2" fill="#272B46" />
<rect x="42" y="54" width="2" height="2" fill="#262C46" />
<rect x="44" y="54" width="2" height="2" fill="#212237" />
<rect x="46" y="54" width="2" height="2" fill="#191627" />
<rect x="48" y="54" width="2" height="2" fill="#1B162D" />
<rect x="50" y="54" width="2" height="2" fill="#1B1D29" />
<rect x="16" y="56" width="2" height="2" fill="#081414" />
<rect x="18" y="56" width="2" height="2" fill="#1C3937" />
<rect x="20" y="56" width="2" height="2" fill="#36574E" />
<rect x="22" y="56" width="2" height="2" fill="#213E42" />
<rect x="24" y="56" width="2" height="2" fill="#234743" />
<rect x="26" y="56" width="2" height="2" fill="#1D4B41" />
<rect x="28" y="56" width="2" height="2" fill="#1D4B40" />
<rect x="30" y="56" width="2" height="2" fill="#214440" />
<rect x="32" y="56" width="2" height="2" fill="#224143" />
<rect x="34" y="56" width="2" height="2" fill="#234046" />
<rect x="36" y="56" width="2" height="2" fill="#243644" />
<rect x="38" y="56" width="2" height="2" fill="#252D42" />
<rect x="40" y="56" width="2" height="2" fill="#272B46" />
<rect x="42" y="56" width="2" height="2" fill="#1D253C" />
<rect x="44" y="56" width="2" height="2" fill="#1E1F34" />
<rect x="46" y="56" width="2" height="2" fill="#191523" />
<rect x="48" y="56" width="2" height="2" fill="#121B1A" />
<rect x="18" y="58" width="2" height="2" fill="#475756" />
<rect x="20" y="58" width="2" height="2" fill="#223345" />
<rect x="22" y="58" width="2" height="2" fill="#284A49" />
<rect x="24" y="58" width="2" height="2" fill="#295848" />
<rect x="26" y="58" width="2" height="2" fill="#295A47" />
<rect x="28" y="58" width="2" height="2" fill="#295A45" />
<rect x="30" y="58" width="2" height="2" fill="#2A584D" />
<rect x="32" y="58" width="2" height="2" fill="#1E3A3B" />
<rect x="34" y="58" width="2" height="2" fill="#1E3A3D" />
<rect x="36" y="58" width="2" height="2" fill="#252D44" />
<rect x="38" y="58" width="2" height="2" fill="#272B46" />
<rect x="40" y="58" width="2" height="2" fill="#222E46" />
<rect x="42" y="58" width="2" height="2" fill="#282C45" />
<rect x="44" y="58" width="2" height="2" fill="#1D2528" />
<rect x="20" y="60" width="2" height="2" fill="#0B1A21" />
<rect x="22" y="60" width="2" height="2" fill="#15181F" />
<rect x="24" y="60" width="2" height="2" fill="#101823" />
<rect x="26" y="60" width="2" height="2" fill="#121923" />
<rect x="28" y="60" width="2" height="2" fill="#111A21" />
<rect x="30" y="60" width="2" height="2" fill="#0F1C22" />
<rect x="32" y="60" width="2" height="2" fill="#141623" />
<rect x="34" y="60" width="2" height="2" fill="#131627" />
<rect x="36" y="60" width="2" height="2" fill="#17152B" />
<rect x="38" y="60" width="2" height="2" fill="#18152A" />
<rect x="40" y="60" width="2" height="2" fill="#17152A" />
<rect x="42" y="60" width="2" height="2" fill="#131426" />
</svg>