<?xml version="1.0" encoding="UTF-8" ?>
<svg version="1.1" width="64" height="64" xmlns="http://www.w3.org/2000/svg" shape-rendering="crispEdges">
<rect x="16" y="20" width="2" height="2" fill="#100D14" />
<rect x="18" y="20" width="2" height="2" fill="#100D14" />
<rect x="20" y="20" width="2" height="2" fill="#100D14" />
<rect x="22" y="20" width="2" height="2" fill="#100D14" />
<rect x="24" y="20" width="2" height="2" fill="#100D14" />
<rect x="26" y="20" width="2" height="2" fill="#100D14" />
<rect x="28" y="20" width="2" height="2" fill="#100D14" />
<rect x="30" y="20" width="2" height="2" fill="#100D14" />
<rect x="32" y="20" width="2" height="2" fill="#100D14" />
<rect x="34" y="20" width="2" height="2" fill="#100D14" />
<rect x="36" y="20" width="2" height="2" fill="#100D14" />
<rect x="38" y="20" width="2" height="2" fill="#0A0911" />
<rect x="44" y="20" width="2" height="2" fill="#040811" />
<rect x="46" y="20" width="2" height="2" fill="#040813" />
<rect x="48" y="20" width="2" height="2" fill="#00010D" />
<rect x="0" y="22" width="2" height="2" fill="#000009" />
<rect x="2" y="22" width="2" height="2" fill="#090307" />
<rect x="4" y="22" width="2" height="2" fill="#0E0307" />
<rect x="6" y="22" width="2" height="2" fill="#0C070E" />
<rect x="12" y="22" width="2" height="2" fill="#0B040C" />
<rect x="14" y="22" width="2" height="2" fill="#0C0107" />
<rect x="16" y="22" width="2" height="2" fill="#1C1C1E" />
<rect x="18" y="22" width="2" height="2" fill="#353439" />
<rect x="20" y="22" width="2" height="2" fill="#131217" />
<rect x="22" y="22" width="2" height="2" fill="#363739" />
<rect x="24" y="22" width="2" height="2" fill="#2C2D2F" />
<rect x="26" y="22" width="2" height="2" fill="#262729" />
<rect x="28" y="22" width="2" height="2" fill="#343537" />
<rect x="30" y="22" width="2" height="2" fill="#2A3235" />
<rect x="32" y="22" width="2" height="2" fill="#35363A" />
<rect x="34" y="22" width="2" height="2" fill="#211C20" />
<rect x="36" y="22" width="2" height="2" fill="#583A2F" />
<rect x="38" y="22" width="2" height="2" fill="#5E3A2C" />
<rect x="40" y="22" width="2" height="2" fill="#100D14" />
<rect x="42" y="22" width="2" height="2" fill="#100D14" />
<rect x="44" y="22" width="2" height="2" fill="#2F2D32" />
<rect x="46" y="22" width="2" height="2" fill="#2C2B31" />
<rect x="48" y="22" width="2" height="2" fill="#22222A" />
<rect x="52" y="22" width="2" height="2" fill="#252C34" />
<rect x="54" y="22" width="2" height="2" fill="#00030E" />
<rect x="0" y="24" width="2" height="2" fill="#0F0305" />
<rect x="2" y="24" width="2" height="2" fill="#58362A" />
<rect x="4" y="24" width="2" height="2" fill="#5B3020" />
<rect x="6" y="24" width="2" height="2" fill="#562E22" />
<rect x="8" y="24" width="2" height="2" fill="#0F0000" />
<rect x="10" y="24" width="2" height="2" fill="#0F0000" />
<rect x="12" y="24" width="2" height="2" fill="#583F3A" />
<rect x="14" y="24" width="2" height="2" fill="#38201C" />
<rect x="16" y="24" width="2" height="2" fill="#18181A" />
<rect x="18" y="24" width="2" height="2" fill="#13181E" />
<rect x="20" y="24" width="2" height="2" fill="#16191E" />
<rect x="22" y="24" width="2" height="2" fill="#1D2527" />
<rect x="24" y="24" width="2" height="2" fill="#969EA1" />
<rect x="26" y="24" width="2" height="2" fill="#969EA1" />
<rect x="28" y="24" width="2" height="2" fill="#969EA1" />
<rect x="30" y="24" width="2" height="2" fill="#11151E" />
<rect x="32" y="24" width="2" height="2" fill="#211C22" />
<rect x="34" y="24" width="2" height="2" fill="#26171A" />
<rect x="36" y="24" width="2" height="2" fill="#7C4433" />
<rect x="38" y="24" width="2" height="2" fill="#7C4433" />
<rect x="40" y="24" width="2" height="2" fill="#7C4433" />
<rect x="42" y="24" width="2" height="2" fill="#7C4433" />
<rect x="44" y="24" width="2" height="2" fill="#332E32" />
<rect x="46" y="24" width="2" height="2" fill="#18161B" />
<rect x="48" y="24" width="2" height="2" fill="#2C2B31" />
<rect x="50" y="24" width="2" height="2" fill="#181B22" />
<rect x="52" y="24" width="2" height="2" fill="#383B40" />
<rect x="54" y="24" width="2" height="2" fill="#000005" />
<rect x="58" y="24" width="2" height="2" fill="#080D11" />
<rect x="60" y="24" width="2" height="2" fill="#080F17" />
<rect x="0" y="26" width="2" height="2" fill="#140907" />
<rect x="2" y="26" width="2" height="2" fill="#75452E" />
<rect x="4" y="26" width="2" height="2" fill="#814D37" />
<rect x="6" y="26" width="2" height="2" fill="#814D37" />
<rect x="8" y="26" width="2" height="2" fill="#814D37" />
<rect x="10" y="26" width="2" height="2" fill="#814D37" />
<rect x="12" y="26" width="2" height="2" fill="#814D37" />
<rect x="14" y="26" width="2" height="2" fill="#4D3022" />
<rect x="16" y="26" width="2" height="2" fill="#353638" />
<rect x="18" y="26" width="2" height="2" fill="#2F3438" />
<rect x="20" y="26" width="2" height="2" fill="#4A4B4F" />
<rect x="22" y="26" width="2" height="2" fill="#4D5154" />
<rect x="24" y="26" width="2" height="2" fill="#969EA1" />
<rect x="26" y="26" width="2" height="2" fill="#969EA1" />
<rect x="28" y="26" width="2" height="2" fill="#969EA1" />
<rect x="30" y="26" width="2" height="2" fill="#291D1D" />
<rect x="32" y="26" width="2" height="2" fill="#522717" />
<rect x="34" y="26" width="2" height="2" fill="#522717" />
<rect x="36" y="26" width="2" height="2" fill="#522717" />
<rect x="38" y="26" width="2" height="2" fill="#522717" />
<rect x="40" y="26" width="2" height="2" fill="#522717" />
<rect x="42" y="26" width="2" height="2" fill="#522717" />
<rect x="44" y="26" width="2" height="2" fill="#2F2E33" />
<rect x="46" y="26" width="2" height="2" fill="#5F5F67" />
<rect x="48" y="26" width="2" height="2" fill="#5F5F67" />
<rect x="50" y="26" width="2" height="2" fill="#5F5F67" />
<rect x="52" y="26" width="2" height="2" fill="#5F5F67" />
<rect x="54" y="26" width="2" height="2" fill="#111015" />
<rect x="56" y="26" width="2" height="2" fill="#232824" />
<rect x="58" y="26" width="2" height="2" fill="#232824" />
<rect x="60" y="26" width="2" height="2" fill="#232824" />
<rect x="0" y="28" width="2" height="2" fill="#171017" />
<rect x="2" y="28" width="2" height="2" fill="#815343" />
<rect x="4" y="28" width="2" height="2" fill="#814D37" />
<rect x="6" y="28" width="2" height="2" fill="#814D37" />
<rect x="8" y="28" width="2" height="2" fill="#7D4F38" />
<rect x="10" y="28" width="2" height="2" fill="#814D37" />
<rect x="12" y="28" width="2" height="2" fill="#814D37" />
<rect x="14" y="28" width="2" height="2" fill="#3A2723" />
<rect x="16" y="28" width="2" height="2" fill="#1B1F22" />
<rect x="18" y="28" width="2" height="2" fill="#2F3438" />
<rect x="20" y="28" width="2" height="2" fill="#303032" />
<rect x="22" y="28" width="2" height="2" fill="#28292D" />
<rect x="24" y="28" width="2" height="2" fill="#2E2F33" />
<rect x="26" y="28" width="2" height="2" fill="#2E2F33" />
<rect x="28" y="28" width="2" height="2" fill="#1C1D21" />
<rect x="30" y="28" width="2" height="2" fill="#1C1010" />
<rect x="32" y="28" width="2" height="2" fill="#522717" />
<rect x="34" y="28" width="2" height="2" fill="#7F4B3D" />
<rect x="36" y="28" width="2" height="2" fill="#7B4D40" />
<rect x="38" y="28" width="2" height="2" fill="#7F4B3D" />
<rect x="40" y="28" width="2" height="2" fill="#7A4E41" />
<rect x="42" y="28" width="2" height="2" fill="#522717" />
<rect x="44" y="28" width="2" height="2" fill="#2C2E2D" />
<rect x="46" y="28" width="2" height="2" fill="#3C3D3F" />
<rect x="48" y="28" width="2" height="2" fill="#36373B" />
<rect x="50" y="28" width="2" height="2" fill="#36373B" />
<rect x="52" y="28" width="2" height="2" fill="#343537" />
<rect x="54" y="28" width="2" height="2" fill="#1B1C1E" />
<rect x="56" y="28" width="2" height="2" fill="#191A1C" />
<rect x="58" y="28" width="2" height="2" fill="#232824" />
<rect x="60" y="28" width="2" height="2" fill="#232824" />
<rect x="0" y="30" width="2" height="2" fill="#100D14" />
<rect x="2" y="30" width="2" height="2" fill="#502E25" />
<rect x="4" y="30" width="2" height="2" fill="#814D37" />
<rect x="6" y="30" width="2" height="2" fill="#814D37" />
<rect x="8" y="30" width="2" height="2" fill="#814D37" />
<rect x="10" y="30" width="2" height="2" fill="#814D37" />
<rect x="12" y="30" width="2" height="2" fill="#14050A" />
<rect x="14" y="30" width="2" height="2" fill="#0A0005" />
<rect x="16" y="30" width="2" height="2" fill="#1B1821" />
<rect x="18" y="30" width="2" height="2" fill="#16131A" />
<rect x="20" y="30" width="2" height="2" fill="#08080A" />
<rect x="22" y="30" width="2" height="2" fill="#313236" />
<rect x="24" y="30" width="2" height="2" fill="#313236" />
<rect x="26" y="30" width="2" height="2" fill="#313236" />
<rect x="28" y="30" width="2" height="2" fill="#583A2F" />
<rect x="30" y="30" width="2" height="2" fill="#583A2F" />
<rect x="32" y="30" width="2" height="2" fill="#522717" />
<rect x="34" y="30" width="2" height="2" fill="#522717" />
<rect x="36" y="30" width="2" height="2" fill="#522717" />
<rect x="38" y="30" width="2" height="2" fill="#522717" />
<rect x="40" y="30" width="2" height="2" fill="#522717" />
<rect x="42" y="30" width="2" height="2" fill="#522717" />
<rect x="44" y="30" width="2" height="2" fill="#070D19" />
<rect x="46" y="30" width="2" height="2" fill="#1B1E2D" />
<rect x="48" y="30" width="2" height="2" fill="#00000D" />
<rect x="50" y="30" width="2" height="2" fill="#00010D" />
<rect x="52" y="30" width="2" height="2" fill="#00040F" />
<rect x="54" y="30" width="2" height="2" fill="#00010D" />
<rect x="56" y="30" width="2" height="2" fill="#00010D" />
<rect x="58" y="30" width="2" height="2" fill="#020411" />
<rect x="60" y="30" width="2" height="2" fill="#00040E" />
<rect x="2" y="32" width="2" height="2" fill="#100D14" />
<rect x="4" y="32" width="2" height="2" fill="#4C302D" />
<rect x="6" y="32" width="2" height="2" fill="#362629" />
<rect x="8" y="32" width="2" height="2" fill="#080000" />
<rect x="10" y="32" width="2" height="2" fill="#0B050F" />
<rect x="14" y="32" width="2" height="2" fill="#1A0A0D" />
<rect x="16" y="32" width="2" height="2" fill="#271217" />
<rect x="18" y="32" width="2" height="2" fill="#211517" />
<rect x="20" y="32" width="2" height="2" fill="#19181D" />
<rect x="22" y="32" width="2" height="2" fill="#1C1D21" />
<rect x="24" y="32" width="2" height="2" fill="#53565B" />
<rect x="26" y="32" width="2" height="2" fill="#525357" />
<rect x="28" y="32" width="2" height="2" fill="#583A2F" />
<rect x="30" y="32" width="2" height="2" fill="#583A2F" />
<rect x="32" y="32" width="2" height="2" fill="#00000D" />
<rect x="34" y="32" width="2" height="2" fill="#00000D" />
<rect x="36" y="32" width="2" height="2" fill="#00000D" />
<rect x="38" y="32" width="2" height="2" fill="#00000D" />
<rect x="40" y="32" width="2" height="2" fill="#00000D" />
<rect x="42" y="32" width="2" height="2" fill="#00000D" />
<rect x="2" y="34" width="2" height="2" fill="#100D14" />
<rect x="4" y="34" width="2" height="2" fill="#100D14" />
<rect x="6" y="34" width="2" height="2" fill="#100D14" />
<rect x="12" y="34" width="2" height="2" fill="#1A0A0D" />
<rect x="14" y="34" width="2" height="2" fill="#4F2D2C" />
<rect x="16" y="34" width="2" height="2" fill="#4F2D2C" />
<rect x="18" y="34" width="2" height="2" fill="#3C292B" />
<rect x="20" y="34" width="2" height="2" fill="#07080D" />
<rect x="22" y="34" width="2" height="2" fill="#0F1014" />
<rect x="24" y="34" width="2" height="2" fill="#53565B" />
<rect x="26" y="34" width="2" height="2" fill="#525357" />
<rect x="28" y="34" width="2" height="2" fill="#06070B" />
<rect x="30" y="34" width="2" height="2" fill="#03060B" />
<rect x="32" y="34" width="2" height="2" fill="#02020E" />
<rect x="14" y="36" width="2" height="2" fill="#1A0A0D" />
<rect x="16" y="36" width="2" height="2" fill="#4F3534" />
<rect x="18" y="36" width="2" height="2" fill="#1C171E" />
<rect x="22" y="36" width="2" height="2" fill="#070E18" />
<rect x="24" y="36" width="2" height="2" fill="#2B2F30" />
<rect x="26" y="36" width="2" height="2" fill="#53565B" />
<rect x="28" y="36" width="2" height="2" fill="#52555C" />
<rect x="30" y="36" width="2" height="2" fill="#53565B" />
<rect x="32" y="36" width="2" height="2" fill="#53565B" />
<rect x="34" y="36" width="2" height="2" fill="#02020E" />
<rect x="16" y="38" width="2" height="2" fill="#030009" />
<rect x="22" y="38" width="2" height="2" fill="#070E18" />
<rect x="24" y="38" width="2" height="2" fill="#2B2F30" />
<rect x="26" y="38" width="2" height="2" fill="#2B2F30" />
<rect x="28" y="38" width="2" height="2" fill="#53565B" />
<rect x="30" y="38" width="2" height="2" fill="#555259" />
<rect x="32" y="38" width="2" height="2" fill="#02020E" />
<rect x="24" y="40" width="2" height="2" fill="#070E18" />
<rect x="26" y="40" width="2" height="2" fill="#2B2F30" />
<rect x="28" y="40" width="2" height="2" fill="#2E2F33" />
<rect x="30" y="40" width="2" height="2" fill="#02020E" />
<rect x="26" y="42" width="2" height="2" fill="#0D1019" />
<rect x="28" y="42" width="2" height="2" fill="#06060E" />
</svg>