<?xml version="1.0" encoding="UTF-8" ?>
<svg version="1.1" width="64" height="64" xmlns="http://www.w3.org/2000/svg" shape-rendering="crispEdges">
<rect x="30" y="14" width="2" height="2" fill="#11151E" />
<rect x="32" y="14" width="2" height="2" fill="#161221" />
<rect x="34" y="14" width="2" height="2" fill="#161221" />
<rect x="36" y="14" width="2" height="2" fill="#1B1726" />
<rect x="38" y="14" width="2" height="2" fill="#13111F" />
<rect x="40" y="14" width="2" height="2" fill="#161825" />
<rect x="28" y="16" width="2" height="2" fill="#131D1E" />
<rect x="30" y="16" width="2" height="2" fill="#6A707E" />
<rect x="32" y="16" width="2" height="2" fill="#6A7080" />
<rect x="34" y="16" width="2" height="2" fill="#6A6F82" />
<rect x="36" y="16" width="2" height="2" fill="#686F81" />
<rect x="38" y="16" width="2" height="2" fill="#505767" />
<rect x="40" y="16" width="2" height="2" fill="#2C2D41" />
<rect x="42" y="16" width="2" height="2" fill="#131915" />
<rect x="26" y="18" width="2" height="2" fill="#1A1921" />
<rect x="28" y="18" width="2" height="2" fill="#11111D" />
<rect x="30" y="18" width="2" height="2" fill="#C6CAD6" />
<rect x="32" y="18" width="2" height="2" fill="#C9C8D8" />
<rect x="34" y="18" width="2" height="2" fill="#C6C9DC" />
<rect x="36" y="18" width="2" height="2" fill="#C6C9DC" />
<rect x="38" y="18" width="2" height="2" fill="#C6C9DC" />
<rect x="40" y="18" width="2" height="2" fill="#4E4864" />
<rect x="42" y="18" width="2" height="2" fill="#18142D" />
<rect x="44" y="18" width="2" height="2" fill="#161920" />
<rect x="22" y="20" width="2" height="2" fill="#0F1A16" />
<rect x="24" y="20" width="2" height="2" fill="#111224" />
<rect x="26" y="20" width="2" height="2" fill="#9E99AD" />
<rect x="28" y="20" width="2" height="2" fill="#9E99AD" />
<rect x="30" y="20" width="2" height="2" fill="#E34041" />
<rect x="32" y="20" width="2" height="2" fill="#E34041" />
<rect x="34" y="20" width="2" height="2" fill="#E34041" />
<rect x="36" y="20" width="2" height="2" fill="#E34041" />
<rect x="38" y="20" width="2" height="2" fill="#E34041" />
<rect x="40" y="20" width="2" height="2" fill="#FC707B" />
<rect x="42" y="20" width="2" height="2" fill="#5C5869" />
<rect x="44" y="20" width="2" height="2" fill="#5C5869" />
<rect x="46" y="20" width="2" height="2" fill="#16101A" />
<rect x="48" y="20" width="2" height="2" fill="#071810" />
<rect x="22" y="22" width="2" height="2" fill="#171228" />
<rect x="24" y="22" width="2" height="2" fill="#10102C" />
<rect x="26" y="22" width="2" height="2" fill="#9E99AD" />
<rect x="28" y="22" width="2" height="2" fill="#9E99AD" />
<rect x="30" y="22" width="2" height="2" fill="#E34041" />
<rect x="32" y="22" width="2" height="2" fill="#E34041" />
<rect x="34" y="22" width="2" height="2" fill="#E34041" />
<rect x="36" y="22" width="2" height="2" fill="#E34041" />
<rect x="38" y="22" width="2" height="2" fill="#E34041" />
<rect x="40" y="22" width="2" height="2" fill="#FC707B" />
<rect x="42" y="22" width="2" height="2" fill="#5C5869" />
<rect x="44" y="22" width="2" height="2" fill="#5C5869" />
<rect x="46" y="22" width="2" height="2" fill="#181327" />
<rect x="48" y="22" width="2" height="2" fill="#0B151E" />
<rect x="18" y="24" width="2" height="2" fill="#0F1417" />
<rect x="20" y="24" width="2" height="2" fill="#171628" />
<rect x="22" y="24" width="2" height="2" fill="#9E99AD" />
<rect x="24" y="24" width="2" height="2" fill="#9E99AD" />
<rect x="26" y="24" width="2" height="2" fill="#E33D47" />
<rect x="28" y="24" width="2" height="2" fill="#E33D47" />
<rect x="30" y="24" width="2" height="2" fill="#CB2F3A" />
<rect x="32" y="24" width="2" height="2" fill="#CB2F3A" />
<rect x="34" y="24" width="2" height="2" fill="#FF716F" />
<rect x="36" y="24" width="2" height="2" fill="#FC707B" />
<rect x="38" y="24" width="2" height="2" fill="#FC707B" />
<rect x="40" y="24" width="2" height="2" fill="#FC707B" />
<rect x="42" y="24" width="2" height="2" fill="#FC707B" />
<rect x="44" y="24" width="2" height="2" fill="#FC707B" />
<rect x="46" y="24" width="2" height="2" fill="#5C5869" />
<rect x="48" y="24" width="2" height="2" fill="#5C5869" />
<rect x="50" y="24" width="2" height="2" fill="#18171C" />
<rect x="18" y="26" width="2" height="2" fill="#161729" />
<rect x="20" y="26" width="2" height="2" fill="#06091A" />
<rect x="22" y="26" width="2" height="2" fill="#9E99AD" />
<rect x="24" y="26" width="2" height="2" fill="#9E99AD" />
<rect x="26" y="26" width="2" height="2" fill="#E33D47" />
<rect x="28" y="26" width="2" height="2" fill="#E33D47" />
<rect x="30" y="26" width="2" height="2" fill="#CB2F3A" />
<rect x="32" y="26" width="2" height="2" fill="#CB2F3A" />
<rect x="34" y="26" width="2" height="2" fill="#F67476" />
<rect x="36" y="26" width="2" height="2" fill="#F67476" />
<rect x="38" y="26" width="2" height="2" fill="#F67476" />
<rect x="40" y="26" width="2" height="2" fill="#F67476" />
<rect x="42" y="26" width="2" height="2" fill="#FC707B" />
<rect x="44" y="26" width="2" height="2" fill="#FC707B" />
<rect x="46" y="26" width="2" height="2" fill="#5C5869" />
<rect x="48" y="26" width="2" height="2" fill="#5C5869" />
<rect x="50" y="26" width="2" height="2" fill="#171522" />
<rect x="14" y="28" width="2" height="2" fill="#161719" />
<rect x="16" y="28" width="2" height="2" fill="#110F1C" />
<rect x="18" y="28" width="2" height="2" fill="#BDCAD3" />
<rect x="20" y="28" width="2" height="2" fill="#D0C5CD" />
<rect x="22" y="28" width="2" height="2" fill="#D88098" />
<rect x="24" y="28" width="2" height="2" fill="#F97489" />
<rect x="26" y="28" width="2" height="2" fill="#F67476" />
<rect x="28" y="28" width="2" height="2" fill="#F67476" />
<rect x="30" y="28" width="2" height="2" fill="#F67476" />
<rect x="32" y="28" width="2" height="2" fill="#F67476" />
<rect x="34" y="28" width="2" height="2" fill="#E73D4A" />
<rect x="36" y="28" width="2" height="2" fill="#E63A48" />
<rect x="38" y="28" width="2" height="2" fill="#E7404A" />
<rect x="40" y="28" width="2" height="2" fill="#E03B41" />
<rect x="42" y="28" width="2" height="2" fill="#E83F42" />
<rect x="44" y="28" width="2" height="2" fill="#E73648" />
<rect x="46" y="28" width="2" height="2" fill="#E13D60" />
<rect x="48" y="28" width="2" height="2" fill="#86304B" />
<rect x="50" y="28" width="2" height="2" fill="#1A1720" />
<rect x="14" y="30" width="2" height="2" fill="#130D17" />
<rect x="16" y="30" width="2" height="2" fill="#1C1B29" />
<rect x="18" y="30" width="2" height="2" fill="#CEC8D2" />
<rect x="20" y="30" width="2" height="2" fill="#E0C1C6" />
<rect x="22" y="30" width="2" height="2" fill="#E18592" />
<rect x="24" y="30" width="2" height="2" fill="#F7717C" />
<rect x="26" y="30" width="2" height="2" fill="#F67476" />
<rect x="28" y="30" width="2" height="2" fill="#FA7377" />
<rect x="30" y="30" width="2" height="2" fill="#F67379" />
<rect x="32" y="30" width="2" height="2" fill="#FA7475" />
<rect x="34" y="30" width="2" height="2" fill="#EA3A47" />
<rect x="36" y="30" width="2" height="2" fill="#E03A48" />
<rect x="38" y="30" width="2" height="2" fill="#E4394B" />
<rect x="40" y="30" width="2" height="2" fill="#DE3940" />
<rect x="42" y="30" width="2" height="2" fill="#E43949" />
<rect x="44" y="30" width="2" height="2" fill="#E33C44" />
<rect x="46" y="30" width="2" height="2" fill="#E63C45" />
<rect x="48" y="30" width="2" height="2" fill="#88323D" />
<rect x="50" y="30" width="2" height="2" fill="#1A152B" />
<rect x="10" y="32" width="2" height="2" fill="#142618" />
<rect x="12" y="32" width="2" height="2" fill="#141D22" />
<rect x="14" y="32" width="2" height="2" fill="#C9CEE1" />
<rect x="16" y="32" width="2" height="2" fill="#C5C7DC" />
<rect x="18" y="32" width="2" height="2" fill="#BC4C5C" />
<rect x="20" y="32" width="2" height="2" fill="#D84650" />
<rect x="22" y="32" width="2" height="2" fill="#DC3F46" />
<rect x="24" y="32" width="2" height="2" fill="#DF3C3F" />
<rect x="26" y="32" width="2" height="2" fill="#E43A43" />
<rect x="28" y="32" width="2" height="2" fill="#DD3944" />
<rect x="30" y="32" width="2" height="2" fill="#F97278" />
<rect x="32" y="32" width="2" height="2" fill="#FE7275" />
<rect x="34" y="32" width="2" height="2" fill="#E33D49" />
<rect x="36" y="32" width="2" height="2" fill="#DA3845" />
<rect x="38" y="32" width="2" height="2" fill="#D13341" />
<rect x="40" y="32" width="2" height="2" fill="#D03038" />
<rect x="42" y="32" width="2" height="2" fill="#CF2F39" />
<rect x="44" y="32" width="2" height="2" fill="#D8393E" />
<rect x="46" y="32" width="2" height="2" fill="#E13A4B" />
<rect x="48" y="32" width="2" height="2" fill="#AB6170" />
<rect x="50" y="32" width="2" height="2" fill="#B9C5DD" />
<rect x="52" y="32" width="2" height="2" fill="#131925" />
<rect x="54" y="32" width="2" height="2" fill="#111A19" />
<rect x="10" y="34" width="2" height="2" fill="#091219" />
<rect x="12" y="34" width="2" height="2" fill="#131426" />
<rect x="14" y="34" width="2" height="2" fill="#DFC0CF" />
<rect x="16" y="34" width="2" height="2" fill="#E2B9C1" />
<rect x="18" y="34" width="2" height="2" fill="#CF444B" />
<rect x="20" y="34" width="2" height="2" fill="#E53A40" />
<rect x="22" y="34" width="2" height="2" fill="#E93F42" />
<rect x="24" y="34" width="2" height="2" fill="#EB3E44" />
<rect x="26" y="34" width="2" height="2" fill="#DE3D45" />
<rect x="28" y="34" width="2" height="2" fill="#D73B46" />
<rect x="30" y="34" width="2" height="2" fill="#FF6F74" />
<rect x="32" y="34" width="2" height="2" fill="#FF7175" />
<rect x="34" y="34" width="2" height="2" fill="#D94249" />
<rect x="36" y="34" width="2" height="2" fill="#D83E48" />
<rect x="38" y="34" width="2" height="2" fill="#CE323D" />
<rect x="40" y="34" width="2" height="2" fill="#CA2E39" />
<rect x="42" y="34" width="2" height="2" fill="#C92732" />
<rect x="44" y="34" width="2" height="2" fill="#D83842" />
<rect x="46" y="34" width="2" height="2" fill="#E83A51" />
<rect x="48" y="34" width="2" height="2" fill="#AE5F72" />
<rect x="50" y="34" width="2" height="2" fill="#B9C5DD" />
<rect x="52" y="34" width="2" height="2" fill="#13111F" />
<rect x="54" y="34" width="2" height="2" fill="#161419" />
<rect x="6" y="36" width="2" height="2" fill="#131C1B" />
<rect x="8" y="36" width="2" height="2" fill="#15141C" />
<rect x="10" y="36" width="2" height="2" fill="#7D7E90" />
<rect x="12" y="36" width="2" height="2" fill="#C0C9D8" />
<rect x="14" y="36" width="2" height="2" fill="#E53D4A" />
<rect x="16" y="36" width="2" height="2" fill="#E43E54" />
<rect x="18" y="36" width="2" height="2" fill="#CB343D" />
<rect x="20" y="36" width="2" height="2" fill="#CF323B" />
<rect x="22" y="36" width="2" height="2" fill="#E43E48" />
<rect x="24" y="36" width="2" height="2" fill="#E23845" />
<rect x="26" y="36" width="2" height="2" fill="#F76C71" />
<rect x="28" y="36" width="2" height="2" fill="#F87177" />
<rect x="30" y="36" width="2" height="2" fill="#DF3D48" />
<rect x="32" y="36" width="2" height="2" fill="#D93E44" />
<rect x="34" y="36" width="2" height="2" fill="#F67677" />
<rect x="36" y="36" width="2" height="2" fill="#FA7576" />
<rect x="38" y="36" width="2" height="2" fill="#FC7579" />
<rect x="40" y="36" width="2" height="2" fill="#F25160" />
<rect x="42" y="36" width="2" height="2" fill="#E83B41" />
<rect x="44" y="36" width="2" height="2" fill="#E53C41" />
<rect x="46" y="36" width="2" height="2" fill="#E9384A" />
<rect x="48" y="36" width="2" height="2" fill="#C6727F" />
<rect x="50" y="36" width="2" height="2" fill="#B9C5DD" />
<rect x="52" y="36" width="2" height="2" fill="#181623" />
<rect x="54" y="36" width="2" height="2" fill="#17141D" />
<rect x="6" y="38" width="2" height="2" fill="#151724" />
<rect x="8" y="38" width="2" height="2" fill="#191524" />
<rect x="10" y="38" width="2" height="2" fill="#838697" />
<rect x="12" y="38" width="2" height="2" fill="#BFCDD8" />
<rect x="14" y="38" width="2" height="2" fill="#E53D4A" />
<rect x="16" y="38" width="2" height="2" fill="#E73E45" />
<rect x="18" y="38" width="2" height="2" fill="#CE2C39" />
<rect x="20" y="38" width="2" height="2" fill="#CC2B3A" />
<rect x="22" y="38" width="2" height="2" fill="#E24452" />
<rect x="24" y="38" width="2" height="2" fill="#E24651" />
<rect x="26" y="38" width="2" height="2" fill="#FF787C" />
<rect x="28" y="38" width="2" height="2" fill="#FF7477" />
<rect x="30" y="38" width="2" height="2" fill="#E33C43" />
<rect x="32" y="38" width="2" height="2" fill="#E6424B" />
<rect x="34" y="38" width="2" height="2" fill="#F87376" />
<rect x="36" y="38" width="2" height="2" fill="#F56D6F" />
<rect x="38" y="38" width="2" height="2" fill="#FF7376" />
<rect x="40" y="38" width="2" height="2" fill="#D65B60" />
<rect x="42" y="38" width="2" height="2" fill="#BF4C51" />
<rect x="44" y="38" width="2" height="2" fill="#C04B54" />
<rect x="46" y="38" width="2" height="2" fill="#BE4B58" />
<rect x="48" y="38" width="2" height="2" fill="#BA8692" />
<rect x="50" y="38" width="2" height="2" fill="#B9C5DD" />
<rect x="52" y="38" width="2" height="2" fill="#121622" />
<rect x="54" y="38" width="2" height="2" fill="#16141F" />
<rect x="6" y="40" width="2" height="2" fill="#101721" />
<rect x="8" y="40" width="2" height="2" fill="#1A1221" />
<rect x="10" y="40" width="2" height="2" fill="#838496" />
<rect x="12" y="40" width="2" height="2" fill="#BFCDDA" />
<rect x="14" y="40" width="2" height="2" fill="#E53D4A" />
<rect x="16" y="40" width="2" height="2" fill="#E53D4A" />
<rect x="18" y="40" width="2" height="2" fill="#E43942" />
<rect x="20" y="40" width="2" height="2" fill="#DC3B41" />
<rect x="22" y="40" width="2" height="2" fill="#F96E71" />
<rect x="24" y="40" width="2" height="2" fill="#FC7677" />
<rect x="26" y="40" width="2" height="2" fill="#DC3B43" />
<rect x="28" y="40" width="2" height="2" fill="#E73D46" />
<rect x="30" y="40" width="2" height="2" fill="#E2373F" />
<rect x="32" y="40" width="2" height="2" fill="#E23845" />
<rect x="34" y="40" width="2" height="2" fill="#E63748" />
<rect x="36" y="40" width="2" height="2" fill="#E23B45" />
<rect x="38" y="40" width="2" height="2" fill="#E63A4A" />
<rect x="40" y="40" width="2" height="2" fill="#CC9487" />
<rect x="42" y="40" width="2" height="2" fill="#C2CBD2" />
<rect x="44" y="40" width="2" height="2" fill="#BFCADC" />
<rect x="46" y="40" width="2" height="2" fill="#C6C8D5" />
<rect x="48" y="40" width="2" height="2" fill="#B9C5DD" />
<rect x="50" y="40" width="2" height="2" fill="#B9C5DD" />
<rect x="52" y="40" width="2" height="2" fill="#151924" />
<rect x="54" y="40" width="2" height="2" fill="#16141F" />
<rect x="6" y="42" width="2" height="2" fill="#151A20" />
<rect x="8" y="42" width="2" height="2" fill="#151122" />
<rect x="10" y="42" width="2" height="2" fill="#7A7A92" />
<rect x="12" y="42" width="2" height="2" fill="#BFCDDA" />
<rect x="14" y="42" width="2" height="2" fill="#E53D4A" />
<rect x="16" y="42" width="2" height="2" fill="#E13E41" />
<rect x="18" y="42" width="2" height="2" fill="#E04042" />
<rect x="20" y="42" width="2" height="2" fill="#DB444D" />
<rect x="22" y="42" width="2" height="2" fill="#E9747A" />
<rect x="24" y="42" width="2" height="2" fill="#EA8188" />
<rect x="26" y="42" width="2" height="2" fill="#C84555" />
<rect x="28" y="42" width="2" height="2" fill="#CB4D58" />
<rect x="30" y="42" width="2" height="2" fill="#CC4458" />
<rect x="32" y="42" width="2" height="2" fill="#C03948" />
<rect x="34" y="42" width="2" height="2" fill="#CC4951" />
<rect x="36" y="42" width="2" height="2" fill="#C4454E" />
<rect x="38" y="42" width="2" height="2" fill="#D1485C" />
<rect x="40" y="42" width="2" height="2" fill="#C19093" />
<rect x="42" y="42" width="2" height="2" fill="#C4CDDC" />
<rect x="44" y="42" width="2" height="2" fill="#BBCCDC" />
<rect x="46" y="42" width="2" height="2" fill="#C1C9DC" />
<rect x="48" y="42" width="2" height="2" fill="#B9C5DD" />
<rect x="50" y="42" width="2" height="2" fill="#B9C5DD" />
<rect x="52" y="42" width="2" height="2" fill="#171B27" />
<rect x="54" y="42" width="2" height="2" fill="#161620" />
<rect x="6" y="44" width="2" height="2" fill="#0C1A1B" />
<rect x="8" y="44" width="2" height="2" fill="#161523" />
<rect x="10" y="44" width="2" height="2" fill="#616277" />
<rect x="12" y="44" width="2" height="2" fill="#BFCDDA" />
<rect x="14" y="44" width="2" height="2" fill="#F8767E" />
<rect x="16" y="44" width="2" height="2" fill="#F8767E" />
<rect x="18" y="44" width="2" height="2" fill="#F7767B" />
<rect x="20" y="44" width="2" height="2" fill="#EA7C89" />
<rect x="22" y="44" width="2" height="2" fill="#DEBABE" />
<rect x="24" y="44" width="2" height="2" fill="#C4CADA" />
<rect x="26" y="44" width="2" height="2" fill="#B9C5DD" />
<rect x="28" y="44" width="2" height="2" fill="#B9C5DD" />
<rect x="30" y="44" width="2" height="2" fill="#B9C5DD" />
<rect x="32" y="44" width="2" height="2" fill="#B9C5DD" />
<rect x="34" y="44" width="2" height="2" fill="#C4C5D9" />
<rect x="36" y="44" width="2" height="2" fill="#B9C5DD" />
<rect x="38" y="44" width="2" height="2" fill="#B9C5DD" />
<rect x="40" y="44" width="2" height="2" fill="#B9C5DD" />
<rect x="42" y="44" width="2" height="2" fill="#B9C5DD" />
<rect x="44" y="44" width="2" height="2" fill="#B9C5DD" />
<rect x="46" y="44" width="2" height="2" fill="#566880" />
<rect x="48" y="44" width="2" height="2" fill="#5C698B" />
<rect x="50" y="44" width="2" height="2" fill="#556684" />
<rect x="52" y="44" width="2" height="2" fill="#161328" />
<rect x="54" y="44" width="2" height="2" fill="#17161E" />
<rect x="6" y="46" width="2" height="2" fill="#141B21" />
<rect x="8" y="46" width="2" height="2" fill="#161523" />
<rect x="10" y="46" width="2" height="2" fill="#5E627B" />
<rect x="12" y="46" width="2" height="2" fill="#BFCDDA" />
<rect x="14" y="46" width="2" height="2" fill="#F8767E" />
<rect x="16" y="46" width="2" height="2" fill="#F8767E" />
<rect x="18" y="46" width="2" height="2" fill="#F8767E" />
<rect x="20" y="46" width="2" height="2" fill="#EA7C89" />
<rect x="22" y="46" width="2" height="2" fill="#AB9AAC" />
<rect x="24" y="46" width="2" height="2" fill="#C4CADA" />
<rect x="26" y="46" width="2" height="2" fill="#353A57" />
<rect x="28" y="46" width="2" height="2" fill="#373C59" />
<rect x="30" y="46" width="2" height="2" fill="#343851" />
<rect x="32" y="46" width="2" height="2" fill="#3D3F58" />
<rect x="34" y="46" width="2" height="2" fill="#919CB2" />
<rect x="36" y="46" width="2" height="2" fill="#919CB2" />
<rect x="38" y="46" width="2" height="2" fill="#919CB2" />
<rect x="40" y="46" width="2" height="2" fill="#919CB2" />
<rect x="42" y="46" width="2" height="2" fill="#7281A2" />
<rect x="44" y="46" width="2" height="2" fill="#58647E" />
<rect x="46" y="46" width="2" height="2" fill="#34394F" />
<rect x="48" y="46" width="2" height="2" fill="#383854" />
<rect x="50" y="46" width="2" height="2" fill="#373D55" />
<rect x="52" y="46" width="2" height="2" fill="#0B121C" />
<rect x="54" y="46" width="2" height="2" fill="#0D1C17" />
<rect x="6" y="48" width="2" height="2" fill="#101A1B" />
<rect x="8" y="48" width="2" height="2" fill="#12151E" />
<rect x="10" y="48" width="2" height="2" fill="#5A5F73" />
<rect x="12" y="48" width="2" height="2" fill="#BFCDDA" />
<rect x="14" y="48" width="2" height="2" fill="#BBCCDC" />
<rect x="16" y="48" width="2" height="2" fill="#C4CADA" />
<rect x="18" y="48" width="2" height="2" fill="#C4CADA" />
<rect x="20" y="48" width="2" height="2" fill="#C4CADA" />
<rect x="22" y="48" width="2" height="2" fill="#586180" />
<rect x="24" y="48" width="2" height="2" fill="#5A6581" />
<rect x="26" y="48" width="2" height="2" fill="#131129" />
<rect x="28" y="48" width="2" height="2" fill="#191627" />
<rect x="30" y="48" width="2" height="2" fill="#1E162D" />
<rect x="32" y="48" width="2" height="2" fill="#17132E" />
<rect x="34" y="48" width="2" height="2" fill="#5B6A87" />
<rect x="36" y="48" width="2" height="2" fill="#5B6A89" />
<rect x="38" y="48" width="2" height="2" fill="#5B6A89" />
<rect x="40" y="48" width="2" height="2" fill="#5B6A87" />
<rect x="42" y="48" width="2" height="2" fill="#566586" />
<rect x="44" y="48" width="2" height="2" fill="#32384E" />
<rect x="46" y="48" width="2" height="2" fill="#191523" />
<rect x="48" y="48" width="2" height="2" fill="#151223" />
<rect x="50" y="48" width="2" height="2" fill="#1B1926" />
<rect x="6" y="50" width="2" height="2" fill="#02180C" />
<rect x="8" y="50" width="2" height="2" fill="#0F1B17" />
<rect x="10" y="50" width="2" height="2" fill="#3A414B" />
<rect x="12" y="50" width="2" height="2" fill="#5F6281" />
<rect x="14" y="50" width="2" height="2" fill="#BFCDDA" />
<rect x="16" y="50" width="2" height="2" fill="#BFCDDA" />
<rect x="18" y="50" width="2" height="2" fill="#BFCDDA" />
<rect x="20" y="50" width="2" height="2" fill="#BFCDDA" />
<rect x="22" y="50" width="2" height="2" fill="#3B4560" />
<rect x="24" y="50" width="2" height="2" fill="#474C60" />
<rect x="26" y="50" width="2" height="2" fill="#0C1A1B" />
<rect x="28" y="50" width="2" height="2" fill="#0D1A13" />
<rect x="30" y="50" width="2" height="2" fill="#101C18" />
<rect x="32" y="50" width="2" height="2" fill="#19232C" />
<rect x="34" y="50" width="2" height="2" fill="#42485E" />
<rect x="36" y="50" width="2" height="2" fill="#424862" />
<rect x="38" y="50" width="2" height="2" fill="#414862" />
<rect x="40" y="50" width="2" height="2" fill="#41495E" />
<rect x="42" y="50" width="2" height="2" fill="#454A67" />
<rect x="44" y="50" width="2" height="2" fill="#202835" />
<rect x="46" y="50" width="2" height="2" fill="#11201B" />
<rect x="48" y="50" width="2" height="2" fill="#0C1C19" />
<rect x="50" y="50" width="2" height="2" fill="#0E1A16" />
<rect x="12" y="52" width="2" height="2" fill="#120F22" />
<rect x="14" y="52" width="2" height="2" fill="#586878" />
<rect x="16" y="52" width="2" height="2" fill="#5C6880" />
<rect x="18" y="52" width="2" height="2" fill="#5C6A84" />
<rect x="20" y="52" width="2" height="2" fill="#60687F" />
<rect x="22" y="52" width="2" height="2" fill="#13182C" />
<rect x="24" y="52" width="2" height="2" fill="#1A191F" />
<rect x="34" y="52" width="2" height="2" fill="#14171C" />
<rect x="36" y="52" width="2" height="2" fill="#171723" />
<rect x="38" y="52" width="2" height="2" fill="#1B1426" />
<rect x="40" y="52" width="2" height="2" fill="#181623" />
<rect x="42" y="52" width="2" height="2" fill="#191523" />
<rect x="44" y="52" width="2" height="2" fill="#0D1A13" />
<rect x="14" y="54" width="2" height="2" fill="#191F2F" />
<rect x="16" y="54" width="2" height="2" fill="#0D0D27" />
<rect x="18" y="54" width="2" height="2" fill="#0A0C21" />
<rect x="20" y="54" width="2" height="2" fill="#1A222D" />
<rect x="14" y="56" width="2" height="2" fill="#0E1619" />
<rect x="16" y="56" width="2" height="2" fill="#1A1823" />
<rect x="18" y="56" width="2" height="2" fill="#181621" />
<rect x="20" y="56" width="2" height="2" fill="#111D1D" />
</svg>