<?xml version="1.0" encoding="UTF-8" ?>
<svg version="1.1" width="64" height="64" xmlns="http://www.w3.org/2000/svg" shape-rendering="crispEdges">
<rect x="32" y="6" width="2" height="2" fill="#15221B" />
<rect x="34" y="6" width="2" height="2" fill="#111A19" />
<rect x="36" y="6" width="2" height="2" fill="#10181A" />
<rect x="38" y="6" width="2" height="2" fill="#10181A" />
<rect x="40" y="6" width="2" height="2" fill="#10181A" />
<rect x="42" y="6" width="2" height="2" fill="#10181A" />
<rect x="44" y="6" width="2" height="2" fill="#10181A" />
<rect x="46" y="6" width="2" height="2" fill="#10181A" />
<rect x="48" y="6" width="2" height="2" fill="#10181A" />
<rect x="50" y="6" width="2" height="2" fill="#0B1D0F" />
<rect x="32" y="8" width="2" height="2" fill="#1F1A1E" />
<rect x="34" y="8" width="2" height="2" fill="#18101D" />
<rect x="36" y="8" width="2" height="2" fill="#13111F" />
<rect x="38" y="8" width="2" height="2" fill="#161324" />
<rect x="40" y="8" width="2" height="2" fill="#181526" />
<rect x="42" y="8" width="2" height="2" fill="#161326" />
<rect x="44" y="8" width="2" height="2" fill="#141126" />
<rect x="46" y="8" width="2" height="2" fill="#161229" />
<rect x="48" y="8" width="2" height="2" fill="#141027" />
<rect x="50" y="8" width="2" height="2" fill="#140F23" />
<rect x="28" y="10" width="2" height="2" fill="#0A1916" />
<rect x="30" y="10" width="2" height="2" fill="#17201F" />
<rect x="32" y="10" width="2" height="2" fill="#FFF9FF" />
<rect x="34" y="10" width="2" height="2" fill="#FFF9FF" />
<rect x="36" y="10" width="2" height="2" fill="#8C97A9" />
<rect x="38" y="10" width="2" height="2" fill="#8C97A9" />
<rect x="40" y="10" width="2" height="2" fill="#C0CBDD" />
<rect x="42" y="10" width="2" height="2" fill="#C0CBDD" />
<rect x="44" y="10" width="2" height="2" fill="#353F58" />
<rect x="46" y="10" width="2" height="2" fill="#353F58" />
<rect x="48" y="10" width="2" height="2" fill="#606A85" />
<rect x="50" y="10" width="2" height="2" fill="#606A85" />
<rect x="52" y="10" width="2" height="2" fill="#182329" />
<rect x="54" y="10" width="2" height="2" fill="#0F1E17" />
<rect x="28" y="12" width="2" height="2" fill="#14171E" />
<rect x="30" y="12" width="2" height="2" fill="#0D0A11" />
<rect x="32" y="12" width="2" height="2" fill="#FFF9FF" />
<rect x="34" y="12" width="2" height="2" fill="#FFF9FF" />
<rect x="36" y="12" width="2" height="2" fill="#8C97A9" />
<rect x="38" y="12" width="2" height="2" fill="#8F9AAC" />
<rect x="40" y="12" width="2" height="2" fill="#C0CBDD" />
<rect x="42" y="12" width="2" height="2" fill="#C3CFE5" />
<rect x="44" y="12" width="2" height="2" fill="#414D65" />
<rect x="46" y="12" width="2" height="2" fill="#353F58" />
<rect x="48" y="12" width="2" height="2" fill="#606A85" />
<rect x="50" y="12" width="2" height="2" fill="#57677E" />
<rect x="52" y="12" width="2" height="2" fill="#111926" />
<rect x="54" y="12" width="2" height="2" fill="#13171A" />
<rect x="28" y="14" width="2" height="2" fill="#171523" />
<rect x="30" y="14" width="2" height="2" fill="#14111A" />
<rect x="32" y="14" width="2" height="2" fill="#FFFDFF" />
<rect x="34" y="14" width="2" height="2" fill="#FFF9FF" />
<rect x="36" y="14" width="2" height="2" fill="#909FB4" />
<rect x="38" y="14" width="2" height="2" fill="#8E9DB2" />
<rect x="40" y="14" width="2" height="2" fill="#C1D0E7" />
<rect x="42" y="14" width="2" height="2" fill="#BFCDE7" />
<rect x="44" y="14" width="2" height="2" fill="#33415B" />
<rect x="46" y="14" width="2" height="2" fill="#364461" />
<rect x="48" y="14" width="2" height="2" fill="#5C6A87" />
<rect x="50" y="14" width="2" height="2" fill="#596A86" />
<rect x="52" y="14" width="2" height="2" fill="#12142B" />
<rect x="54" y="14" width="2" height="2" fill="#15131E" />
<rect x="28" y="16" width="2" height="2" fill="#161525" />
<rect x="30" y="16" width="2" height="2" fill="#14131B" />
<rect x="32" y="16" width="2" height="2" fill="#FFFEFF" />
<rect x="34" y="16" width="2" height="2" fill="#F8FEFF" />
<rect x="36" y="16" width="2" height="2" fill="#8B97AD" />
<rect x="38" y="16" width="2" height="2" fill="#8E9AB0" />
<rect x="40" y="16" width="2" height="2" fill="#BFCBE3" />
<rect x="42" y="16" width="2" height="2" fill="#BECAE2" />
<rect x="44" y="16" width="2" height="2" fill="#38445E" />
<rect x="46" y="16" width="2" height="2" fill="#36415F" />
<rect x="48" y="16" width="2" height="2" fill="#5D6886" />
<rect x="50" y="16" width="2" height="2" fill="#5B6888" />
<rect x="52" y="16" width="2" height="2" fill="#12142D" />
<rect x="54" y="16" width="2" height="2" fill="#121420" />
<rect x="28" y="18" width="2" height="2" fill="#181425" />
<rect x="30" y="18" width="2" height="2" fill="#151318" />
<rect x="32" y="18" width="2" height="2" fill="#FFFFFD" />
<rect x="34" y="18" width="2" height="2" fill="#F7FEFF" />
<rect x="36" y="18" width="2" height="2" fill="#97A4B7" />
<rect x="38" y="18" width="2" height="2" fill="#99A6B9" />
<rect x="40" y="18" width="2" height="2" fill="#BCC8DE" />
<rect x="42" y="18" width="2" height="2" fill="#C2CEE6" />
<rect x="44" y="18" width="2" height="2" fill="#404C66" />
<rect x="46" y="18" width="2" height="2" fill="#434E6A" />
<rect x="48" y="18" width="2" height="2" fill="#596480" />
<rect x="50" y="18" width="2" height="2" fill="#5E6788" />
<rect x="52" y="18" width="2" height="2" fill="#12142D" />
<rect x="54" y="18" width="2" height="2" fill="#121420" />
<rect x="28" y="20" width="2" height="2" fill="#1B1227" />
<rect x="30" y="20" width="2" height="2" fill="#140F16" />
<rect x="32" y="20" width="2" height="2" fill="#FFFEFB" />
<rect x="34" y="20" width="2" height="2" fill="#F9FFFF" />
<rect x="36" y="20" width="2" height="2" fill="#C3D1DE" />
<rect x="38" y="20" width="2" height="2" fill="#B8C3D5" />
<rect x="40" y="20" width="2" height="2" fill="#C1CDDD" />
<rect x="42" y="20" width="2" height="2" fill="#BDC9DF" />
<rect x="44" y="20" width="2" height="2" fill="#5A6885" />
<rect x="46" y="20" width="2" height="2" fill="#5D6983" />
<rect x="48" y="20" width="2" height="2" fill="#5D6886" />
<rect x="50" y="20" width="2" height="2" fill="#5D6888" />
<rect x="52" y="20" width="2" height="2" fill="#13132B" />
<rect x="54" y="20" width="2" height="2" fill="#15131E" />
<rect x="28" y="22" width="2" height="2" fill="#0B191A" />
<rect x="30" y="22" width="2" height="2" fill="#151C22" />
<rect x="32" y="22" width="2" height="2" fill="#FFFBFF" />
<rect x="34" y="22" width="2" height="2" fill="#FFFAFF" />
<rect x="36" y="22" width="2" height="2" fill="#B8C3D5" />
<rect x="38" y="22" width="2" height="2" fill="#B8C3D5" />
<rect x="40" y="22" width="2" height="2" fill="#B8C3D5" />
<rect x="42" y="22" width="2" height="2" fill="#B8C3D5" />
<rect x="44" y="22" width="2" height="2" fill="#5D6886" />
<rect x="46" y="22" width="2" height="2" fill="#5D6886" />
<rect x="48" y="22" width="2" height="2" fill="#5D6886" />
<rect x="50" y="22" width="2" height="2" fill="#5D6886" />
<rect x="52" y="22" width="2" height="2" fill="#212832" />
<rect x="54" y="22" width="2" height="2" fill="#121D19" />
<rect x="32" y="24" width="2" height="2" fill="#25222D" />
<rect x="34" y="24" width="2" height="2" fill="#2C0E0C" />
<rect x="36" y="24" width="2" height="2" fill="#EE7943" />
<rect x="38" y="24" width="2" height="2" fill="#E1744B" />
<rect x="40" y="24" width="2" height="2" fill="#B25131" />
<rect x="42" y="24" width="2" height="2" fill="#AA4939" />
<rect x="44" y="24" width="2" height="2" fill="#AC4E46" />
<rect x="46" y="24" width="2" height="2" fill="#9F5748" />
<rect x="48" y="24" width="2" height="2" fill="#25111A" />
<rect x="50" y="24" width="2" height="2" fill="#15111F" />
<rect x="32" y="26" width="2" height="2" fill="#171928" />
<rect x="34" y="26" width="2" height="2" fill="#240F00" />
<rect x="36" y="26" width="2" height="2" fill="#EA801C" />
<rect x="38" y="26" width="2" height="2" fill="#E47A26" />
<rect x="40" y="26" width="2" height="2" fill="#BE4808" />
<rect x="42" y="26" width="2" height="2" fill="#C04B1F" />
<rect x="44" y="26" width="2" height="2" fill="#B94A2C" />
<rect x="46" y="26" width="2" height="2" fill="#AE4E3E" />
<rect x="48" y="26" width="2" height="2" fill="#2A0E1C" />
<rect x="50" y="26" width="2" height="2" fill="#1E191F" />
<rect x="32" y="28" width="2" height="2" fill="#181528" />
<rect x="34" y="28" width="2" height="2" fill="#1F1200" />
<rect x="36" y="28" width="2" height="2" fill="#FFE565" />
<rect x="38" y="28" width="2" height="2" fill="#FBE55C" />
<rect x="40" y="28" width="2" height="2" fill="#EB7D24" />
<rect x="42" y="28" width="2" height="2" fill="#EB7D24" />
<rect x="44" y="28" width="2" height="2" fill="#BE4727" />
<rect x="46" y="28" width="2" height="2" fill="#AB4F42" />
<rect x="48" y="28" width="2" height="2" fill="#250F1B" />
<rect x="50" y="28" width="2" height="2" fill="#1C1920" />
<rect x="32" y="30" width="2" height="2" fill="#1B132A" />
<rect x="34" y="30" width="2" height="2" fill="#1F1400" />
<rect x="36" y="30" width="2" height="2" fill="#FBE55C" />
<rect x="38" y="30" width="2" height="2" fill="#FBE55C" />
<rect x="40" y="30" width="2" height="2" fill="#EA8116" />
<rect x="42" y="30" width="2" height="2" fill="#EB7D24" />
<rect x="44" y="30" width="2" height="2" fill="#BE4820" />
<rect x="46" y="30" width="2" height="2" fill="#AD5041" />
<rect x="48" y="30" width="2" height="2" fill="#2B1017" />
<rect x="50" y="30" width="2" height="2" fill="#161220" />
<rect x="32" y="32" width="2" height="2" fill="#1C132E" />
<rect x="34" y="32" width="2" height="2" fill="#1F1702" />
<rect x="36" y="32" width="2" height="2" fill="#FFE35F" />
<rect x="38" y="32" width="2" height="2" fill="#FBE55C" />
<rect x="40" y="32" width="2" height="2" fill="#EB7D24" />
<rect x="42" y="32" width="2" height="2" fill="#EB7D24" />
<rect x="44" y="32" width="2" height="2" fill="#C55024" />
<rect x="46" y="32" width="2" height="2" fill="#AE4E40" />
<rect x="48" y="32" width="2" height="2" fill="#280E1B" />
<rect x="50" y="32" width="2" height="2" fill="#12162F" />
<rect x="32" y="34" width="2" height="2" fill="#17112B" />
<rect x="34" y="34" width="2" height="2" fill="#201400" />
<rect x="36" y="34" width="2" height="2" fill="#FBE55C" />
<rect x="38" y="34" width="2" height="2" fill="#FBE55C" />
<rect x="40" y="34" width="2" height="2" fill="#EB7D24" />
<rect x="42" y="34" width="2" height="2" fill="#EB7D24" />
<rect x="44" y="34" width="2" height="2" fill="#B64719" />
<rect x="46" y="34" width="2" height="2" fill="#B15347" />
<rect x="48" y="34" width="2" height="2" fill="#2C171E" />
<rect x="50" y="34" width="2" height="2" fill="#0E121E" />
<rect x="52" y="34" width="2" height="2" fill="#1C1026" />
<rect x="54" y="34" width="2" height="2" fill="#141321" />
<rect x="32" y="36" width="2" height="2" fill="#16142C" />
<rect x="34" y="36" width="2" height="2" fill="#280C00" />
<rect x="36" y="36" width="2" height="2" fill="#F0801C" />
<rect x="38" y="36" width="2" height="2" fill="#F18B1F" />
<rect x="40" y="36" width="2" height="2" fill="#EB7D24" />
<rect x="42" y="36" width="2" height="2" fill="#EB7D24" />
<rect x="44" y="36" width="2" height="2" fill="#C04718" />
<rect x="46" y="36" width="2" height="2" fill="#B15540" />
<rect x="48" y="36" width="2" height="2" fill="#341A19" />
<rect x="50" y="36" width="2" height="2" fill="#0F0C21" />
<rect x="52" y="36" width="2" height="2" fill="#C2CBD4" />
<rect x="54" y="36" width="2" height="2" fill="#C2CBD4" />
<rect x="56" y="36" width="2" height="2" fill="#151321" />
<rect x="18" y="38" width="2" height="2" fill="#12101B" />
<rect x="20" y="38" width="2" height="2" fill="#161128" />
<rect x="22" y="38" width="2" height="2" fill="#23152F" />
<rect x="24" y="38" width="2" height="2" fill="#1D0F1E" />
<rect x="32" y="38" width="2" height="2" fill="#14122A" />
<rect x="34" y="38" width="2" height="2" fill="#351101" />
<rect x="36" y="38" width="2" height="2" fill="#F87934" />
<rect x="38" y="38" width="2" height="2" fill="#F58231" />
<rect x="40" y="38" width="2" height="2" fill="#EB7D24" />
<rect x="42" y="38" width="2" height="2" fill="#EB7D24" />
<rect x="44" y="38" width="2" height="2" fill="#BD4D25" />
<rect x="46" y="38" width="2" height="2" fill="#A74D45" />
<rect x="48" y="38" width="2" height="2" fill="#261214" />
<rect x="50" y="38" width="2" height="2" fill="#16102C" />
<rect x="52" y="38" width="2" height="2" fill="#C2CBD4" />
<rect x="54" y="38" width="2" height="2" fill="#C2CBD4" />
<rect x="56" y="38" width="2" height="2" fill="#101125" />
<rect x="58" y="38" width="2" height="2" fill="#17142F" />
<rect x="14" y="40" width="2" height="2" fill="#191725" />
<rect x="16" y="40" width="2" height="2" fill="#1C1E2D" />
<rect x="18" y="40" width="2" height="2" fill="#F8F2F4" />
<rect x="20" y="40" width="2" height="2" fill="#F8F2F4" />
<rect x="22" y="40" width="2" height="2" fill="#7A364D" />
<rect x="24" y="40" width="2" height="2" fill="#912C3E" />
<rect x="26" y="40" width="2" height="2" fill="#271217" />
<rect x="32" y="40" width="2" height="2" fill="#14112C" />
<rect x="34" y="40" width="2" height="2" fill="#19161F" />
<rect x="36" y="40" width="2" height="2" fill="#290D02" />
<rect x="38" y="40" width="2" height="2" fill="#3F0A00" />
<rect x="40" y="40" width="2" height="2" fill="#EA7B2C" />
<rect x="42" y="40" width="2" height="2" fill="#E27D2D" />
<rect x="44" y="40" width="2" height="2" fill="#321000" />
<rect x="46" y="40" width="2" height="2" fill="#280F24" />
<rect x="48" y="40" width="2" height="2" fill="#161127" />
<rect x="50" y="40" width="2" height="2" fill="#1D1E30" />
<rect x="52" y="40" width="2" height="2" fill="#B85166" />
<rect x="54" y="40" width="2" height="2" fill="#C9485C" />
<rect x="56" y="40" width="2" height="2" fill="#2E0B21" />
<rect x="58" y="40" width="2" height="2" fill="#19102B" />
<rect x="6" y="42" width="2" height="2" fill="#191921" />
<rect x="8" y="42" width="2" height="2" fill="#181121" />
<rect x="10" y="42" width="2" height="2" fill="#1B1322" />
<rect x="12" y="42" width="2" height="2" fill="#1E1729" />
<rect x="14" y="42" width="2" height="2" fill="#151426" />
<rect x="16" y="42" width="2" height="2" fill="#151424" />
<rect x="18" y="42" width="2" height="2" fill="#FFFFF8" />
<rect x="20" y="42" width="2" height="2" fill="#F8F2F4" />
<rect x="22" y="42" width="2" height="2" fill="#873645" />
<rect x="24" y="42" width="2" height="2" fill="#9B2732" />
<rect x="26" y="42" width="2" height="2" fill="#30101D" />
<rect x="28" y="42" width="2" height="2" fill="#151424" />
<rect x="30" y="42" width="2" height="2" fill="#1A1A22" />
<rect x="32" y="42" width="2" height="2" fill="#221F34" />
<rect x="34" y="42" width="2" height="2" fill="#19182A" />
<rect x="36" y="42" width="2" height="2" fill="#1C1622" />
<rect x="38" y="42" width="2" height="2" fill="#310B02" />
<rect x="40" y="42" width="2" height="2" fill="#EB7D48" />
<rect x="42" y="42" width="2" height="2" fill="#DC7741" />
<rect x="44" y="42" width="2" height="2" fill="#260E0C" />
<rect x="46" y="42" width="2" height="2" fill="#130D27" />
<rect x="48" y="42" width="2" height="2" fill="#211829" />
<rect x="50" y="42" width="2" height="2" fill="#21181B" />
<rect x="52" y="42" width="2" height="2" fill="#C33F54" />
<rect x="54" y="42" width="2" height="2" fill="#DF3B56" />
<rect x="56" y="42" width="2" height="2" fill="#34091A" />
<rect x="58" y="42" width="2" height="2" fill="#171322" />
<rect x="4" y="44" width="2" height="2" fill="#161920" />
<rect x="6" y="44" width="2" height="2" fill="#F8F2F4" />
<rect x="8" y="44" width="2" height="2" fill="#F8F2F4" />
<rect x="10" y="44" width="2" height="2" fill="#C23E53" />
<rect x="12" y="44" width="2" height="2" fill="#AE425A" />
<rect x="14" y="44" width="2" height="2" fill="#2E121E" />
<rect x="16" y="44" width="2" height="2" fill="#0E0B1C" />
<rect x="18" y="44" width="2" height="2" fill="#161729" />
<rect x="20" y="44" width="2" height="2" fill="#1E1526" />
<rect x="22" y="44" width="2" height="2" fill="#270C1D" />
<rect x="24" y="44" width="2" height="2" fill="#30121A" />
<rect x="26" y="44" width="2" height="2" fill="#1C0F23" />
<rect x="28" y="44" width="2" height="2" fill="#16122D" />
<rect x="30" y="44" width="2" height="2" fill="#201F27" />
<rect x="32" y="44" width="2" height="2" fill="#F8F2F4" />
<rect x="34" y="44" width="2" height="2" fill="#F8F2F4" />
<rect x="36" y="44" width="2" height="2" fill="#CB4F5A" />
<rect x="38" y="44" width="2" height="2" fill="#A2454F" />
<rect x="40" y="44" width="2" height="2" fill="#431508" />
<rect x="42" y="44" width="2" height="2" fill="#270A04" />
<rect x="44" y="44" width="2" height="2" fill="#C3C5C2" />
<rect x="46" y="44" width="2" height="2" fill="#C3C5C2" />
<rect x="48" y="44" width="2" height="2" fill="#BD5465" />
<rect x="50" y="44" width="2" height="2" fill="#CC4B61" />
<rect x="52" y="44" width="2" height="2" fill="#4E0D13" />
<rect x="54" y="44" width="2" height="2" fill="#340B0F" />
<rect x="56" y="44" width="2" height="2" fill="#1E151A" />
<rect x="58" y="44" width="2" height="2" fill="#16151B" />
<rect x="4" y="46" width="2" height="2" fill="#181824" />
<rect x="6" y="46" width="2" height="2" fill="#FFFEFF" />
<rect x="8" y="46" width="2" height="2" fill="#C2CBD4" />
<rect x="10" y="46" width="2" height="2" fill="#DD3647" />
<rect x="12" y="46" width="2" height="2" fill="#CB4657" />
<rect x="14" y="46" width="2" height="2" fill="#321011" />
<rect x="16" y="46" width="2" height="2" fill="#1B1926" />
<rect x="28" y="46" width="2" height="2" fill="#1B122D" />
<rect x="30" y="46" width="2" height="2" fill="#1C121D" />
<rect x="32" y="46" width="2" height="2" fill="#F8F2F4" />
<rect x="34" y="46" width="2" height="2" fill="#F8F2F4" />
<rect x="36" y="46" width="2" height="2" fill="#DE3A41" />
<rect x="38" y="46" width="2" height="2" fill="#C14C5C" />
<rect x="40" y="46" width="2" height="2" fill="#280D14" />
<rect x="42" y="46" width="2" height="2" fill="#171928" />
<rect x="44" y="46" width="2" height="2" fill="#C3C5C2" />
<rect x="46" y="46" width="2" height="2" fill="#C3C5C2" />
<rect x="48" y="46" width="2" height="2" fill="#CC475A" />
<rect x="50" y="46" width="2" height="2" fill="#E1375B" />
<rect x="52" y="46" width="2" height="2" fill="#370C13" />
<rect x="54" y="46" width="2" height="2" fill="#1A1A1C" />
<rect x="56" y="46" width="2" height="2" fill="#1E141C" />
<rect x="4" y="48" width="2" height="2" fill="#161D25" />
<rect x="6" y="48" width="2" height="2" fill="#C2CBD4" />
<rect x="8" y="48" width="2" height="2" fill="#C2CBD4" />
<rect x="10" y="48" width="2" height="2" fill="#A93447" />
<rect x="12" y="48" width="2" height="2" fill="#8A3A43" />
<rect x="14" y="48" width="2" height="2" fill="#341D17" />
<rect x="16" y="48" width="2" height="2" fill="#101A12" />
<rect x="30" y="48" width="2" height="2" fill="#0B1A15" />
<rect x="32" y="48" width="2" height="2" fill="#C3C5C2" />
<rect x="34" y="48" width="2" height="2" fill="#C3C5C2" />
<rect x="36" y="48" width="2" height="2" fill="#A83552" />
<rect x="38" y="48" width="2" height="2" fill="#8E4151" />
<rect x="40" y="48" width="2" height="2" fill="#2E1E1E" />
<rect x="42" y="48" width="2" height="2" fill="#0E181A" />
<rect x="44" y="48" width="2" height="2" fill="#C3C5C2" />
<rect x="46" y="48" width="2" height="2" fill="#C3C5C2" />
<rect x="48" y="48" width="2" height="2" fill="#94364E" />
<rect x="50" y="48" width="2" height="2" fill="#A53656" />
<rect x="52" y="48" width="2" height="2" fill="#321319" />
<rect x="54" y="48" width="2" height="2" fill="#121D17" />
<rect x="6" y="50" width="2" height="2" fill="#19161F" />
<rect x="8" y="50" width="2" height="2" fill="#1C1A28" />
<rect x="10" y="50" width="2" height="2" fill="#151A20" />
<rect x="12" y="50" width="2" height="2" fill="#0F191B" />
<rect x="32" y="50" width="2" height="2" fill="#15121B" />
<rect x="34" y="50" width="2" height="2" fill="#171624" />
<rect x="36" y="50" width="2" height="2" fill="#191925" />
<rect x="38" y="50" width="2" height="2" fill="#141519" />
<rect x="44" y="50" width="2" height="2" fill="#131718" />
<rect x="46" y="50" width="2" height="2" fill="#15121D" />
<rect x="48" y="50" width="2" height="2" fill="#1B1926" />
<rect x="50" y="50" width="2" height="2" fill="#161614" />
</svg>