<?xml version="1.0" encoding="UTF-8" ?>
<svg version="1.1" width="64" height="64" xmlns="http://www.w3.org/2000/svg" shape-rendering="crispEdges">
<rect x="8" y="4" width="2" height="2" fill="#12161F" />
<rect x="10" y="4" width="2" height="2" fill="#1A1323" />
<rect x="12" y="4" width="2" height="2" fill="#171520" />
<rect x="14" y="4" width="2" height="2" fill="#1B131E" />
<rect x="16" y="4" width="2" height="2" fill="#1A121F" />
<rect x="18" y="4" width="2" height="2" fill="#1B1725" />
<rect x="20" y="4" width="2" height="2" fill="#151120" />
<rect x="22" y="4" width="2" height="2" fill="#181623" />
<rect x="24" y="4" width="2" height="2" fill="#181621" />
<rect x="26" y="4" width="2" height="2" fill="#181621" />
<rect x="28" y="4" width="2" height="2" fill="#181621" />
<rect x="30" y="4" width="2" height="2" fill="#17161E" />
<rect x="32" y="4" width="2" height="2" fill="#171520" />
<rect x="34" y="4" width="2" height="2" fill="#171520" />
<rect x="36" y="4" width="2" height="2" fill="#171520" />
<rect x="38" y="4" width="2" height="2" fill="#171520" />
<rect x="40" y="4" width="2" height="2" fill="#171520" />
<rect x="42" y="4" width="2" height="2" fill="#171520" />
<rect x="44" y="4" width="2" height="2" fill="#181520" />
<rect x="46" y="4" width="2" height="2" fill="#181520" />
<rect x="48" y="4" width="2" height="2" fill="#181520" />
<rect x="50" y="4" width="2" height="2" fill="#18191E" />
<rect x="52" y="4" width="2" height="2" fill="#18191B" />
<rect x="54" y="4" width="2" height="2" fill="#191919" />
<rect x="56" y="4" width="2" height="2" fill="#0F1F15" />
<rect x="8" y="6" width="2" height="2" fill="#1A1323" />
<rect x="10" y="6" width="2" height="2" fill="#220F25" />
<rect x="12" y="6" width="2" height="2" fill="#201223" />
<rect x="14" y="6" width="2" height="2" fill="#231121" />
<rect x="16" y="6" width="2" height="2" fill="#241124" />
<rect x="18" y="6" width="2" height="2" fill="#1C0F23" />
<rect x="20" y="6" width="2" height="2" fill="#160E25" />
<rect x="22" y="6" width="2" height="2" fill="#161127" />
<rect x="24" y="6" width="2" height="2" fill="#171228" />
<rect x="26" y="6" width="2" height="2" fill="#18142D" />
<rect x="28" y="6" width="2" height="2" fill="#19172F" />
<rect x="30" y="6" width="2" height="2" fill="#16142C" />
<rect x="32" y="6" width="2" height="2" fill="#16142C" />
<rect x="34" y="6" width="2" height="2" fill="#17132C" />
<rect x="36" y="6" width="2" height="2" fill="#171429" />
<rect x="38" y="6" width="2" height="2" fill="#171427" />
<rect x="40" y="6" width="2" height="2" fill="#171427" />
<rect x="42" y="6" width="2" height="2" fill="#171427" />
<rect x="44" y="6" width="2" height="2" fill="#171427" />
<rect x="46" y="6" width="2" height="2" fill="#171427" />
<rect x="48" y="6" width="2" height="2" fill="#171427" />
<rect x="50" y="6" width="2" height="2" fill="#171427" />
<rect x="52" y="6" width="2" height="2" fill="#181425" />
<rect x="54" y="6" width="2" height="2" fill="#181423" />
<rect x="56" y="6" width="2" height="2" fill="#11191C" />
<rect x="4" y="8" width="2" height="2" fill="#0F1A16" />
<rect x="6" y="8" width="2" height="2" fill="#1E0E18" />
<rect x="8" y="8" width="2" height="2" fill="#A62633" />
<rect x="10" y="8" width="2" height="2" fill="#A62633" />
<rect x="12" y="8" width="2" height="2" fill="#A62633" />
<rect x="14" y="8" width="2" height="2" fill="#A62633" />
<rect x="16" y="8" width="2" height="2" fill="#A62633" />
<rect x="18" y="8" width="2" height="2" fill="#A62633" />
<rect x="20" y="8" width="2" height="2" fill="#A62732" />
<rect x="22" y="8" width="2" height="2" fill="#FFFAFF" />
<rect x="24" y="8" width="2" height="2" fill="#F9FFFF" />
<rect x="26" y="8" width="2" height="2" fill="#8E9AA8" />
<rect x="28" y="8" width="2" height="2" fill="#8D9AAB" />
<rect x="30" y="8" width="2" height="2" fill="#8C9BAE" />
<rect x="32" y="8" width="2" height="2" fill="#8C9CAC" />
<rect x="34" y="8" width="2" height="2" fill="#8E9BAC" />
<rect x="36" y="8" width="2" height="2" fill="#8C9BB2" />
<rect x="38" y="8" width="2" height="2" fill="#8C9BB2" />
<rect x="40" y="8" width="2" height="2" fill="#8C9BB2" />
<rect x="42" y="8" width="2" height="2" fill="#8C9BB2" />
<rect x="44" y="8" width="2" height="2" fill="#8C9AB4" />
<rect x="46" y="8" width="2" height="2" fill="#8C9AB4" />
<rect x="48" y="8" width="2" height="2" fill="#8C9AB4" />
<rect x="50" y="8" width="2" height="2" fill="#8D98B4" />
<rect x="52" y="8" width="2" height="2" fill="#8E9CB7" />
<rect x="54" y="8" width="2" height="2" fill="#8E9DB4" />
<rect x="56" y="8" width="2" height="2" fill="#727A8F" />
<rect x="58" y="8" width="2" height="2" fill="#12171B" />
<rect x="60" y="8" width="2" height="2" fill="#0F1F12" />
<rect x="4" y="10" width="2" height="2" fill="#17161E" />
<rect x="6" y="10" width="2" height="2" fill="#2C0A1A" />
<rect x="8" y="10" width="2" height="2" fill="#A62633" />
<rect x="10" y="10" width="2" height="2" fill="#A62633" />
<rect x="12" y="10" width="2" height="2" fill="#DB3B45" />
<rect x="14" y="10" width="2" height="2" fill="#E43846" />
<rect x="16" y="10" width="2" height="2" fill="#E73E43" />
<rect x="18" y="10" width="2" height="2" fill="#A62633" />
<rect x="20" y="10" width="2" height="2" fill="#A62732" />
<rect x="22" y="10" width="2" height="2" fill="#FFFBFF" />
<rect x="24" y="10" width="2" height="2" fill="#F8FFFF" />
<rect x="26" y="10" width="2" height="2" fill="#8D9AAB" />
<rect x="28" y="10" width="2" height="2" fill="#8A9AB1" />
<rect x="30" y="10" width="2" height="2" fill="#889CB5" />
<rect x="32" y="10" width="2" height="2" fill="#8A9CB4" />
<rect x="34" y="10" width="2" height="2" fill="#8B9BB2" />
<rect x="36" y="10" width="2" height="2" fill="#8A9BB5" />
<rect x="38" y="10" width="2" height="2" fill="#889CB7" />
<rect x="40" y="10" width="2" height="2" fill="#889CB7" />
<rect x="42" y="10" width="2" height="2" fill="#889CB7" />
<rect x="44" y="10" width="2" height="2" fill="#8A9BB7" />
<rect x="46" y="10" width="2" height="2" fill="#8A9BB7" />
<rect x="48" y="10" width="2" height="2" fill="#8A9BB7" />
<rect x="50" y="10" width="2" height="2" fill="#899AB6" />
<rect x="52" y="10" width="2" height="2" fill="#8C9DB9" />
<rect x="54" y="10" width="2" height="2" fill="#8D9CB9" />
<rect x="56" y="10" width="2" height="2" fill="#737993" />
<rect x="58" y="10" width="2" height="2" fill="#15151F" />
<rect x="60" y="10" width="2" height="2" fill="#111E15" />
<rect x="4" y="12" width="2" height="2" fill="#181422" />
<rect x="6" y="12" width="2" height="2" fill="#320B1D" />
<rect x="8" y="12" width="2" height="2" fill="#E73E43" />
<rect x="10" y="12" width="2" height="2" fill="#E73E43" />
<rect x="12" y="12" width="2" height="2" fill="#E03941" />
<rect x="14" y="12" width="2" height="2" fill="#E73845" />
<rect x="16" y="12" width="2" height="2" fill="#E73E43" />
<rect x="18" y="12" width="2" height="2" fill="#A62633" />
<rect x="20" y="12" width="2" height="2" fill="#A62732" />
<rect x="22" y="12" width="2" height="2" fill="#FFF8FF" />
<rect x="24" y="12" width="2" height="2" fill="#FEFEFF" />
<rect x="26" y="12" width="2" height="2" fill="#9098AD" />
<rect x="28" y="12" width="2" height="2" fill="#8B99B4" />
<rect x="30" y="12" width="2" height="2" fill="#8A9BB9" />
<rect x="32" y="12" width="2" height="2" fill="#8B9AB9" />
<rect x="34" y="12" width="2" height="2" fill="#8C9AB7" />
<rect x="36" y="12" width="2" height="2" fill="#8C9AB4" />
<rect x="38" y="12" width="2" height="2" fill="#8C9AB4" />
<rect x="40" y="12" width="2" height="2" fill="#8C9AB4" />
<rect x="42" y="12" width="2" height="2" fill="#8C9AB4" />
<rect x="44" y="12" width="2" height="2" fill="#8C9AB4" />
<rect x="46" y="12" width="2" height="2" fill="#8C9AB4" />
<rect x="48" y="12" width="2" height="2" fill="#8C9AB4" />
<rect x="50" y="12" width="2" height="2" fill="#899BB3" />
<rect x="52" y="12" width="2" height="2" fill="#8C9DB7" />
<rect x="54" y="12" width="2" height="2" fill="#8D9CB9" />
<rect x="56" y="12" width="2" height="2" fill="#737895" />
<rect x="58" y="12" width="2" height="2" fill="#131521" />
<rect x="60" y="12" width="2" height="2" fill="#0C2015" />
<rect x="4" y="14" width="2" height="2" fill="#1A1323" />
<rect x="6" y="14" width="2" height="2" fill="#390D1E" />
<rect x="8" y="14" width="2" height="2" fill="#E73E43" />
<rect x="10" y="14" width="2" height="2" fill="#E43E4A" />
<rect x="12" y="14" width="2" height="2" fill="#E33D41" />
<rect x="14" y="14" width="2" height="2" fill="#E43D44" />
<rect x="16" y="14" width="2" height="2" fill="#E73E43" />
<rect x="18" y="14" width="2" height="2" fill="#A52733" />
<rect x="20" y="14" width="2" height="2" fill="#A62732" />
<rect x="22" y="14" width="2" height="2" fill="#FFF9FB" />
<rect x="24" y="14" width="2" height="2" fill="#FCFFFF" />
<rect x="26" y="14" width="2" height="2" fill="#8E9AAA" />
<rect x="28" y="14" width="2" height="2" fill="#899BB1" />
<rect x="30" y="14" width="2" height="2" fill="#889CB7" />
<rect x="32" y="14" width="2" height="2" fill="#8A9BB5" />
<rect x="34" y="14" width="2" height="2" fill="#8B9BB4" />
<rect x="36" y="14" width="2" height="2" fill="#8C9AB4" />
<rect x="38" y="14" width="2" height="2" fill="#8B9BB4" />
<rect x="40" y="14" width="2" height="2" fill="#8B9BB4" />
<rect x="42" y="14" width="2" height="2" fill="#8B9BB4" />
<rect x="44" y="14" width="2" height="2" fill="#8C9AB5" />
<rect x="46" y="14" width="2" height="2" fill="#8C9AB5" />
<rect x="48" y="14" width="2" height="2" fill="#8C9AB5" />
<rect x="50" y="14" width="2" height="2" fill="#8E9CB6" />
<rect x="52" y="14" width="2" height="2" fill="#8E9CB6" />
<rect x="54" y="14" width="2" height="2" fill="#8E9CB7" />
<rect x="56" y="14" width="2" height="2" fill="#747893" />
<rect x="58" y="14" width="2" height="2" fill="#161421" />
<rect x="60" y="14" width="2" height="2" fill="#0C2017" />
<rect x="4" y="16" width="2" height="2" fill="#161221" />
<rect x="6" y="16" width="2" height="2" fill="#340A18" />
<rect x="8" y="16" width="2" height="2" fill="#E73E43" />
<rect x="10" y="16" width="2" height="2" fill="#E73D3E" />
<rect x="12" y="16" width="2" height="2" fill="#E73E43" />
<rect x="14" y="16" width="2" height="2" fill="#E73E43" />
<rect x="16" y="16" width="2" height="2" fill="#E73E43" />
<rect x="18" y="16" width="2" height="2" fill="#A62732" />
<rect x="20" y="16" width="2" height="2" fill="#A62732" />
<rect x="22" y="16" width="2" height="2" fill="#E9E6ED" />
<rect x="24" y="16" width="2" height="2" fill="#E2EBF2" />
<rect x="26" y="16" width="2" height="2" fill="#8D97BA" />
<rect x="28" y="16" width="2" height="2" fill="#8D9DBF" />
<rect x="30" y="16" width="2" height="2" fill="#8999B0" />
<rect x="32" y="16" width="2" height="2" fill="#8B99B3" />
<rect x="34" y="16" width="2" height="2" fill="#8B9CB0" />
<rect x="36" y="16" width="2" height="2" fill="#899AB4" />
<rect x="38" y="16" width="2" height="2" fill="#8A9AB4" />
<rect x="40" y="16" width="2" height="2" fill="#8B9AB1" />
<rect x="42" y="16" width="2" height="2" fill="#899BB1" />
<rect x="44" y="16" width="2" height="2" fill="#8E9CB6" />
<rect x="46" y="16" width="2" height="2" fill="#8A9AB3" />
<rect x="48" y="16" width="2" height="2" fill="#8898AF" />
<rect x="50" y="16" width="2" height="2" fill="#8C9BB0" />
<rect x="52" y="16" width="2" height="2" fill="#8F99B2" />
<rect x="54" y="16" width="2" height="2" fill="#8C9BB2" />
<rect x="56" y="16" width="2" height="2" fill="#6E7A90" />
<rect x="58" y="16" width="2" height="2" fill="#161326" />
<rect x="60" y="16" width="2" height="2" fill="#111D19" />
<rect x="4" y="18" width="2" height="2" fill="#161221" />
<rect x="6" y="18" width="2" height="2" fill="#340A18" />
<rect x="8" y="18" width="2" height="2" fill="#E73E43" />
<rect x="10" y="18" width="2" height="2" fill="#E53B46" />
<rect x="12" y="18" width="2" height="2" fill="#A62230" />
<rect x="14" y="18" width="2" height="2" fill="#9B212E" />
<rect x="16" y="18" width="2" height="2" fill="#A62732" />
<rect x="18" y="18" width="2" height="2" fill="#C2C9DC" />
<rect x="20" y="18" width="2" height="2" fill="#C2C9DC" />
<rect x="22" y="18" width="2" height="2" fill="#BECBD4" />
<rect x="24" y="18" width="2" height="2" fill="#C2C9DC" />
<rect x="26" y="18" width="2" height="2" fill="#8B99B6" />
<rect x="28" y="18" width="2" height="2" fill="#8C9CBD" />
<rect x="30" y="18" width="2" height="2" fill="#919FBA" />
<rect x="32" y="18" width="2" height="2" fill="#8C9AB5" />
<rect x="34" y="18" width="2" height="2" fill="#91A2B4" />
<rect x="36" y="18" width="2" height="2" fill="#8B9BB2" />
<rect x="38" y="18" width="2" height="2" fill="#8A9CB4" />
<rect x="40" y="18" width="2" height="2" fill="#8C9AB4" />
<rect x="42" y="18" width="2" height="2" fill="#8A9BB5" />
<rect x="44" y="18" width="2" height="2" fill="#8A9BB7" />
<rect x="46" y="18" width="2" height="2" fill="#8E9CB7" />
<rect x="48" y="18" width="2" height="2" fill="#8A9FB4" />
<rect x="50" y="18" width="2" height="2" fill="#889DB2" />
<rect x="52" y="18" width="2" height="2" fill="#8E99B5" />
<rect x="54" y="18" width="2" height="2" fill="#8B9BB4" />
<rect x="56" y="18" width="2" height="2" fill="#6E7B8E" />
<rect x="58" y="18" width="2" height="2" fill="#161324" />
<rect x="60" y="18" width="2" height="2" fill="#111D19" />
<rect x="4" y="20" width="2" height="2" fill="#161221" />
<rect x="6" y="20" width="2" height="2" fill="#340A18" />
<rect x="8" y="20" width="2" height="2" fill="#E73E43" />
<rect x="10" y="20" width="2" height="2" fill="#E93D4B" />
<rect x="12" y="20" width="2" height="2" fill="#AA263B" />
<rect x="14" y="20" width="2" height="2" fill="#A4293B" />
<rect x="16" y="20" width="2" height="2" fill="#A62732" />
<rect x="18" y="20" width="2" height="2" fill="#C2C9DC" />
<rect x="20" y="20" width="2" height="2" fill="#C2C9DC" />
<rect x="22" y="20" width="2" height="2" fill="#C2C9DC" />
<rect x="24" y="20" width="2" height="2" fill="#C2C9DC" />
<rect x="26" y="20" width="2" height="2" fill="#8B9AB1" />
<rect x="28" y="20" width="2" height="2" fill="#899AB8" />
<rect x="30" y="20" width="2" height="2" fill="#8B9AB7" />
<rect x="32" y="20" width="2" height="2" fill="#8E9CB6" />
<rect x="34" y="20" width="2" height="2" fill="#8E9CB6" />
<rect x="36" y="20" width="2" height="2" fill="#8E9CB6" />
<rect x="38" y="20" width="2" height="2" fill="#8E9CB6" />
<rect x="40" y="20" width="2" height="2" fill="#8E9CB6" />
<rect x="42" y="20" width="2" height="2" fill="#8E9CB6" />
<rect x="44" y="20" width="2" height="2" fill="#8E9CB6" />
<rect x="46" y="20" width="2" height="2" fill="#8E9CB6" />
<rect x="48" y="20" width="2" height="2" fill="#8E9CB6" />
<rect x="50" y="20" width="2" height="2" fill="#889CB4" />
<rect x="52" y="20" width="2" height="2" fill="#8B9AB9" />
<rect x="54" y="20" width="2" height="2" fill="#8B9BB4" />
<rect x="56" y="20" width="2" height="2" fill="#6E7B8E" />
<rect x="58" y="20" width="2" height="2" fill="#161422" />
<rect x="60" y="20" width="2" height="2" fill="#111D19" />
<rect x="4" y="22" width="2" height="2" fill="#161221" />
<rect x="6" y="22" width="2" height="2" fill="#340A18" />
<rect x="8" y="22" width="2" height="2" fill="#E73E43" />
<rect x="10" y="22" width="2" height="2" fill="#EC3C47" />
<rect x="12" y="22" width="2" height="2" fill="#A42433" />
<rect x="14" y="22" width="2" height="2" fill="#A02736" />
<rect x="16" y="22" width="2" height="2" fill="#A62732" />
<rect x="18" y="22" width="2" height="2" fill="#C2C9DC" />
<rect x="20" y="22" width="2" height="2" fill="#C2C9DC" />
<rect x="22" y="22" width="2" height="2" fill="#C2C9DC" />
<rect x="24" y="22" width="2" height="2" fill="#C2C9DC" />
<rect x="26" y="22" width="2" height="2" fill="#8C99AC" />
<rect x="28" y="22" width="2" height="2" fill="#8E9CB6" />
<rect x="30" y="22" width="2" height="2" fill="#8E9CB6" />
<rect x="32" y="22" width="2" height="2" fill="#8FA0B4" />
<rect x="34" y="22" width="2" height="2" fill="#A1263B" />
<rect x="36" y="22" width="2" height="2" fill="#A1263B" />
<rect x="38" y="22" width="2" height="2" fill="#A1263B" />
<rect x="40" y="22" width="2" height="2" fill="#A1263B" />
<rect x="42" y="22" width="2" height="2" fill="#A1263B" />
<rect x="44" y="22" width="2" height="2" fill="#A1263B" />
<rect x="46" y="22" width="2" height="2" fill="#A1263B" />
<rect x="48" y="22" width="2" height="2" fill="#8E9CB6" />
<rect x="50" y="22" width="2" height="2" fill="#8C9BB2" />
<rect x="52" y="22" width="2" height="2" fill="#8A9BB7" />
<rect x="54" y="22" width="2" height="2" fill="#889CB5" />
<rect x="56" y="22" width="2" height="2" fill="#6E7B8E" />
<rect x="58" y="22" width="2" height="2" fill="#191321" />
<rect x="60" y="22" width="2" height="2" fill="#151B1B" />
<rect x="4" y="24" width="2" height="2" fill="#161221" />
<rect x="6" y="24" width="2" height="2" fill="#340A18" />
<rect x="8" y="24" width="2" height="2" fill="#E73E43" />
<rect x="10" y="24" width="2" height="2" fill="#E73E43" />
<rect x="12" y="24" width="2" height="2" fill="#A62331" />
<rect x="14" y="24" width="2" height="2" fill="#A42737" />
<rect x="16" y="24" width="2" height="2" fill="#A62732" />
<rect x="18" y="24" width="2" height="2" fill="#C0C9D2" />
<rect x="20" y="24" width="2" height="2" fill="#C2C9DC" />
<rect x="22" y="24" width="2" height="2" fill="#C2C9DC" />
<rect x="24" y="24" width="2" height="2" fill="#BFCCDF" />
<rect x="26" y="24" width="2" height="2" fill="#8999B0" />
<rect x="28" y="24" width="2" height="2" fill="#8E9CB6" />
<rect x="30" y="24" width="2" height="2" fill="#8E9CB6" />
<rect x="32" y="24" width="2" height="2" fill="#8E9CB6" />
<rect x="34" y="24" width="2" height="2" fill="#A1263B" />
<rect x="36" y="24" width="2" height="2" fill="#A1263B" />
<rect x="38" y="24" width="2" height="2" fill="#A1263B" />
<rect x="40" y="24" width="2" height="2" fill="#A1263B" />
<rect x="42" y="24" width="2" height="2" fill="#A1263B" />
<rect x="44" y="24" width="2" height="2" fill="#A52934" />
<rect x="46" y="24" width="2" height="2" fill="#A1263B" />
<rect x="48" y="24" width="2" height="2" fill="#8E9CB6" />
<rect x="50" y="24" width="2" height="2" fill="#8E9CB6" />
<rect x="52" y="24" width="2" height="2" fill="#8E9CB6" />
<rect x="54" y="24" width="2" height="2" fill="#8898B2" />
<rect x="56" y="24" width="2" height="2" fill="#767C94" />
<rect x="58" y="24" width="2" height="2" fill="#151521" />
<rect x="60" y="24" width="2" height="2" fill="#111D19" />
<rect x="4" y="26" width="2" height="2" fill="#161221" />
<rect x="6" y="26" width="2" height="2" fill="#340A18" />
<rect x="8" y="26" width="2" height="2" fill="#E73E43" />
<rect x="10" y="26" width="2" height="2" fill="#E73E43" />
<rect x="12" y="26" width="2" height="2" fill="#A92233" />
<rect x="14" y="26" width="2" height="2" fill="#A42735" />
<rect x="16" y="26" width="2" height="2" fill="#742332" />
<rect x="18" y="26" width="2" height="2" fill="#3D2D3A" />
<rect x="20" y="26" width="2" height="2" fill="#3D2D3A" />
<rect x="22" y="26" width="2" height="2" fill="#909AB3" />
<rect x="24" y="26" width="2" height="2" fill="#909CB2" />
<rect x="26" y="26" width="2" height="2" fill="#899AB4" />
<rect x="28" y="26" width="2" height="2" fill="#8E9CB6" />
<rect x="30" y="26" width="2" height="2" fill="#A1263B" />
<rect x="32" y="26" width="2" height="2" fill="#A1263B" />
<rect x="34" y="26" width="2" height="2" fill="#9B1E2E" />
<rect x="36" y="26" width="2" height="2" fill="#A12933" />
<rect x="38" y="26" width="2" height="2" fill="#A1263B" />
<rect x="40" y="26" width="2" height="2" fill="#A1263B" />
<rect x="42" y="26" width="2" height="2" fill="#A1263B" />
<rect x="44" y="26" width="2" height="2" fill="#9F2B36" />
<rect x="46" y="26" width="2" height="2" fill="#A1263B" />
<rect x="48" y="26" width="2" height="2" fill="#A1263B" />
<rect x="50" y="26" width="2" height="2" fill="#A1263B" />
<rect x="52" y="26" width="2" height="2" fill="#8E9CB6" />
<rect x="54" y="26" width="2" height="2" fill="#8A9AB1" />
<rect x="56" y="26" width="2" height="2" fill="#6E798F" />
<rect x="58" y="26" width="2" height="2" fill="#171321" />
<rect x="60" y="26" width="2" height="2" fill="#121D19" />
<rect x="4" y="28" width="2" height="2" fill="#161221" />
<rect x="6" y="28" width="2" height="2" fill="#340A18" />
<rect x="8" y="28" width="2" height="2" fill="#E73E43" />
<rect x="10" y="28" width="2" height="2" fill="#E73E43" />
<rect x="12" y="28" width="2" height="2" fill="#A62331" />
<rect x="14" y="28" width="2" height="2" fill="#9E2B32" />
<rect x="16" y="28" width="2" height="2" fill="#792733" />
<rect x="18" y="28" width="2" height="2" fill="#3D2D3A" />
<rect x="20" y="28" width="2" height="2" fill="#3D2D3A" />
<rect x="22" y="28" width="2" height="2" fill="#939BB0" />
<rect x="24" y="28" width="2" height="2" fill="#899EB3" />
<rect x="26" y="28" width="2" height="2" fill="#899CBA" />
<rect x="28" y="28" width="2" height="2" fill="#8E9CB6" />
<rect x="30" y="28" width="2" height="2" fill="#A1263B" />
<rect x="32" y="28" width="2" height="2" fill="#9F2639" />
<rect x="34" y="28" width="2" height="2" fill="#A0242C" />
<rect x="36" y="28" width="2" height="2" fill="#9C2430" />
<rect x="38" y="28" width="2" height="2" fill="#8E9CB6" />
<rect x="40" y="28" width="2" height="2" fill="#8E9CB6" />
<rect x="42" y="28" width="2" height="2" fill="#8E9CB6" />
<rect x="44" y="28" width="2" height="2" fill="#9B2535" />
<rect x="46" y="28" width="2" height="2" fill="#A1242C" />
<rect x="48" y="28" width="2" height="2" fill="#A32330" />
<rect x="50" y="28" width="2" height="2" fill="#A1263B" />
<rect x="52" y="28" width="2" height="2" fill="#8E9CB6" />
<rect x="54" y="28" width="2" height="2" fill="#8E9CB6" />
<rect x="56" y="28" width="2" height="2" fill="#737A94" />
<rect x="58" y="28" width="2" height="2" fill="#161421" />
<rect x="60" y="28" width="2" height="2" fill="#111E17" />
<rect x="4" y="30" width="2" height="2" fill="#161221" />
<rect x="6" y="30" width="2" height="2" fill="#340A18" />
<rect x="8" y="30" width="2" height="2" fill="#E73E43" />
<rect x="10" y="30" width="2" height="2" fill="#E73E43" />
<rect x="12" y="30" width="2" height="2" fill="#E73E43" />
<rect x="14" y="30" width="2" height="2" fill="#E73E43" />
<rect x="16" y="30" width="2" height="2" fill="#8E1B28" />
<rect x="18" y="30" width="2" height="2" fill="#3D2D3A" />
<rect x="20" y="30" width="2" height="2" fill="#3D2D3A" />
<rect x="22" y="30" width="2" height="2" fill="#9699A0" />
<rect x="24" y="30" width="2" height="2" fill="#8A949E" />
<rect x="26" y="30" width="2" height="2" fill="#8FA2C0" />
<rect x="28" y="30" width="2" height="2" fill="#8E9CB6" />
<rect x="30" y="30" width="2" height="2" fill="#A1263B" />
<rect x="32" y="30" width="2" height="2" fill="#A52532" />
<rect x="34" y="30" width="2" height="2" fill="#A1263B" />
<rect x="36" y="30" width="2" height="2" fill="#A1263B" />
<rect x="38" y="30" width="2" height="2" fill="#8E9CB6" />
<rect x="40" y="30" width="2" height="2" fill="#869BAC" />
<rect x="42" y="30" width="2" height="2" fill="#8E9CB6" />
<rect x="44" y="30" width="2" height="2" fill="#A1263B" />
<rect x="46" y="30" width="2" height="2" fill="#A1263B" />
<rect x="48" y="30" width="2" height="2" fill="#9C2737" />
<rect x="50" y="30" width="2" height="2" fill="#A1263B" />
<rect x="52" y="30" width="2" height="2" fill="#8E9CB6" />
<rect x="54" y="30" width="2" height="2" fill="#8E9CB6" />
<rect x="56" y="30" width="2" height="2" fill="#737792" />
<rect x="58" y="30" width="2" height="2" fill="#151328" />
<rect x="60" y="30" width="2" height="2" fill="#111D19" />
<rect x="4" y="32" width="2" height="2" fill="#161221" />
<rect x="6" y="32" width="2" height="2" fill="#340A18" />
<rect x="8" y="32" width="2" height="2" fill="#E73E43" />
<rect x="10" y="32" width="2" height="2" fill="#E73943" />
<rect x="12" y="32" width="2" height="2" fill="#E73E43" />
<rect x="14" y="32" width="2" height="2" fill="#E73E43" />
<rect x="16" y="32" width="2" height="2" fill="#E73E43" />
<rect x="18" y="32" width="2" height="2" fill="#A22938" />
<rect x="20" y="32" width="2" height="2" fill="#AA646F" />
<rect x="22" y="32" width="2" height="2" fill="#FFF9F9" />
<rect x="24" y="32" width="2" height="2" fill="#FAFDFF" />
<rect x="26" y="32" width="2" height="2" fill="#8795B0" />
<rect x="28" y="32" width="2" height="2" fill="#8E9CB6" />
<rect x="30" y="32" width="2" height="2" fill="#A1263B" />
<rect x="32" y="32" width="2" height="2" fill="#A32B35" />
<rect x="34" y="32" width="2" height="2" fill="#8E9CB6" />
<rect x="36" y="32" width="2" height="2" fill="#8C97A9" />
<rect x="38" y="32" width="2" height="2" fill="#8E9EB8" />
<rect x="40" y="32" width="2" height="2" fill="#8C9CB6" />
<rect x="42" y="32" width="2" height="2" fill="#8E9CB6" />
<rect x="44" y="32" width="2" height="2" fill="#839EB1" />
<rect x="46" y="32" width="2" height="2" fill="#8E9CB6" />
<rect x="48" y="32" width="2" height="2" fill="#912C3E" />
<rect x="50" y="32" width="2" height="2" fill="#A1263B" />
<rect x="52" y="32" width="2" height="2" fill="#8E9CB6" />
<rect x="54" y="32" width="2" height="2" fill="#8E9CB6" />
<rect x="56" y="32" width="2" height="2" fill="#717892" />
<rect x="58" y="32" width="2" height="2" fill="#171229" />
<rect x="60" y="32" width="2" height="2" fill="#121C1D" />
<rect x="4" y="34" width="2" height="2" fill="#161221" />
<rect x="6" y="34" width="2" height="2" fill="#340A18" />
<rect x="8" y="34" width="2" height="2" fill="#E73E43" />
<rect x="10" y="34" width="2" height="2" fill="#E73E43" />
<rect x="12" y="34" width="2" height="2" fill="#E73E45" />
<rect x="14" y="34" width="2" height="2" fill="#E73E43" />
<rect x="16" y="34" width="2" height="2" fill="#E73E43" />
<rect x="18" y="34" width="2" height="2" fill="#A62732" />
<rect x="20" y="34" width="2" height="2" fill="#A96969" />
<rect x="22" y="34" width="2" height="2" fill="#FFFCF8" />
<rect x="24" y="34" width="2" height="2" fill="#FDFEFF" />
<rect x="26" y="34" width="2" height="2" fill="#899BAF" />
<rect x="28" y="34" width="2" height="2" fill="#8E9CB6" />
<rect x="30" y="34" width="2" height="2" fill="#A1263B" />
<rect x="32" y="34" width="2" height="2" fill="#A12B37" />
<rect x="34" y="34" width="2" height="2" fill="#8E9CB6" />
<rect x="36" y="34" width="2" height="2" fill="#8E9CB6" />
<rect x="38" y="34" width="2" height="2" fill="#8E9CB6" />
<rect x="40" y="34" width="2" height="2" fill="#8D9EBC" />
<rect x="42" y="34" width="2" height="2" fill="#8E97B6" />
<rect x="44" y="34" width="2" height="2" fill="#8E9CB6" />
<rect x="46" y="34" width="2" height="2" fill="#8E9CB6" />
<rect x="48" y="34" width="2" height="2" fill="#972E3D" />
<rect x="50" y="34" width="2" height="2" fill="#A1263B" />
<rect x="52" y="34" width="2" height="2" fill="#8E9CB6" />
<rect x="54" y="34" width="2" height="2" fill="#8E9CB6" />
<rect x="56" y="34" width="2" height="2" fill="#717990" />
<rect x="58" y="34" width="2" height="2" fill="#191129" />
<rect x="60" y="34" width="2" height="2" fill="#131B1E" />
<rect x="4" y="36" width="2" height="2" fill="#161221" />
<rect x="6" y="36" width="2" height="2" fill="#340A18" />
<rect x="8" y="36" width="2" height="2" fill="#E73E43" />
<rect x="10" y="36" width="2" height="2" fill="#E73E43" />
<rect x="12" y="36" width="2" height="2" fill="#E73E43" />
<rect x="14" y="36" width="2" height="2" fill="#E73E43" />
<rect x="16" y="36" width="2" height="2" fill="#E73E43" />
<rect x="18" y="36" width="2" height="2" fill="#A3272F" />
<rect x="20" y="36" width="2" height="2" fill="#A66B67" />
<rect x="22" y="36" width="2" height="2" fill="#FFFDF8" />
<rect x="24" y="36" width="2" height="2" fill="#FEFDFF" />
<rect x="26" y="36" width="2" height="2" fill="#8A99AC" />
<rect x="28" y="36" width="2" height="2" fill="#8E9CB6" />
<rect x="30" y="36" width="2" height="2" fill="#A1263B" />
<rect x="32" y="36" width="2" height="2" fill="#A6273C" />
<rect x="34" y="36" width="2" height="2" fill="#A12740" />
<rect x="36" y="36" width="2" height="2" fill="#9F253E" />
<rect x="38" y="36" width="2" height="2" fill="#8E9CB6" />
<rect x="40" y="36" width="2" height="2" fill="#8C9DAF" />
<rect x="42" y="36" width="2" height="2" fill="#8E9CB6" />
<rect x="44" y="36" width="2" height="2" fill="#98233D" />
<rect x="46" y="36" width="2" height="2" fill="#9D2A37" />
<rect x="48" y="36" width="2" height="2" fill="#A1263B" />
<rect x="50" y="36" width="2" height="2" fill="#A1263B" />
<rect x="52" y="36" width="2" height="2" fill="#8E9CB6" />
<rect x="54" y="36" width="2" height="2" fill="#8E9CB6" />
<rect x="56" y="36" width="2" height="2" fill="#6F7A8E" />
<rect x="58" y="36" width="2" height="2" fill="#161229" />
<rect x="60" y="36" width="2" height="2" fill="#111C20" />
<rect x="4" y="38" width="2" height="2" fill="#161221" />
<rect x="6" y="38" width="2" height="2" fill="#340A18" />
<rect x="8" y="38" width="2" height="2" fill="#E73E43" />
<rect x="10" y="38" width="2" height="2" fill="#E73E43" />
<rect x="12" y="38" width="2" height="2" fill="#E33E45" />
<rect x="14" y="38" width="2" height="2" fill="#E73E43" />
<rect x="16" y="38" width="2" height="2" fill="#E73E43" />
<rect x="18" y="38" width="2" height="2" fill="#962B35" />
<rect x="20" y="38" width="2" height="2" fill="#A2676D" />
<rect x="22" y="38" width="2" height="2" fill="#FFFBFD" />
<rect x="24" y="38" width="2" height="2" fill="#FEFCFF" />
<rect x="26" y="38" width="2" height="2" fill="#8B9CB0" />
<rect x="28" y="38" width="2" height="2" fill="#8E9CB6" />
<rect x="30" y="38" width="2" height="2" fill="#A1263B" />
<rect x="32" y="38" width="2" height="2" fill="#9D2A47" />
<rect x="34" y="38" width="2" height="2" fill="#A1253D" />
<rect x="36" y="38" width="2" height="2" fill="#A01F31" />
<rect x="38" y="38" width="2" height="2" fill="#8E9CB6" />
<rect x="40" y="38" width="2" height="2" fill="#8E9CB6" />
<rect x="42" y="38" width="2" height="2" fill="#8E9CB6" />
<rect x="44" y="38" width="2" height="2" fill="#A1263B" />
<rect x="46" y="38" width="2" height="2" fill="#A1263B" />
<rect x="48" y="38" width="2" height="2" fill="#A1263B" />
<rect x="50" y="38" width="2" height="2" fill="#A1263B" />
<rect x="52" y="38" width="2" height="2" fill="#8E9CB6" />
<rect x="54" y="38" width="2" height="2" fill="#8E9CB6" />
<rect x="56" y="38" width="2" height="2" fill="#6B7889" />
<rect x="58" y="38" width="2" height="2" fill="#131428" />
<rect x="60" y="38" width="2" height="2" fill="#0E1D20" />
<rect x="4" y="40" width="2" height="2" fill="#161221" />
<rect x="6" y="40" width="2" height="2" fill="#340A18" />
<rect x="8" y="40" width="2" height="2" fill="#E73E43" />
<rect x="10" y="40" width="2" height="2" fill="#E73E43" />
<rect x="12" y="40" width="2" height="2" fill="#B0272F" />
<rect x="14" y="40" width="2" height="2" fill="#A92634" />
<rect x="16" y="40" width="2" height="2" fill="#BA5E6D" />
<rect x="18" y="40" width="2" height="2" fill="#DBCCCF" />
<rect x="20" y="40" width="2" height="2" fill="#C3C6D5" />
<rect x="22" y="40" width="2" height="2" fill="#BDC7D1" />
<rect x="24" y="40" width="2" height="2" fill="#BDC9DF" />
<rect x="26" y="40" width="2" height="2" fill="#8896B1" />
<rect x="28" y="40" width="2" height="2" fill="#8E9CB6" />
<rect x="30" y="40" width="2" height="2" fill="#8D94A4" />
<rect x="32" y="40" width="2" height="2" fill="#A39BA8" />
<rect x="34" y="40" width="2" height="2" fill="#A1263B" />
<rect x="36" y="40" width="2" height="2" fill="#A1263B" />
<rect x="38" y="40" width="2" height="2" fill="#A1263B" />
<rect x="40" y="40" width="2" height="2" fill="#A1263B" />
<rect x="42" y="40" width="2" height="2" fill="#A1263B" />
<rect x="44" y="40" width="2" height="2" fill="#A1263B" />
<rect x="46" y="40" width="2" height="2" fill="#982E42" />
<rect x="48" y="40" width="2" height="2" fill="#8E9CB6" />
<rect x="50" y="40" width="2" height="2" fill="#8E9CB6" />
<rect x="52" y="40" width="2" height="2" fill="#8E9CB6" />
<rect x="54" y="40" width="2" height="2" fill="#8E9CB6" />
<rect x="56" y="40" width="2" height="2" fill="#7C7D91" />
<rect x="58" y="40" width="2" height="2" fill="#1C1024" />
<rect x="60" y="40" width="2" height="2" fill="#121C1B" />
<rect x="4" y="42" width="2" height="2" fill="#161221" />
<rect x="6" y="42" width="2" height="2" fill="#340A18" />
<rect x="8" y="42" width="2" height="2" fill="#E73E43" />
<rect x="10" y="42" width="2" height="2" fill="#E83D4D" />
<rect x="12" y="42" width="2" height="2" fill="#A8242F" />
<rect x="14" y="42" width="2" height="2" fill="#A4263B" />
<rect x="16" y="42" width="2" height="2" fill="#AB596F" />
<rect x="18" y="42" width="2" height="2" fill="#C4CED7" />
<rect x="20" y="42" width="2" height="2" fill="#C1CAE7" />
<rect x="22" y="42" width="2" height="2" fill="#BEC9DB" />
<rect x="24" y="42" width="2" height="2" fill="#BFC5E5" />
<rect x="26" y="42" width="2" height="2" fill="#8B98B8" />
<rect x="28" y="42" width="2" height="2" fill="#8A9FB0" />
<rect x="30" y="42" width="2" height="2" fill="#8B9DB1" />
<rect x="32" y="42" width="2" height="2" fill="#8B9DA9" />
<rect x="34" y="42" width="2" height="2" fill="#A1263B" />
<rect x="36" y="42" width="2" height="2" fill="#A1263B" />
<rect x="38" y="42" width="2" height="2" fill="#A32533" />
<rect x="40" y="42" width="2" height="2" fill="#9F2137" />
<rect x="42" y="42" width="2" height="2" fill="#A22739" />
<rect x="44" y="42" width="2" height="2" fill="#A1263B" />
<rect x="46" y="42" width="2" height="2" fill="#A1263B" />
<rect x="48" y="42" width="2" height="2" fill="#8E9CB6" />
<rect x="50" y="42" width="2" height="2" fill="#8C97A9" />
<rect x="52" y="42" width="2" height="2" fill="#8B9BB5" />
<rect x="54" y="42" width="2" height="2" fill="#8F9DB8" />
<rect x="56" y="42" width="2" height="2" fill="#74798C" />
<rect x="58" y="42" width="2" height="2" fill="#191321" />
<rect x="60" y="42" width="2" height="2" fill="#121D19" />
<rect x="4" y="44" width="2" height="2" fill="#161223" />
<rect x="6" y="44" width="2" height="2" fill="#350918" />
<rect x="8" y="44" width="2" height="2" fill="#E73E43" />
<rect x="10" y="44" width="2" height="2" fill="#EA3B4A" />
<rect x="12" y="44" width="2" height="2" fill="#A62430" />
<rect x="14" y="44" width="2" height="2" fill="#A1273E" />
<rect x="16" y="44" width="2" height="2" fill="#AD5E74" />
<rect x="18" y="44" width="2" height="2" fill="#C6D0D9" />
<rect x="20" y="44" width="2" height="2" fill="#C1C8E2" />
<rect x="22" y="44" width="2" height="2" fill="#BDC8DA" />
<rect x="24" y="44" width="2" height="2" fill="#BBC6DA" />
<rect x="26" y="44" width="2" height="2" fill="#8D9CB3" />
<rect x="28" y="44" width="2" height="2" fill="#889DB2" />
<rect x="30" y="44" width="2" height="2" fill="#879BB3" />
<rect x="32" y="44" width="2" height="2" fill="#8C9BB0" />
<rect x="34" y="44" width="2" height="2" fill="#8E9CB6" />
<rect x="36" y="44" width="2" height="2" fill="#8E9CB6" />
<rect x="38" y="44" width="2" height="2" fill="#8E9CB6" />
<rect x="40" y="44" width="2" height="2" fill="#8E9CB6" />
<rect x="42" y="44" width="2" height="2" fill="#8E9CB6" />
<rect x="44" y="44" width="2" height="2" fill="#8E9CB6" />
<rect x="46" y="44" width="2" height="2" fill="#8E9CB6" />
<rect x="48" y="44" width="2" height="2" fill="#8E9CB6" />
<rect x="50" y="44" width="2" height="2" fill="#8E9CB6" />
<rect x="52" y="44" width="2" height="2" fill="#8B9AB7" />
<rect x="54" y="44" width="2" height="2" fill="#8B9BB4" />
<rect x="56" y="44" width="2" height="2" fill="#71798E" />
<rect x="58" y="44" width="2" height="2" fill="#191222" />
<rect x="60" y="44" width="2" height="2" fill="#111D19" />
<rect x="4" y="46" width="2" height="2" fill="#161223" />
<rect x="6" y="46" width="2" height="2" fill="#35091A" />
<rect x="8" y="46" width="2" height="2" fill="#E73E43" />
<rect x="10" y="46" width="2" height="2" fill="#E73D48" />
<rect x="12" y="46" width="2" height="2" fill="#A42530" />
<rect x="14" y="46" width="2" height="2" fill="#9F283C" />
<rect x="16" y="46" width="2" height="2" fill="#AA5D71" />
<rect x="18" y="46" width="2" height="2" fill="#C7D0D7" />
<rect x="20" y="46" width="2" height="2" fill="#C3D0E3" />
<rect x="22" y="46" width="2" height="2" fill="#BECBDC" />
<rect x="24" y="46" width="2" height="2" fill="#BECBDC" />
<rect x="26" y="46" width="2" height="2" fill="#8C9BB2" />
<rect x="28" y="46" width="2" height="2" fill="#8B9DB5" />
<rect x="30" y="46" width="2" height="2" fill="#8A9EB7" />
<rect x="32" y="46" width="2" height="2" fill="#8B9AB1" />
<rect x="34" y="46" width="2" height="2" fill="#8E9CB6" />
<rect x="36" y="46" width="2" height="2" fill="#8E9CB6" />
<rect x="38" y="46" width="2" height="2" fill="#8E9CB6" />
<rect x="40" y="46" width="2" height="2" fill="#8E9CB6" />
<rect x="42" y="46" width="2" height="2" fill="#8E9CB6" />
<rect x="44" y="46" width="2" height="2" fill="#929CB5" />
<rect x="46" y="46" width="2" height="2" fill="#909AB3" />
<rect x="48" y="46" width="2" height="2" fill="#8D97B0" />
<rect x="50" y="46" width="2" height="2" fill="#8C9AB4" />
<rect x="52" y="46" width="2" height="2" fill="#8B9AB7" />
<rect x="54" y="46" width="2" height="2" fill="#8B9BB4" />
<rect x="56" y="46" width="2" height="2" fill="#71798E" />
<rect x="58" y="46" width="2" height="2" fill="#191224" />
<rect x="60" y="46" width="2" height="2" fill="#111D19" />
<rect x="4" y="48" width="2" height="2" fill="#151223" />
<rect x="6" y="48" width="2" height="2" fill="#34091A" />
<rect x="8" y="48" width="2" height="2" fill="#E73E43" />
<rect x="10" y="48" width="2" height="2" fill="#E83C48" />
<rect x="12" y="48" width="2" height="2" fill="#A7242C" />
<rect x="14" y="48" width="2" height="2" fill="#9F2937" />
<rect x="16" y="48" width="2" height="2" fill="#903F4E" />
<rect x="18" y="48" width="2" height="2" fill="#3D2D3A" />
<rect x="20" y="48" width="2" height="2" fill="#3D2D3A" />
<rect x="22" y="48" width="2" height="2" fill="#A3B2C7" />
<rect x="24" y="48" width="2" height="2" fill="#A1B0C7" />
<rect x="26" y="48" width="2" height="2" fill="#8D9BB6" />
<rect x="28" y="48" width="2" height="2" fill="#8B9BB5" />
<rect x="30" y="48" width="2" height="2" fill="#899AB4" />
<rect x="32" y="48" width="2" height="2" fill="#8B9DB3" />
<rect x="34" y="48" width="2" height="2" fill="#8C9DB1" />
<rect x="36" y="48" width="2" height="2" fill="#8A9AB1" />
<rect x="38" y="48" width="2" height="2" fill="#8A9AB1" />
<rect x="40" y="48" width="2" height="2" fill="#8A9AB1" />
<rect x="42" y="48" width="2" height="2" fill="#8A9AB1" />
<rect x="44" y="48" width="2" height="2" fill="#8999B0" />
<rect x="46" y="48" width="2" height="2" fill="#8898AF" />
<rect x="48" y="48" width="2" height="2" fill="#8B9BB2" />
<rect x="50" y="48" width="2" height="2" fill="#8B9BB4" />
<rect x="52" y="48" width="2" height="2" fill="#8B9AB7" />
<rect x="54" y="48" width="2" height="2" fill="#8B9BB4" />
<rect x="56" y="48" width="2" height="2" fill="#71798E" />
<rect x="58" y="48" width="2" height="2" fill="#191224" />
<rect x="60" y="48" width="2" height="2" fill="#111D19" />
<rect x="4" y="50" width="2" height="2" fill="#151223" />
<rect x="6" y="50" width="2" height="2" fill="#330A1A" />
<rect x="8" y="50" width="2" height="2" fill="#E73E43" />
<rect x="10" y="50" width="2" height="2" fill="#E73D4A" />
<rect x="12" y="50" width="2" height="2" fill="#A9232A" />
<rect x="14" y="50" width="2" height="2" fill="#9F2A33" />
<rect x="16" y="50" width="2" height="2" fill="#782632" />
<rect x="18" y="50" width="2" height="2" fill="#3D2D3A" />
<rect x="20" y="50" width="2" height="2" fill="#3D2D3A" />
<rect x="22" y="50" width="2" height="2" fill="#8F9EB3" />
<rect x="24" y="50" width="2" height="2" fill="#8999B2" />
<rect x="26" y="50" width="2" height="2" fill="#8F9DB8" />
<rect x="28" y="50" width="2" height="2" fill="#8A99B6" />
<rect x="30" y="50" width="2" height="2" fill="#8A99B6" />
<rect x="32" y="50" width="2" height="2" fill="#899DB5" />
<rect x="34" y="50" width="2" height="2" fill="#879CAF" />
<rect x="36" y="50" width="2" height="2" fill="#8A9CB2" />
<rect x="38" y="50" width="2" height="2" fill="#8B9BB2" />
<rect x="40" y="50" width="2" height="2" fill="#8B9BB2" />
<rect x="42" y="50" width="2" height="2" fill="#8B9BB2" />
<rect x="44" y="50" width="2" height="2" fill="#8C9CB3" />
<rect x="46" y="50" width="2" height="2" fill="#8D9DB4" />
<rect x="48" y="50" width="2" height="2" fill="#8C9CB3" />
<rect x="50" y="50" width="2" height="2" fill="#8B9BB4" />
<rect x="52" y="50" width="2" height="2" fill="#8B9AB7" />
<rect x="54" y="50" width="2" height="2" fill="#8B9BB4" />
<rect x="56" y="50" width="2" height="2" fill="#71798E" />
<rect x="58" y="50" width="2" height="2" fill="#191224" />
<rect x="60" y="50" width="2" height="2" fill="#111D19" />
<rect x="4" y="52" width="2" height="2" fill="#161324" />
<rect x="6" y="52" width="2" height="2" fill="#340E1D" />
<rect x="8" y="52" width="2" height="2" fill="#E73E43" />
<rect x="10" y="52" width="2" height="2" fill="#E23D4D" />
<rect x="12" y="52" width="2" height="2" fill="#E73E43" />
<rect x="14" y="52" width="2" height="2" fill="#E73E43" />
<rect x="16" y="52" width="2" height="2" fill="#E73E43" />
<rect x="18" y="52" width="2" height="2" fill="#3D2D3A" />
<rect x="20" y="52" width="2" height="2" fill="#3D2D3A" />
<rect x="22" y="52" width="2" height="2" fill="#8C98A8" />
<rect x="24" y="52" width="2" height="2" fill="#8D99AF" />
<rect x="26" y="52" width="2" height="2" fill="#8E9CB6" />
<rect x="28" y="52" width="2" height="2" fill="#8D9CB9" />
<rect x="30" y="52" width="2" height="2" fill="#8A99B6" />
<rect x="32" y="52" width="2" height="2" fill="#899BB3" />
<rect x="34" y="52" width="2" height="2" fill="#879CB1" />
<rect x="36" y="52" width="2" height="2" fill="#899BB3" />
<rect x="38" y="52" width="2" height="2" fill="#8A9AB3" />
<rect x="40" y="52" width="2" height="2" fill="#8A9AB3" />
<rect x="42" y="52" width="2" height="2" fill="#8A9AB3" />
<rect x="44" y="52" width="2" height="2" fill="#8A9AB3" />
<rect x="46" y="52" width="2" height="2" fill="#8A9AB3" />
<rect x="48" y="52" width="2" height="2" fill="#8A9AB3" />
<rect x="50" y="52" width="2" height="2" fill="#8C9CB5" />
<rect x="52" y="52" width="2" height="2" fill="#8C9BB8" />
<rect x="54" y="52" width="2" height="2" fill="#8D9DB6" />
<rect x="56" y="52" width="2" height="2" fill="#757D92" />
<rect x="58" y="52" width="2" height="2" fill="#191224" />
<rect x="60" y="52" width="2" height="2" fill="#111D19" />
<rect x="4" y="54" width="2" height="2" fill="#151424" />
<rect x="6" y="54" width="2" height="2" fill="#2E0C1A" />
<rect x="8" y="54" width="2" height="2" fill="#A62633" />
<rect x="10" y="54" width="2" height="2" fill="#A62633" />
<rect x="12" y="54" width="2" height="2" fill="#E73E43" />
<rect x="14" y="54" width="2" height="2" fill="#DD414F" />
<rect x="16" y="54" width="2" height="2" fill="#E73E43" />
<rect x="18" y="54" width="2" height="2" fill="#A62633" />
<rect x="20" y="54" width="2" height="2" fill="#A16D7A" />
<rect x="22" y="54" width="2" height="2" fill="#FEFAFF" />
<rect x="24" y="54" width="2" height="2" fill="#F2FBFF" />
<rect x="26" y="54" width="2" height="2" fill="#909FB4" />
<rect x="28" y="54" width="2" height="2" fill="#8B9BB4" />
<rect x="30" y="54" width="2" height="2" fill="#8B9BB5" />
<rect x="32" y="54" width="2" height="2" fill="#8B9BB4" />
<rect x="34" y="54" width="2" height="2" fill="#8A9CB2" />
<rect x="36" y="54" width="2" height="2" fill="#8C9AB4" />
<rect x="38" y="54" width="2" height="2" fill="#8C9AB4" />
<rect x="40" y="54" width="2" height="2" fill="#8C9AB4" />
<rect x="42" y="54" width="2" height="2" fill="#8C9AB4" />
<rect x="44" y="54" width="2" height="2" fill="#8E9AB4" />
<rect x="46" y="54" width="2" height="2" fill="#8E9AB4" />
<rect x="48" y="54" width="2" height="2" fill="#8E9AB4" />
<rect x="50" y="54" width="2" height="2" fill="#8B9BB4" />
<rect x="52" y="54" width="2" height="2" fill="#8C9BB8" />
<rect x="54" y="54" width="2" height="2" fill="#8D9DB6" />
<rect x="56" y="54" width="2" height="2" fill="#757D92" />
<rect x="58" y="54" width="2" height="2" fill="#191224" />
<rect x="60" y="54" width="2" height="2" fill="#111D19" />
<rect x="4" y="56" width="2" height="2" fill="#151424" />
<rect x="6" y="56" width="2" height="2" fill="#290715" />
<rect x="8" y="56" width="2" height="2" fill="#A62633" />
<rect x="10" y="56" width="2" height="2" fill="#A62633" />
<rect x="12" y="56" width="2" height="2" fill="#A62633" />
<rect x="14" y="56" width="2" height="2" fill="#A62633" />
<rect x="16" y="56" width="2" height="2" fill="#A62633" />
<rect x="18" y="56" width="2" height="2" fill="#A62633" />
<rect x="20" y="56" width="2" height="2" fill="#A36F71" />
<rect x="22" y="56" width="2" height="2" fill="#FFFAFF" />
<rect x="24" y="56" width="2" height="2" fill="#F6FAFF" />
<rect x="26" y="56" width="2" height="2" fill="#8B9BA8" />
<rect x="28" y="56" width="2" height="2" fill="#8697A9" />
<rect x="30" y="56" width="2" height="2" fill="#8999B0" />
<rect x="32" y="56" width="2" height="2" fill="#8C97B3" />
<rect x="34" y="56" width="2" height="2" fill="#8C97B3" />
<rect x="36" y="56" width="2" height="2" fill="#8A98B3" />
<rect x="38" y="56" width="2" height="2" fill="#8A98B3" />
<rect x="40" y="56" width="2" height="2" fill="#8A98B3" />
<rect x="42" y="56" width="2" height="2" fill="#8A98B3" />
<rect x="44" y="56" width="2" height="2" fill="#8A98B3" />
<rect x="46" y="56" width="2" height="2" fill="#8A98B3" />
<rect x="48" y="56" width="2" height="2" fill="#8A98B3" />
<rect x="50" y="56" width="2" height="2" fill="#8A9AB3" />
<rect x="52" y="56" width="2" height="2" fill="#8A99B6" />
<rect x="54" y="56" width="2" height="2" fill="#8C9CB5" />
<rect x="56" y="56" width="2" height="2" fill="#737B90" />
<rect x="58" y="56" width="2" height="2" fill="#191224" />
<rect x="60" y="56" width="2" height="2" fill="#111D19" />
<rect x="8" y="58" width="2" height="2" fill="#23121A" />
<rect x="10" y="58" width="2" height="2" fill="#2A0E1D" />
<rect x="12" y="58" width="2" height="2" fill="#300B1C" />
<rect x="14" y="58" width="2" height="2" fill="#330A1C" />
<rect x="16" y="58" width="2" height="2" fill="#300B1C" />
<rect x="18" y="58" width="2" height="2" fill="#2C0D1D" />
<rect x="20" y="58" width="2" height="2" fill="#201221" />
<rect x="22" y="58" width="2" height="2" fill="#171322" />
<rect x="24" y="58" width="2" height="2" fill="#151424" />
<rect x="26" y="58" width="2" height="2" fill="#131426" />
<rect x="28" y="58" width="2" height="2" fill="#121528" />
<rect x="30" y="58" width="2" height="2" fill="#131428" />
<rect x="32" y="58" width="2" height="2" fill="#131429" />
<rect x="34" y="58" width="2" height="2" fill="#131429" />
<rect x="36" y="58" width="2" height="2" fill="#131429" />
<rect x="38" y="58" width="2" height="2" fill="#131429" />
<rect x="40" y="58" width="2" height="2" fill="#131429" />
<rect x="42" y="58" width="2" height="2" fill="#131429" />
<rect x="44" y="58" width="2" height="2" fill="#131429" />
<rect x="46" y="58" width="2" height="2" fill="#131429" />
<rect x="48" y="58" width="2" height="2" fill="#131429" />
<rect x="50" y="58" width="2" height="2" fill="#16122B" />
<rect x="52" y="58" width="2" height="2" fill="#161229" />
<rect x="54" y="58" width="2" height="2" fill="#151422" />
<rect x="56" y="58" width="2" height="2" fill="#0F191B" />
<rect x="8" y="60" width="2" height="2" fill="#12171A" />
<rect x="10" y="60" width="2" height="2" fill="#161421" />
<rect x="12" y="60" width="2" height="2" fill="#161421" />
<rect x="14" y="60" width="2" height="2" fill="#161421" />
<rect x="16" y="60" width="2" height="2" fill="#161421" />
<rect x="18" y="60" width="2" height="2" fill="#161421" />
<rect x="20" y="60" width="2" height="2" fill="#161421" />
<rect x="22" y="60" width="2" height="2" fill="#161421" />
<rect x="24" y="60" width="2" height="2" fill="#161421" />
<rect x="26" y="60" width="2" height="2" fill="#161421" />
<rect x="28" y="60" width="2" height="2" fill="#161421" />
<rect x="30" y="60" width="2" height="2" fill="#161421" />
<rect x="32" y="60" width="2" height="2" fill="#161421" />
<rect x="34" y="60" width="2" height="2" fill="#161421" />
<rect x="36" y="60" width="2" height="2" fill="#161421" />
<rect x="38" y="60" width="2" height="2" fill="#161421" />
<rect x="40" y="60" width="2" height="2" fill="#161421" />
<rect x="42" y="60" width="2" height="2" fill="#161421" />
<rect x="44" y="60" width="2" height="2" fill="#161421" />
<rect x="46" y="60" width="2" height="2" fill="#161421" />
<rect x="48" y="60" width="2" height="2" fill="#161421" />
<rect x="50" y="60" width="2" height="2" fill="#161324" />
<rect x="52" y="60" width="2" height="2" fill="#151521" />
<rect x="54" y="60" width="2" height="2" fill="#15161B" />
</svg>