<?xml version="1.0" encoding="UTF-8" ?>
<svg version="1.1" width="64" height="64" xmlns="http://www.w3.org/2000/svg" shape-rendering="crispEdges">
<rect x="22" y="20" width="2" height="2" fill="#020514" />
<rect x="24" y="20" width="2" height="2" fill="#020514" />
<rect x="46" y="20" width="2" height="2" fill="#070A19" />
<rect x="48" y="20" width="2" height="2" fill="#000210" />
<rect x="16" y="22" width="2" height="2" fill="#040D1C" />
<rect x="18" y="22" width="2" height="2" fill="#00010D" />
<rect x="20" y="22" width="2" height="2" fill="#14141E" />
<rect x="22" y="22" width="2" height="2" fill="#181822" />
<rect x="24" y="22" width="2" height="2" fill="#060610" />
<rect x="26" y="22" width="2" height="2" fill="#070711" />
<rect x="28" y="22" width="2" height="2" fill="#0D0D17" />
<rect x="30" y="22" width="2" height="2" fill="#00020C" />
<rect x="32" y="22" width="2" height="2" fill="#00030C" />
<rect x="34" y="22" width="2" height="2" fill="#00030C" />
<rect x="36" y="22" width="2" height="2" fill="#00030C" />
<rect x="38" y="22" width="2" height="2" fill="#00030C" />
<rect x="40" y="22" width="2" height="2" fill="#00030C" />
<rect x="42" y="22" width="2" height="2" fill="#00070F" />
<rect x="44" y="22" width="2" height="2" fill="#000007" />
<rect x="46" y="22" width="2" height="2" fill="#191C23" />
<rect x="48" y="22" width="2" height="2" fill="#080B14" />
<rect x="16" y="24" width="2" height="2" fill="#000714" />
<rect x="18" y="24" width="2" height="2" fill="#35302D" />
<rect x="20" y="24" width="2" height="2" fill="#35302D" />
<rect x="22" y="24" width="2" height="2" fill="#1D1F2B" />
<rect x="24" y="24" width="2" height="2" fill="#1E212A" />
<rect x="26" y="24" width="2" height="2" fill="#3F3B3C" />
<rect x="28" y="24" width="2" height="2" fill="#3F3B3C" />
<rect x="30" y="24" width="2" height="2" fill="#0E1116" />
<rect x="32" y="24" width="2" height="2" fill="#101417" />
<rect x="34" y="24" width="2" height="2" fill="#35302D" />
<rect x="36" y="24" width="2" height="2" fill="#35302D" />
<rect x="38" y="24" width="2" height="2" fill="#35302D" />
<rect x="40" y="24" width="2" height="2" fill="#35302D" />
<rect x="42" y="24" width="2" height="2" fill="#35302D" />
<rect x="44" y="24" width="2" height="2" fill="#35302D" />
<rect x="46" y="24" width="2" height="2" fill="#35302D" />
<rect x="48" y="24" width="2" height="2" fill="#05050D" />
<rect x="16" y="26" width="2" height="2" fill="#01050E" />
<rect x="18" y="26" width="2" height="2" fill="#35302D" />
<rect x="20" y="26" width="2" height="2" fill="#35302D" />
<rect x="22" y="26" width="2" height="2" fill="#35302D" />
<rect x="24" y="26" width="2" height="2" fill="#35302D" />
<rect x="26" y="26" width="2" height="2" fill="#3F3B3C" />
<rect x="28" y="26" width="2" height="2" fill="#3F3B3C" />
<rect x="30" y="26" width="2" height="2" fill="#2C2724" />
<rect x="32" y="26" width="2" height="2" fill="#292421" />
<rect x="34" y="26" width="2" height="2" fill="#35302D" />
<rect x="36" y="26" width="2" height="2" fill="#35302D" />
<rect x="38" y="26" width="2" height="2" fill="#35302D" />
<rect x="40" y="26" width="2" height="2" fill="#35302D" />
<rect x="42" y="26" width="2" height="2" fill="#35302D" />
<rect x="44" y="26" width="2" height="2" fill="#35302D" />
<rect x="46" y="26" width="2" height="2" fill="#35302D" />
<rect x="48" y="26" width="2" height="2" fill="#04040C" />
<rect x="16" y="28" width="2" height="2" fill="#00050B" />
<rect x="18" y="28" width="2" height="2" fill="#1C1210" />
<rect x="20" y="28" width="2" height="2" fill="#5B4A43" />
<rect x="22" y="28" width="2" height="2" fill="#5D4B41" />
<rect x="24" y="28" width="2" height="2" fill="#534135" />
<rect x="26" y="28" width="2" height="2" fill="#655548" />
<rect x="28" y="28" width="2" height="2" fill="#4F4134" />
<rect x="30" y="28" width="2" height="2" fill="#52413A" />
<rect x="32" y="28" width="2" height="2" fill="#6E4F3D" />
<rect x="34" y="28" width="2" height="2" fill="#6E4F3D" />
<rect x="36" y="28" width="2" height="2" fill="#6E4F3D" />
<rect x="38" y="28" width="2" height="2" fill="#6E4F3D" />
<rect x="40" y="28" width="2" height="2" fill="#6E4F3D" />
<rect x="42" y="28" width="2" height="2" fill="#6E4F3D" />
<rect x="44" y="28" width="2" height="2" fill="#6E4F3D" />
<rect x="46" y="28" width="2" height="2" fill="#1F1617" />
<rect x="48" y="28" width="2" height="2" fill="#05020B" />
<rect x="18" y="30" width="2" height="2" fill="#000002" />
<rect x="20" y="30" width="2" height="2" fill="#867E6B" />
<rect x="22" y="30" width="2" height="2" fill="#87634D" />
<rect x="24" y="30" width="2" height="2" fill="#875F45" />
<rect x="26" y="30" width="2" height="2" fill="#77533B" />
<rect x="28" y="30" width="2" height="2" fill="#442417" />
<rect x="30" y="30" width="2" height="2" fill="#442417" />
<rect x="32" y="30" width="2" height="2" fill="#6E4F3D" />
<rect x="34" y="30" width="2" height="2" fill="#6E4F3D" />
<rect x="36" y="30" width="2" height="2" fill="#876448" />
<rect x="38" y="30" width="2" height="2" fill="#8A6346" />
<rect x="40" y="30" width="2" height="2" fill="#8B6148" />
<rect x="42" y="30" width="2" height="2" fill="#8A6249" />
<rect x="44" y="30" width="2" height="2" fill="#6E4F3D" />
<rect x="46" y="30" width="2" height="2" fill="#6E4F3D" />
<rect x="48" y="30" width="2" height="2" fill="#070101" />
<rect x="16" y="32" width="2" height="2" fill="#000002" />
<rect x="18" y="32" width="2" height="2" fill="#867E6B" />
<rect x="20" y="32" width="2" height="2" fill="#604939" />
<rect x="22" y="32" width="2" height="2" fill="#875F46" />
<rect x="24" y="32" width="2" height="2" fill="#A07356" />
<rect x="26" y="32" width="2" height="2" fill="#7D4F35" />
<rect x="28" y="32" width="2" height="2" fill="#784F39" />
<rect x="30" y="32" width="2" height="2" fill="#4F301C" />
<rect x="32" y="32" width="2" height="2" fill="#8A6249" />
<rect x="34" y="32" width="2" height="2" fill="#8A6249" />
<rect x="36" y="32" width="2" height="2" fill="#8A6249" />
<rect x="38" y="32" width="2" height="2" fill="#8A6249" />
<rect x="40" y="32" width="2" height="2" fill="#8A6249" />
<rect x="42" y="32" width="2" height="2" fill="#8A6249" />
<rect x="44" y="32" width="2" height="2" fill="#8A6249" />
<rect x="46" y="32" width="2" height="2" fill="#8A6249" />
<rect x="48" y="32" width="2" height="2" fill="#030406" />
<rect x="14" y="34" width="2" height="2" fill="#302E39" />
<rect x="16" y="34" width="2" height="2" fill="#5D534A" />
<rect x="18" y="34" width="2" height="2" fill="#867E6B" />
<rect x="20" y="34" width="2" height="2" fill="#6C472C" />
<rect x="22" y="34" width="2" height="2" fill="#6C472C" />
<rect x="24" y="34" width="2" height="2" fill="#6C472C" />
<rect x="26" y="34" width="2" height="2" fill="#332121" />
<rect x="28" y="34" width="2" height="2" fill="#332121" />
<rect x="30" y="34" width="2" height="2" fill="#332121" />
<rect x="32" y="34" width="2" height="2" fill="#332121" />
<rect x="34" y="34" width="2" height="2" fill="#160C0D" />
<rect x="36" y="34" width="2" height="2" fill="#171218" />
<rect x="38" y="34" width="2" height="2" fill="#000002" />
<rect x="40" y="34" width="2" height="2" fill="#000002" />
<rect x="42" y="34" width="2" height="2" fill="#000002" />
<rect x="44" y="34" width="2" height="2" fill="#000002" />
<rect x="46" y="34" width="2" height="2" fill="#000002" />
<rect x="48" y="34" width="2" height="2" fill="#000002" />
<rect x="14" y="36" width="2" height="2" fill="#000002" />
<rect x="16" y="36" width="2" height="2" fill="#867E6B" />
<rect x="18" y="36" width="2" height="2" fill="#8B6D51" />
<rect x="20" y="36" width="2" height="2" fill="#6C472C" />
<rect x="22" y="36" width="2" height="2" fill="#6C472C" />
<rect x="24" y="36" width="2" height="2" fill="#6C472C" />
<rect x="26" y="36" width="2" height="2" fill="#0E0000" />
<rect x="28" y="36" width="2" height="2" fill="#00000D" />
<rect x="30" y="36" width="2" height="2" fill="#010007" />
<rect x="32" y="36" width="2" height="2" fill="#08020E" />
<rect x="34" y="36" width="2" height="2" fill="#040114" />
<rect x="14" y="38" width="2" height="2" fill="#0A0F22" />
<rect x="16" y="38" width="2" height="2" fill="#090005" />
<rect x="18" y="38" width="2" height="2" fill="#000002" />
<rect x="20" y="38" width="2" height="2" fill="#867E6B" />
<rect x="22" y="38" width="2" height="2" fill="#685044" />
<rect x="24" y="38" width="2" height="2" fill="#67544D" />
<rect x="26" y="38" width="2" height="2" fill="#010005" />
<rect x="20" y="40" width="2" height="2" fill="#0C0A17" />
<rect x="22" y="40" width="2" height="2" fill="#100E1B" />
<rect x="24" y="40" width="2" height="2" fill="#00000C" />
<rect x="26" y="40" width="2" height="2" fill="#000010" />
</svg>