<?xml version="1.0" encoding="UTF-8" ?>
<svg version="1.1" width="64" height="64" xmlns="http://www.w3.org/2000/svg" shape-rendering="crispEdges">
<rect x="36" y="26" width="2" height="2" fill="#121D17" />
<rect x="38" y="26" width="2" height="2" fill="#121D19" />
<rect x="40" y="26" width="2" height="2" fill="#111D1B" />
<rect x="42" y="26" width="2" height="2" fill="#091D11" />
<rect x="50" y="26" width="2" height="2" fill="#0B1A15" />
<rect x="52" y="26" width="2" height="2" fill="#0B1A13" />
<rect x="36" y="28" width="2" height="2" fill="#151422" />
<rect x="38" y="28" width="2" height="2" fill="#151424" />
<rect x="40" y="28" width="2" height="2" fill="#171324" />
<rect x="42" y="28" width="2" height="2" fill="#11161C" />
<rect x="50" y="28" width="2" height="2" fill="#171626" />
<rect x="52" y="28" width="2" height="2" fill="#141529" />
<rect x="18" y="30" width="2" height="2" fill="#0C1416" />
<rect x="20" y="30" width="2" height="2" fill="#10171F" />
<rect x="22" y="30" width="2" height="2" fill="#121622" />
<rect x="24" y="30" width="2" height="2" fill="#131522" />
<rect x="26" y="30" width="2" height="2" fill="#15151F" />
<rect x="28" y="30" width="2" height="2" fill="#1A1825" />
<rect x="30" y="30" width="2" height="2" fill="#141021" />
<rect x="32" y="30" width="2" height="2" fill="#171226" />
<rect x="34" y="30" width="2" height="2" fill="#181329" />
<rect x="36" y="30" width="2" height="2" fill="#F5F8FF" />
<rect x="38" y="30" width="2" height="2" fill="#FCFFFF" />
<rect x="40" y="30" width="2" height="2" fill="#191222" />
<rect x="42" y="30" width="2" height="2" fill="#191126" />
<rect x="44" y="30" width="2" height="2" fill="#14162B" />
<rect x="46" y="30" width="2" height="2" fill="#121327" />
<rect x="48" y="30" width="2" height="2" fill="#191526" />
<rect x="50" y="30" width="2" height="2" fill="#8A94AF" />
<rect x="52" y="30" width="2" height="2" fill="#8595AF" />
<rect x="54" y="30" width="2" height="2" fill="#19172D" />
<rect x="56" y="30" width="2" height="2" fill="#12151A" />
<rect x="8" y="32" width="2" height="2" fill="#13161B" />
<rect x="10" y="32" width="2" height="2" fill="#1C1B29" />
<rect x="12" y="32" width="2" height="2" fill="#252C3F" />
<rect x="14" y="32" width="2" height="2" fill="#2C5938" />
<rect x="16" y="32" width="2" height="2" fill="#2C5938" />
<rect x="18" y="32" width="2" height="2" fill="#78C178" />
<rect x="20" y="32" width="2" height="2" fill="#6BBF61" />
<rect x="22" y="32" width="2" height="2" fill="#6DBF5B" />
<rect x="24" y="32" width="2" height="2" fill="#71BB66" />
<rect x="26" y="32" width="2" height="2" fill="#2C583D" />
<rect x="28" y="32" width="2" height="2" fill="#305D49" />
<rect x="30" y="32" width="2" height="2" fill="#2D554D" />
<rect x="32" y="32" width="2" height="2" fill="#24353F" />
<rect x="34" y="32" width="2" height="2" fill="#272C42" />
<rect x="36" y="32" width="2" height="2" fill="#C5CDD8" />
<rect x="38" y="32" width="2" height="2" fill="#C3CBD8" />
<rect x="40" y="32" width="2" height="2" fill="#181729" />
<rect x="42" y="32" width="2" height="2" fill="#17182A" />
<rect x="44" y="32" width="2" height="2" fill="#596575" />
<rect x="46" y="32" width="2" height="2" fill="#373E4E" />
<rect x="48" y="32" width="2" height="2" fill="#181425" />
<rect x="50" y="32" width="2" height="2" fill="#8C96B1" />
<rect x="52" y="32" width="2" height="2" fill="#8B9BB5" />
<rect x="54" y="32" width="2" height="2" fill="#151329" />
<rect x="56" y="32" width="2" height="2" fill="#13161B" />
<rect x="8" y="34" width="2" height="2" fill="#0E1E14" />
<rect x="10" y="34" width="2" height="2" fill="#172321" />
<rect x="12" y="34" width="2" height="2" fill="#252C3F" />
<rect x="14" y="34" width="2" height="2" fill="#2C5938" />
<rect x="16" y="34" width="2" height="2" fill="#34543D" />
<rect x="18" y="34" width="2" height="2" fill="#4C774C" />
<rect x="20" y="34" width="2" height="2" fill="#4F7E4A" />
<rect x="22" y="34" width="2" height="2" fill="#517D4A" />
<rect x="24" y="34" width="2" height="2" fill="#547B4F" />
<rect x="26" y="34" width="2" height="2" fill="#253F32" />
<rect x="28" y="34" width="2" height="2" fill="#263F39" />
<rect x="30" y="34" width="2" height="2" fill="#25383C" />
<rect x="32" y="34" width="2" height="2" fill="#202737" />
<rect x="34" y="34" width="2" height="2" fill="#24243C" />
<rect x="36" y="34" width="2" height="2" fill="#A9B6C9" />
<rect x="38" y="34" width="2" height="2" fill="#B0BBCF" />
<rect x="40" y="34" width="2" height="2" fill="#131429" />
<rect x="42" y="34" width="2" height="2" fill="#19172C" />
<rect x="44" y="34" width="2" height="2" fill="#404757" />
<rect x="46" y="34" width="2" height="2" fill="#2B313F" />
<rect x="48" y="34" width="2" height="2" fill="#181425" />
<rect x="50" y="34" width="2" height="2" fill="#7B85A0" />
<rect x="52" y="34" width="2" height="2" fill="#7A8AA4" />
<rect x="54" y="34" width="2" height="2" fill="#19172D" />
<rect x="56" y="34" width="2" height="2" fill="#15181D" />
<rect x="18" y="36" width="2" height="2" fill="#13131D" />
<rect x="20" y="36" width="2" height="2" fill="#131126" />
<rect x="22" y="36" width="2" height="2" fill="#151027" />
<rect x="24" y="36" width="2" height="2" fill="#151026" />
<rect x="26" y="36" width="2" height="2" fill="#181425" />
<rect x="28" y="36" width="2" height="2" fill="#181425" />
<rect x="30" y="36" width="2" height="2" fill="#171022" />
<rect x="32" y="36" width="2" height="2" fill="#1A1627" />
<rect x="34" y="36" width="2" height="2" fill="#191428" />
<rect x="36" y="36" width="2" height="2" fill="#94A2BC" />
<rect x="38" y="36" width="2" height="2" fill="#929EB6" />
<rect x="40" y="36" width="2" height="2" fill="#18162E" />
<rect x="42" y="36" width="2" height="2" fill="#1C142B" />
<rect x="44" y="36" width="2" height="2" fill="#161324" />
<rect x="46" y="36" width="2" height="2" fill="#181423" />
<rect x="48" y="36" width="2" height="2" fill="#1B1728" />
<rect x="50" y="36" width="2" height="2" fill="#616B86" />
<rect x="52" y="36" width="2" height="2" fill="#5E6E88" />
<rect x="54" y="36" width="2" height="2" fill="#18162C" />
<rect x="56" y="36" width="2" height="2" fill="#111419" />
<rect x="36" y="38" width="2" height="2" fill="#171427" />
<rect x="38" y="38" width="2" height="2" fill="#171427" />
<rect x="40" y="38" width="2" height="2" fill="#161523" />
<rect x="42" y="38" width="2" height="2" fill="#11161C" />
<rect x="50" y="38" width="2" height="2" fill="#1C1C1E" />
<rect x="52" y="38" width="2" height="2" fill="#17141F" />
<rect x="36" y="40" width="2" height="2" fill="#111D1B" />
<rect x="38" y="40" width="2" height="2" fill="#111D1B" />
<rect x="40" y="40" width="2" height="2" fill="#111D1B" />
<rect x="42" y="40" width="2" height="2" fill="#111D1B" />
<rect x="50" y="40" width="2" height="2" fill="#0B1A15" />
<rect x="52" y="40" width="2" height="2" fill="#0B1A15" />
</svg>